<svg width="1440" height="164" viewBox="0 0 1440 164" fill="none" xmlns="http://www.w3.org/2000/svg">
<path d="M23.8641 161.338L35.0503 162.525M23.8641 161.338H57.0135M23.8641 161.338L12.3061 160.112M23.8641 161.338H0.387477M35.0503 162.525L30.9799 162.525L26.9516 162.522L23.0072 162.515L19.1865 162.501L15.5315 162.478L12.0811 162.443L8.87653 162.395L5.90221 162.333L3.34981 162.248L1.02608 162.149L0.387477 162.115V161.338M35.0503 162.525H67.6667M67.6667 162.525H100.283M67.6667 162.525L57.0135 161.338M100.283 162.525H132.9M100.283 162.525L90.1629 161.338M132.9 162.525H165.517M132.9 162.525L123.312 161.338M165.517 162.525H198.133M165.517 162.525L156.461 161.338M198.133 162.525H230.75M198.133 162.525L189.61 161.338M230.75 162.525H263.367M230.75 162.525L222.76 161.338M263.367 162.525H295.983M263.367 162.525L255.909 161.338M295.983 162.525H328.6M295.983 162.525L289.059 161.338M328.6 162.525H361.217M328.6 162.525L322.208 161.338M361.217 162.525H393.833M361.217 162.525L355.357 161.338M393.833 162.525H426.45M393.833 162.525L388.507 161.338M426.45 162.525H459.067M426.45 162.525L425.266 162.232L423.472 161.788L421.656 161.338M459.067 162.525H491.683M459.067 162.525L458.015 162.232L454.806 161.338M491.683 162.525H524.3M491.683 162.525L487.955 161.338M524.3 162.525H556.917M524.3 162.525L523.114 162.085L521.912 161.639L521.509 161.489L521.104 161.338M556.917 162.525H589.533M556.917 162.525L555.928 162.085L555.596 161.937L555.262 161.788L554.253 161.338M589.533 162.525H622.15M589.533 162.525L587.402 161.338M622.15 162.525L621.953 162.379L621.756 162.232L620.755 161.489L620.552 161.338M622.15 162.525H654.766M654.766 162.525H687.384M654.766 162.525L653.701 161.338M687.384 162.525H720M687.384 162.525L687.186 162.085L686.851 161.338M720 162.525H752.616M720 162.525V161.338M752.616 162.525H785.234M752.616 162.525L752.814 162.085L753.149 161.338M785.234 162.525H817.85M785.234 162.525L786.299 161.338M817.85 162.525L818.047 162.379L818.244 162.232L819.245 161.489L819.448 161.338M817.85 162.525H850.466M850.466 162.525H883.084M850.466 162.525L852.327 161.489L852.598 161.338M883.084 162.525H915.7M883.084 162.525L884.072 162.085L884.404 161.937L885.073 161.639L885.409 161.489L885.747 161.338M915.7 162.525H948.317M915.7 162.525L916.886 162.085L918.087 161.639L918.491 161.489L918.896 161.338M948.317 162.525H980.933M948.317 162.525L952.045 161.338M980.933 162.525H1013.55M980.933 162.525L981.985 162.232L985.194 161.338M1013.55 162.525H1046.17M1013.55 162.525L1018.34 161.338M1046.17 162.525H1078.78M1046.17 162.525L1051.49 161.338M1078.78 162.525H1111.4M1078.78 162.525L1084.64 161.338M1111.4 162.525H1144.02M1111.4 162.525L1117.79 161.338M1144.02 162.525H1176.63M1144.02 162.525L1150.94 161.338M1176.63 162.525H1209.25M1176.63 162.525L1184.09 161.338M1209.25 162.525H1241.87M1209.25 162.525L1217.24 161.338M1241.87 162.525H1274.48M1241.87 162.525L1250.39 161.338M1274.48 162.525H1307.1M1274.48 162.525L1283.54 161.338M1307.1 162.525H1339.72M1307.1 162.525L1316.69 161.338M1339.72 162.525H1372.33M1339.72 162.525L1349.84 161.338M1372.33 162.525H1404.95M1372.33 162.525L1382.99 161.338M1404.95 162.525L1409.02 162.525L1413.05 162.522L1416.99 162.515L1420.81 162.501L1424.47 162.478L1427.92 162.443L1431.12 162.395L1434.1 162.333L1436.65 162.248L1438.97 162.149L1439.61 162.115V161.338M1404.95 162.525L1416.14 161.338M1349.84 161.338H1316.69M1349.84 161.338H1382.99M1349.84 161.338L1360.29 160.112M1316.69 161.338L1326.6 160.112M1316.69 161.338H1283.54M1217.24 161.338H1184.09M1217.24 161.338H1250.39M1217.24 161.338L1219.28 161.036L1225.5 160.112M1184.09 161.338L1191.8 160.112M1184.09 161.338H1150.94M1084.64 161.338H1051.49M1084.64 161.338H1117.79M1084.64 161.338L1086.14 161.036L1086.89 160.883L1090.7 160.112M1051.49 161.338L1052.17 161.187L1052.85 161.036L1057 160.112M1051.49 161.338H1018.34M952.045 161.338L952.52 161.187L955.898 160.112M952.045 161.338H918.896M952.045 161.338H985.194M918.896 161.338L919.711 161.036L920.122 160.883L920.533 160.73L922.198 160.112M918.896 161.338H885.747M819.448 161.338H786.299M819.448 161.338H852.598M819.448 161.338L821.099 160.112M786.299 161.338L786.434 161.187L786.57 161.036L786.707 160.883L787.121 160.423L787.399 160.112M786.299 161.338H753.149M686.851 161.338H653.701M686.851 161.338H720M686.851 161.338L686.3 160.112M653.701 161.338L653.566 161.187L653.43 161.036L653.293 160.883L652.601 160.112M653.701 161.338H620.552M554.253 161.338H521.104M554.253 161.338H587.402M554.253 161.338L553.574 161.036L552.198 160.423L551.851 160.268L551.501 160.112M521.104 161.338L520.289 161.036L519.878 160.883L519.466 160.73L517.802 160.112M521.104 161.338H487.955M421.656 161.338H388.507M421.656 161.338H454.806M421.656 161.338L420.433 161.036L419.817 160.883L416.703 160.112M388.507 161.338L387.828 161.187L387.148 161.036L383.003 160.112M388.507 161.338H355.357M289.059 161.338H255.909M289.059 161.338H322.208M289.059 161.338L287.292 161.036L286.403 160.883L281.904 160.112M255.909 161.338L248.204 160.112M255.909 161.338H222.76M156.461 161.338H123.312M156.461 161.338H189.61M156.461 161.338L147.105 160.112M123.312 161.338L113.405 160.112M123.312 161.338H90.1629M1439.73 150.239H1439.61M1406.36 150.239L1393.71 151.805M1406.36 150.239L1419.5 148.613M1406.36 150.239H1368.23M1406.36 150.239H1439.61M1393.71 151.805H1431.14M1393.71 151.805L1381.51 153.315M1393.71 151.805H1356.28M1431.14 151.805L1418.26 153.315M1431.14 151.805H1439.61M1431.14 151.805L1439.61 150.812M1393.86 156.177H1358.39M1393.86 156.177L1382.29 157.534M1393.86 156.177H1429.32M1393.86 156.177L1405.84 154.771M1358.39 156.177L1347.43 157.534M1358.39 156.177L1369.74 154.771M1358.39 156.177H1322.93M1382.29 157.534H1347.43M1382.29 157.534L1371.1 158.845M1382.29 157.534H1417.14M1347.43 157.534H1312.57M1347.43 157.534L1336.84 158.845M1439.98 125.514H1439.61M1409.21 125.514L1392.89 128.111M1409.21 125.514L1426.34 122.787M1409.21 125.514H1359.98M1409.21 125.514H1439.61M1392.89 128.111L1377.32 130.588M1392.89 128.111H1344.83M1392.89 128.111H1439.61M1424.28 130.588H1377.32M1424.28 130.588L1408.35 132.953M1424.28 130.588H1439.61M1424.28 130.588L1439.61 128.31M1393.13 135.213H1348.26M1393.13 135.213L1378.57 137.376M1393.13 135.213H1438.01M1393.13 135.213L1408.35 132.953M1348.26 135.213L1334.67 137.376M1348.26 135.213L1362.46 132.953M1348.26 135.213H1303.38M1378.57 137.376H1334.67M1378.57 137.376H1422.48M1378.57 137.376L1364.63 139.447M1334.67 137.376L1321.66 139.447M1334.67 137.376H1290.76M1338.44 143.336H1297.21M1338.44 143.336L1326.13 145.165M1338.44 143.336H1379.67M1338.44 143.336L1351.27 141.432M1297.21 143.336L1285.72 145.165M1297.21 143.336L1309.18 141.432M1297.21 143.336H1255.98M1326.13 145.165H1285.72M1326.13 145.165H1366.54M1326.13 145.165L1314.3 146.922M1285.72 145.165L1274.68 146.922M1285.72 145.165H1245.31M1291.97 150.239H1253.84M1291.97 150.239L1281.42 151.805M1291.97 150.239H1330.1M1291.97 150.239L1302.92 148.613M1253.84 150.239L1243.99 151.805M1253.84 150.239L1264.06 148.613M1253.84 150.239H1215.71M1281.42 151.805H1243.99M1281.42 151.805H1318.85M1281.42 151.805L1271.26 153.315M1243.99 151.805L1234.51 153.315M1243.99 151.805H1206.57M1251.99 156.177H1216.53M1251.99 156.177L1242.86 157.534M1251.99 156.177H1287.46M1251.99 156.177L1261.45 154.771M1216.53 156.177L1208 157.534M1216.53 156.177L1225.36 154.771M1216.53 156.177H1181.06M1242.86 157.534H1208M1242.86 157.534L1234.03 158.845M1242.86 157.534H1277.71M1208 157.534H1173.14M1208 157.534L1199.76 158.845M1414.39 80.4878L1391.42 85.6052M1414.39 80.4878L1438.99 75.0079M1414.39 80.4878H1344.95M1414.39 80.4878H1439.61M1391.42 85.6052L1369.92 90.3949M1391.42 85.6052H1324.28M1391.42 85.6052H1439.61M1391.89 99.1097H1330.81M1391.89 99.1097L1372.26 103.085M1391.89 99.1097L1412.73 94.8874M1391.89 99.1097H1439.61M1330.81 99.1097L1312.96 103.085M1330.81 99.1097L1349.76 94.8874M1330.81 99.1097H1269.73M1372.26 103.085H1312.96M1372.26 103.085H1431.56M1372.26 103.085L1353.75 106.835M1312.96 103.085L1296.13 106.835M1312.96 103.085H1253.67M1319.7 113.73H1265.18M1319.7 113.73L1304.01 116.907M1319.7 113.73H1374.22M1319.7 113.73L1336.25 110.378M1265.18 113.73L1250.92 116.907M1265.18 113.73L1280.23 110.378M1265.18 113.73H1210.66M1304.01 116.907H1250.92M1304.01 116.907H1357.11M1304.01 116.907L1289.13 119.922M1250.92 116.907L1237.39 119.922M1250.92 116.907H1197.83M1261.52 125.514H1212.29M1261.52 125.514L1248.7 128.111M1261.52 125.514H1310.75M1261.52 125.514L1274.98 122.787M1212.29 125.514L1200.64 128.111M1212.29 125.514L1224.53 122.787M1212.29 125.514H1163.06M1248.7 128.111H1200.64M1248.7 128.111H1296.76M1248.7 128.111L1236.47 130.588M1200.64 128.111L1189.52 130.588M1200.64 128.111H1152.57M1213.63 135.213H1168.76M1213.63 135.213L1202.95 137.376M1213.63 135.213H1258.51M1213.63 135.213L1224.79 132.953M1168.76 135.213L1159.05 137.376M1168.76 135.213L1178.9 132.953M1168.76 135.213H1123.88M1202.95 137.376H1159.05M1202.95 137.376H1246.86M1202.95 137.376L1192.73 139.447M1159.05 137.376L1149.75 139.447M1159.05 137.376H1115.14M1173.52 143.336H1132.3M1173.52 143.336L1164.5 145.165M1173.52 143.336H1214.75M1173.52 143.336L1182.93 141.432M1132.3 143.336L1131.25 143.569L1124.09 145.165M1132.3 143.336L1140.84 141.432M1132.3 143.336H1091.07M1164.5 145.165H1124.09M1164.5 145.165H1204.9M1164.5 145.165L1155.82 146.922M1124.09 145.165L1116.2 146.922M1124.09 145.165H1083.68M1139.44 150.239H1101.31M1139.44 150.239L1131.71 151.805M1139.44 150.239H1177.58M1139.44 150.239L1147.48 148.613M1101.31 150.239L1094.28 151.805M1101.31 150.239L1104.02 149.636L1108.61 148.613M1101.31 150.239H1063.18M1131.71 151.805H1094.28M1131.71 151.805H1169.14M1131.71 151.805L1124.26 153.315M1094.28 151.805L1087.51 153.315M1094.28 151.805H1056.85M1110.13 156.177H1074.66M1110.13 156.177L1103.43 157.534M1110.13 156.177H1145.59M1110.13 156.177L1117.07 154.771M1074.66 156.177L1070.07 157.199L1069.32 157.367L1068.57 157.534M1074.66 156.177L1080.97 154.771M1074.66 156.177H1039.2M1103.43 157.534H1068.57M1103.43 157.534L1096.96 158.845M1103.43 157.534H1138.29M1068.57 157.534H1033.71M1068.57 157.534L1062.69 158.845M1389.23 22.1934H1293.63M1389.23 22.1934L1359.13 31.7746M1389.23 22.1934L1422.31 11.6649M1389.23 22.1934L1439.61 22.1932M1293.63 22.1934L1267.82 31.7746M1293.63 22.1934L1321.98 11.6649M1293.63 22.1934H1198.02M1359.13 31.7746H1267.82M1359.13 31.7746L1331.62 40.5309M1359.13 31.7746H1439.61M1267.82 31.7746L1244.24 40.5309M1267.82 31.7746H1176.52M1283.13 55.9614H1202.69M1283.13 55.9614L1261.67 62.7943M1283.13 55.9614H1363.58M1283.13 55.9614L1306.37 48.5646M1202.69 55.9614L1184.28 62.7943M1202.69 55.9614L1222.61 48.5646M1202.69 55.9614H1122.24M1261.67 62.7943H1184.28M1261.67 62.7943H1339.05M1261.67 62.7943L1241.77 69.1253M1184.28 62.7943L1167.23 69.1253M1184.28 62.7943H1106.9M1206.07 80.4878H1136.63M1206.07 80.4878L1189.99 85.6052M1206.07 80.4878H1275.51M1206.07 80.4878L1223.29 75.0079M1136.63 80.4878L1122.85 85.6052M1136.63 80.4878L1151.39 75.0079M1136.63 80.4878H1067.2M1189.99 85.6052H1122.85M1189.99 85.6052H1257.14M1189.99 85.6052L1174.95 90.3949M1122.85 85.6052L1109.95 90.3949M1122.85 85.6052H1055.71M1147.57 99.1097H1086.48M1147.57 99.1097L1135.07 103.085M1147.57 99.1097H1208.65M1147.57 99.1097L1160.83 94.8874M1086.48 99.1097L1075.78 103.085M1086.48 99.1097L1097.85 94.8874M1086.48 99.1097H1025.4M1135.07 103.085H1075.78M1135.07 103.085H1194.37M1135.07 103.085L1123.29 106.835M1075.78 103.085L1065.68 106.835M1075.78 103.085H1016.48M1101.63 113.73H1047.11M1101.63 113.73L1091.65 116.907M1101.63 113.73H1156.15M1101.63 113.73L1112.16 110.378M1047.11 113.73L1038.55 116.907M1047.11 113.73L1056.14 110.378M1047.11 113.73H992.591M1091.65 116.907H1038.55M1091.65 116.907H1144.74M1091.65 116.907L1082.17 119.922M1038.55 116.907L1030.43 119.922M1038.55 116.907H985.461M1064.6 125.514H1015.38M1064.6 125.514L1056.44 128.111M1064.6 125.514H1113.83M1064.6 125.514L1073.17 122.787M1015.38 125.514L1008.38 128.111M1015.38 125.514L1022.72 122.787M1015.38 125.514H966.146M1056.44 128.111H1008.38M1056.44 128.111H1104.51M1056.44 128.111L1048.66 130.588M1008.38 128.111L1001.71 130.588M1008.38 128.111H960.318M1034.13 135.213H989.253M1034.13 135.213L1027.33 137.376M1034.13 135.213H1079M1034.13 135.213L1041.23 132.953M989.253 135.213L983.43 137.376M989.253 135.213L995.341 132.953M989.253 135.213H944.378M1027.33 137.376H983.43M1027.33 137.376H1071.24M1027.33 137.376L1020.83 139.447M983.43 137.376L977.852 139.447M983.43 137.376H939.524M1008.61 143.336H967.376M1008.61 143.336L1002.86 145.165M1008.61 143.336H1049.84M1008.61 143.336L1014.59 141.432M967.376 143.336L968.007 143.103L972.506 141.432M967.376 143.336L962.452 145.165M967.376 143.336H926.147M1002.86 145.165H962.452M1002.86 145.165H1043.27M1002.86 145.165L997.339 146.922M962.452 145.165L957.719 146.922M962.452 145.165H922.043M986.919 150.239H948.788M986.919 150.239L981.997 151.805M986.919 150.239H1025.05M986.919 150.239L992.029 148.613M948.788 150.239L944.569 151.805M948.788 150.239L950.411 149.636L951.506 149.23L953.168 148.613M948.788 150.239H910.657M981.997 151.805H944.569M981.997 151.805H1019.43M981.997 151.805L977.254 153.315M944.569 151.805L943.027 152.378L942.01 152.756L940.503 153.315M944.569 151.805H907.141M968.263 156.177H932.798M968.263 156.177L965.052 157.199L964 157.534M968.263 156.177H1003.73M968.263 156.177L972.118 154.95L972.678 154.771M932.798 156.177L930.044 157.199L929.593 157.367L929.143 157.534M932.798 156.177L934.673 155.48L936.582 154.771M932.798 156.177H897.331M964 157.534H929.143M964 157.534L959.881 158.845M964 157.534H998.857M929.143 157.534H894.286M929.143 157.534L925.612 158.845M1006.81 22.1934H911.209M1006.81 22.1934L993.912 31.7746M1006.81 22.1934H1102.42M1006.81 22.1934L1020.99 11.6649M911.209 22.1934L902.608 31.7746M911.209 22.1934L920.66 11.6649M911.209 22.1934H815.604M993.912 31.7746H902.608M993.912 31.7746H1085.22M993.912 31.7746L982.121 40.5309M902.608 31.7746L894.747 40.5309M902.608 31.7746H811.304M961.343 55.9614H880.896M961.343 55.9614L952.142 62.7943M961.343 55.9614H1041.79M961.343 55.9614L971.304 48.5646M880.896 55.9614L874.762 62.7943M880.896 55.9614L887.535 48.5646M880.896 55.9614H800.447M952.142 62.7943H874.762M952.142 62.7943H1029.52M952.142 62.7943L943.617 69.1253M874.762 62.7943L869.078 69.1253M874.762 62.7943H797.381M928.317 80.4878H858.878M928.317 80.4878L921.426 85.6052M928.317 80.4878H997.756M928.317 80.4878L935.696 75.0079M858.878 80.4878L854.284 85.6052M858.878 80.4878L863.797 75.0079M858.878 80.4878H789.439M921.426 85.6052H854.284M921.426 85.6052H988.568M921.426 85.6052L914.977 90.3949M854.284 85.6052L849.984 90.3949M854.284 85.6052H787.142M903.242 99.1097H842.162M903.242 99.1097L897.889 103.085M903.242 99.1097H964.323M903.242 99.1097L908.927 94.8874M842.162 99.1097L838.593 103.085M842.162 99.1097L845.952 94.8874M842.162 99.1097H781.081M897.889 103.085H838.593M897.889 103.085H957.185M897.889 103.085L892.84 106.835M838.593 103.085L835.226 106.835M838.593 103.085H779.296M883.555 113.73H829.036M883.555 113.73L879.277 116.907M883.555 113.73H938.073M883.555 113.73L888.069 110.378M829.036 113.73L826.185 116.907M829.036 113.73L832.046 110.378M829.036 113.73H774.518M879.277 116.907H826.185M879.277 116.907H932.369M879.277 116.907L875.217 119.922M826.185 116.907L823.478 119.922M826.185 116.907H773.092M867.688 125.514H818.459M867.688 125.514L864.191 128.111M867.688 125.514H916.917M867.688 125.514L871.358 122.787M818.459 125.514L816.127 128.111M818.459 125.514L820.906 122.787M818.459 125.514H769.229M864.191 128.111H816.127M864.191 128.111H912.254M864.191 128.111L862.921 129.053L860.855 130.588M816.127 128.111L813.903 130.588M816.127 128.111H768.063M854.627 135.213H809.751M854.627 135.213L851.715 137.376M854.627 135.213H899.503M854.627 135.213L856.896 133.527L857.671 132.953M809.751 135.213L809.013 136.035L807.81 137.376M809.751 135.213L811.781 132.953M809.751 135.213H764.875M851.715 137.376L851.36 137.64L848.926 139.447M851.715 137.376H807.81M851.715 137.376H895.62M807.81 137.376L807.103 138.163L806.871 138.422L806.638 138.68L805.951 139.447M807.81 137.376H763.905M843.689 143.336H802.459M843.689 143.336L842.445 144.26L842.138 144.488L841.833 144.715L841.528 144.941L841.226 145.165M843.689 143.336H884.918M843.689 143.336L846.253 141.432M802.459 143.336L801.222 144.715L801.019 144.941L800.818 145.165M802.459 143.336L804.168 141.432M802.459 143.336H761.229M841.226 145.165H800.818M841.226 145.165H881.635M841.226 145.165L839.736 146.272L839.443 146.49L838.86 146.922M800.818 145.165L799.824 146.272L799.628 146.49L799.434 146.707L799.24 146.922M800.818 145.165H760.408M834.394 150.239H796.262M834.394 150.239L832.284 151.805M834.394 150.239H872.526M834.394 150.239L834.934 149.838L835.753 149.23L836.584 148.613M796.262 150.239L796.442 150.039L797.537 148.819L797.723 148.613M796.262 150.239L794.856 151.805M796.262 150.239H758.131M832.284 151.805H794.856M832.284 151.805H869.712M832.284 151.805L830.251 153.315M794.856 151.805L794.342 152.378L794.173 152.567L794.003 152.756L793.501 153.315M794.856 151.805H757.428M826.398 156.177H790.933M826.398 156.177L825.022 157.199L824.572 157.534M826.398 156.177H861.865M826.398 156.177L827.101 155.655L827.336 155.48L827.574 155.304L828.291 154.771M790.933 156.177L790.778 156.349L790.471 156.691L790.166 157.03L789.715 157.534M790.933 156.177L791.558 155.48L791.715 155.304L792.034 154.95L792.194 154.771M790.933 156.177H755.466M824.572 157.534H789.715M824.572 157.534L823.024 158.683L822.806 158.845M824.572 157.534H859.429M789.715 157.534L789.565 157.7L789.416 157.866L789.268 158.03L789.121 158.195L788.682 158.683L788.537 158.845M789.715 157.534H754.857M624.396 22.1934H528.791M624.396 22.1934L628.696 31.7746M624.396 22.1934H720M624.396 22.1934L619.67 11.6649M528.791 22.1934L537.392 31.7746M528.791 22.1934L519.34 11.6649M528.791 22.1934H433.186M628.696 31.7746H537.392M628.696 31.7746H720M628.696 31.7746L632.626 40.5309M537.392 31.7746L545.253 40.5309M537.392 31.7746H446.088M639.553 55.9614H559.104M639.553 55.9614L642.619 62.7943M639.553 55.9614H720M639.553 55.9614L636.232 48.5646M559.104 55.9614L565.238 62.7943M559.104 55.9614L552.464 48.5646M559.104 55.9614H478.657M642.619 62.7943H565.238M642.619 62.7943H720M642.619 62.7943L645.461 69.1253M565.238 62.7943L570.922 69.1253M565.238 62.7943H487.858M650.561 80.4878H581.122M650.561 80.4878L652.858 85.6052M650.561 80.4878H720M650.561 80.4878L648.101 75.0079M581.122 80.4878L585.716 85.6052M581.122 80.4878L576.203 75.0079M581.122 80.4878H511.683M652.858 85.6052H585.716M652.858 85.6052H720M652.858 85.6052L655.008 90.3949M585.716 85.6052L590.015 90.3949M585.716 85.6052H518.574M658.919 99.1097H597.838M658.919 99.1097L660.704 103.085M658.919 99.1097H720M658.919 99.1097L657.024 94.8874M597.838 99.1097L601.407 103.085M597.838 99.1097L594.048 94.8874M597.838 99.1097H536.758M660.704 103.085H601.407M660.704 103.085H720M660.704 103.085L662.387 106.835M601.407 103.085L604.774 106.835M601.407 103.085H542.111M665.482 113.73H610.964M665.482 113.73L666.908 116.907M665.482 113.73H720M665.482 113.73L663.977 110.378M610.964 113.73L613.815 116.907M610.964 113.73L607.954 110.378M610.964 113.73H556.445M666.908 116.907H613.815M666.908 116.907H720M666.908 116.907L668.261 119.922M613.815 116.907L616.522 119.922M613.815 116.907H560.723M670.771 125.514H621.541M670.771 125.514L671.937 128.111M670.771 125.514H720M670.771 125.514L669.547 122.787M621.541 125.514L623.873 128.111M621.541 125.514L619.094 122.787M621.541 125.514H572.312M671.937 128.111H623.873M671.937 128.111H720M671.937 128.111L673.048 130.588M623.873 128.111L626.097 130.588M623.873 128.111H575.809M675.125 135.213H630.249M675.125 135.213L676.095 137.376M675.125 135.213H720M675.125 135.213L674.11 132.953M630.249 135.213L631.952 137.111L632.19 137.376M630.249 135.213L628.219 132.953M630.249 135.213H585.373M676.095 137.376L676.213 137.64L677.025 139.447M676.095 137.376H632.19M676.095 137.376H720M632.19 137.376L632.897 138.163L633.129 138.422L633.362 138.68L634.049 139.447M632.19 137.376H588.285M678.771 143.336H637.541M678.771 143.336L679.591 145.165M678.771 143.336H720M678.771 143.336L678.454 142.632L678.347 142.394L678.241 142.155L678.025 141.674L677.915 141.432M637.541 143.336L638.778 144.715L639.183 145.165M637.541 143.336L635.832 141.432M637.541 143.336H596.311M679.591 145.165H639.183M679.591 145.165H720M679.591 145.165L680.38 146.922M639.183 145.165L640.175 146.272L640.372 146.49L640.566 146.707L640.76 146.922M639.183 145.165H598.774M681.869 150.239H643.738M681.869 150.239L682.572 151.805M681.869 150.239H720M681.869 150.239L681.139 148.613M643.738 150.239L643.558 150.039L642.463 148.819L642.277 148.613M643.738 150.239L645.144 151.805M643.738 150.239H605.606M682.572 151.805H645.144M682.572 151.805H720M682.572 151.805L683.249 153.315M645.144 151.805L645.658 152.378L645.827 152.567L645.997 152.756L646.499 153.315M645.144 151.805H607.716M684.533 156.177H649.067M684.533 156.177L685.143 157.534M684.533 156.177H720M684.533 156.177L683.903 154.771M649.067 156.177L649.222 156.349L649.53 156.691L649.682 156.861L649.985 157.199L650.135 157.367L650.286 157.534M649.067 156.177L648.442 155.48L648.285 155.304L647.966 154.95L647.806 154.771M649.067 156.177H613.601M685.143 157.534L685.217 157.7L685.292 157.866L685.366 158.03L685.731 158.845M685.143 157.534H650.286M685.143 157.534H720M650.286 157.534H615.428M650.286 157.534L650.584 157.866L650.732 158.03L650.879 158.195L651.317 158.683L651.463 158.845M241.977 22.1934H146.373M241.977 22.1934L263.48 31.7746M241.977 22.1934H337.581M241.977 22.1934L218.348 11.6649M146.373 22.1934L172.176 31.7746M146.373 22.1934L118.019 11.6649M146.373 22.1934H50.7678M263.48 31.7746H172.176M263.48 31.7746H354.784M263.48 31.7746L283.131 40.5309M172.176 31.7746L195.758 40.5309M172.176 31.7746H80.8716M317.761 55.9614H237.313M317.761 55.9614L333.096 62.7943M317.761 55.9614H398.209M317.761 55.9614L301.161 48.5646M237.313 55.9614L255.715 62.7943M237.313 55.9614L217.393 48.5646M237.313 55.9614H156.866M333.096 62.7943H255.715M333.096 62.7943H410.477M333.096 62.7943L347.304 69.1253M255.715 62.7943L272.765 69.1253M255.715 62.7943H178.334M372.804 80.4878H303.365M372.804 80.4878L384.29 85.6052M372.804 80.4878H442.244M372.804 80.4878L360.506 75.0079M303.365 80.4878L317.147 85.6052M303.365 80.4878L288.607 75.0079M303.365 80.4878H233.926M384.29 85.6052H317.147M384.29 85.6052H451.432M384.29 85.6052L395.039 90.3949M317.147 85.6052L330.046 90.3949M317.147 85.6052H250.005M414.596 99.1097H353.516M414.596 99.1097L423.518 103.085M414.596 99.1097H475.677M414.596 99.1097L405.121 94.8874M353.516 99.1097L364.222 103.085M353.516 99.1097L342.145 94.8874M353.516 99.1097H292.435M423.518 103.085H364.222M423.518 103.085H482.815M423.518 103.085L431.934 106.835M364.222 103.085L374.321 106.835M364.222 103.085H304.926M447.409 113.73H392.89M447.409 113.73L454.539 116.907M447.409 113.73H501.927M447.409 113.73L439.885 110.378M392.89 113.73L401.446 116.907M392.89 113.73L383.861 110.378M392.89 113.73H338.371M454.539 116.907H401.446M454.539 116.907H507.631M454.539 116.907L461.305 119.922M401.446 116.907L409.566 119.922M401.446 116.907H348.354M473.854 125.514H424.625M473.854 125.514L479.682 128.111M473.854 125.514H523.083M473.854 125.514L467.735 122.787M424.625 125.514L431.619 128.111M424.625 125.514L417.282 122.787M424.625 125.514H375.396M479.682 128.111H431.619M479.682 128.111H527.746M479.682 128.111L485.241 130.588M431.619 128.111L438.29 130.588M431.619 128.111H383.556M495.622 135.213L495 134.936L494.374 134.658L490.549 132.953M495.622 135.213H450.746M495.622 135.213L500.475 137.376M495.622 135.213H540.497M450.746 135.213L456.57 137.376M450.746 135.213L444.659 132.953M450.746 135.213H405.87M500.475 137.376H456.57M500.475 137.376H544.38M500.475 137.376L505.123 139.447M456.57 137.376L462.148 139.447M456.57 137.376H412.665M513.853 143.336H472.623M513.853 143.336L517.957 145.165M513.853 143.336H555.082M513.853 143.336L509.579 141.432M472.623 143.336L475.725 144.488L477.548 145.165M472.623 143.336L467.494 141.432M472.623 143.336H431.393M517.957 145.165H477.548M517.957 145.165H558.365M517.957 145.165L521.415 146.707L521.9 146.922M477.548 145.165L482.28 146.922M477.548 145.165H437.139M529.343 150.239H491.212M529.343 150.239L530.234 150.636L532.859 151.805M529.343 150.239H567.474M529.343 150.239L528.444 149.838L526.618 149.025L525.693 148.613M491.212 150.239L495.431 151.805M491.212 150.239L489.589 149.636L488.494 149.23L486.832 148.613M491.212 150.239H453.081M532.859 151.805H495.431M532.859 151.805H570.288M532.859 151.805L535.412 152.943L536.248 153.315M495.431 151.805L496.973 152.378L497.99 152.756L499.497 153.315M495.431 151.805H458.003M542.669 156.177H507.202M542.669 156.177L544.585 157.03L545.714 157.534M542.669 156.177H578.135M542.669 156.177L539.515 154.771M507.202 156.177L509.956 157.199L510.407 157.367L510.857 157.534M507.202 156.177L505.327 155.48L503.418 154.771M507.202 156.177H471.737M545.714 157.534H510.857M545.714 157.534L547.198 158.195L547.93 158.521L548.294 158.683L548.656 158.845M545.714 157.534H580.571M510.857 157.534H476M510.857 157.534L514.388 158.845M23.5725 62.7943H100.953M23.5725 62.7943L49.1472 69.1253M23.5725 62.7943H0.387477M23.5725 62.7943L0.387477 57.0549M95.048 80.4878H25.6091M95.048 80.4878L115.72 85.6052M95.048 80.4878H164.487M95.048 80.4878L72.9109 75.0079M25.6091 80.4878L48.5782 85.6052M25.6091 80.4878L1.0119 75.0079M25.6091 80.4878H0.387477M115.72 85.6052H48.5782M115.72 85.6052H182.862M115.72 85.6052L135.07 90.3949M48.5782 85.6052L70.0774 90.3949M48.5782 85.6052H0.387477M170.274 99.1097H109.193M170.274 99.1097L186.333 103.085M170.274 99.1097H231.355M170.274 99.1097L153.217 94.8874M109.193 99.1097L127.036 103.085M109.193 99.1097L90.2416 94.8874M109.193 99.1097H48.112M186.333 103.085H127.036M186.333 103.085H245.629M186.333 103.085L201.481 106.835M127.036 103.085L143.868 106.835M127.036 103.085H67.7402M229.335 113.73H174.817M229.335 113.73L242.169 116.907M229.335 113.73H283.853M229.335 113.73L215.792 110.378M174.817 113.73L189.077 116.907M174.817 113.73L159.769 110.378M174.817 113.73H120.298M242.169 116.907H189.077M242.169 116.907H295.261M242.169 116.907L254.349 119.922M189.077 116.907L202.611 119.922M189.077 116.907H135.985M276.937 125.514H227.708M276.937 125.514L287.428 128.111M276.937 125.514H326.166M276.937 125.514L265.924 122.787M227.708 125.514L239.365 128.111M227.708 125.514L215.471 122.787M227.708 125.514H178.479M287.428 128.111H239.365M287.428 128.111H335.492M287.428 128.111L297.435 130.588M239.365 128.111L250.483 130.588M239.365 128.111H191.301M316.119 135.213H271.244M316.119 135.213L324.856 137.376M316.119 135.213H360.995M316.119 135.213L306.988 132.953M271.244 135.213L280.951 137.376M271.244 135.213L261.098 132.953M271.244 135.213H226.368M324.856 137.376H280.951M324.856 137.376H368.76M324.856 137.376L333.222 139.447M280.951 137.376L290.247 139.447M280.951 137.376H237.046M348.935 143.336H307.706M348.935 143.336L356.322 145.165M348.935 143.336H390.164M348.935 143.336L341.241 141.432M307.706 143.336L315.913 145.165M307.706 143.336L299.156 141.432M307.706 143.336H266.475M356.322 145.165H315.913M356.322 145.165H396.731M356.322 145.165L363.421 146.922M315.913 145.165L323.801 146.922M315.913 145.165H275.504M376.818 150.239H338.687M376.818 150.239L383.146 151.805M376.818 150.239H414.949M376.818 150.239L375.198 149.838L374.384 149.636L370.247 148.613M338.687 150.239L345.718 151.805M338.687 150.239L331.386 148.613M338.687 150.239H300.556M383.146 151.805H345.718M383.146 151.805H420.574M383.146 151.805L389.245 153.315M345.718 151.805L352.495 153.315M345.718 151.805H308.29M400.804 156.177H365.338M400.804 156.177L406.286 157.534M400.804 156.177H436.27M400.804 156.177L395.127 154.771M365.338 156.177L369.926 157.199L370.678 157.367L371.429 157.534M365.338 156.177L359.03 154.771M365.338 156.177H329.872M406.286 157.534H371.429M406.286 157.534L410.929 158.683L411.582 158.845M406.286 157.534H441.143M371.429 157.534H336.571M371.429 157.534L377.313 158.845M11.2618 113.73L29.8002 116.907M11.2618 113.73H65.7801M11.2618 113.73L0.387477 111.867M11.2618 113.73H0.387477M29.8002 116.907H82.8926M29.8002 116.907L47.3932 119.922M29.8002 116.907H0.387477M80.0201 125.514H30.7903M80.0201 125.514L95.1747 128.111M80.0201 125.514H129.249M80.0201 125.514L64.1121 122.787M30.7903 125.514L47.1106 128.111M30.7903 125.514L13.659 122.787M30.7903 125.514H0.387477M95.1747 128.111H47.1106M95.1747 128.111H143.238M95.1747 128.111L109.628 130.588M47.1106 128.111L62.6759 130.588M47.1106 128.111H0.387477M136.617 135.213H91.7408M136.617 135.213L149.236 137.376M136.617 135.213H181.492M136.617 135.213L123.427 132.953M91.7408 135.213L105.331 137.376M91.7408 135.213L77.5374 132.953M91.7408 135.213H46.8655M149.236 137.376H105.331M149.236 137.376H193.141M149.236 137.376L161.321 139.447M105.331 137.376L118.345 139.447M105.331 137.376H61.4256M184.017 143.336H142.788M184.017 143.336L194.687 145.165M184.017 143.336H225.246M184.017 143.336L172.904 141.432M142.788 143.336L154.278 145.165M142.788 143.336L130.82 141.432M142.788 143.336H101.557M194.687 145.165H154.278M194.687 145.165H235.096M194.687 145.165L204.941 146.922M154.278 145.165L165.321 146.922M154.278 145.165H113.87M224.293 150.239H186.161M224.293 150.239L233.433 151.805M224.293 150.239H262.424M224.293 150.239L214.802 148.613M186.161 150.239L196.005 151.805M186.161 150.239L175.941 148.613M186.161 150.239H148.03M233.433 151.805H196.005M233.433 151.805H270.862M233.433 151.805L242.243 153.315M196.005 151.805L205.493 153.315M196.005 151.805H158.577M258.939 156.177H223.473M258.939 156.177L266.857 157.534M258.939 156.177H294.405M258.939 156.177L250.74 154.771M223.473 156.177L232 157.534M223.473 156.177L214.642 154.771M223.473 156.177H188.006M266.857 157.534H232M266.857 157.534L274.507 158.845M266.857 157.534H301.714M232 157.534H197.142M232 157.534L240.239 158.845M19.0989 143.336L33.0527 145.165M19.0989 143.336H60.3282M19.0989 143.336L4.56644 141.432M19.0989 143.336H0.387477M33.0527 145.165H73.4611M33.0527 145.165L46.4614 146.922M33.0527 145.165H0.387477M71.7678 150.239H33.6365M71.7678 150.239L83.7209 151.805M71.7678 150.239H109.899M71.7678 150.239L59.3567 148.613M33.6365 150.239L46.2928 151.805M33.6365 150.239L20.4954 148.613M33.6365 150.239H0.387477M83.7209 151.805H46.2928M83.7209 151.805H121.149M83.7209 151.805L95.2414 153.315M46.2928 151.805L58.4909 153.315M46.2928 151.805H8.86463M117.074 156.177H81.6078M117.074 156.177L127.428 157.534M117.074 156.177H152.541M117.074 156.177L106.352 154.771M81.6078 156.177L92.5714 157.534M81.6078 156.177L70.2551 154.771M81.6078 156.177H46.1413M127.428 157.534H92.5714M127.428 157.534L137.432 158.845M127.428 157.534H162.285M92.5714 157.534H57.7136M92.5714 157.534L103.164 158.845M70.2551 154.771L58.4909 153.315M70.2551 154.771H34.1576M70.2551 154.771H106.352M46.1413 156.177L57.7136 157.534M46.1413 156.177L34.1576 154.771M46.1413 156.177H10.6757M57.7136 157.534H22.8566M57.7136 157.534L68.8953 158.845M103.164 158.845H137.432M103.164 158.845H68.8953M103.164 158.845L113.405 160.112M34.1576 154.771L21.7397 153.315M34.1576 154.771H0.387477M10.6757 156.177L22.8566 157.534M10.6757 156.177L0.387477 155.031M10.6757 156.177H0.387477M22.8566 157.534L34.6268 158.845M22.8566 157.534H0.387477M68.8953 158.845H34.6268M68.8953 158.845L79.7052 160.112M34.6268 158.845L46.0057 160.112M34.6268 158.845H0.387477M58.4909 153.315H21.7397M58.4909 153.315H95.2414M8.86463 151.805L21.7397 153.315M8.86463 151.805L0.387477 150.812M8.86463 151.805H0.387477M21.7397 153.315H0.387477M95.2414 153.315H131.992M95.2414 153.315L106.352 154.771M106.352 154.771H142.449M20.4954 148.613L6.84149 146.922M20.4954 148.613H59.3567M20.4954 148.613H0.387477M0.271267 150.239H0.387477M6.84149 146.922H46.4614M6.84149 146.922L0.387477 146.124M6.84149 146.922H0.387477M46.4614 146.922H86.0813M46.4614 146.922L59.3567 148.613M59.3567 148.613H98.218M214.642 154.771L205.493 153.315M214.642 154.771H178.546M214.642 154.771H250.74M188.006 156.177L197.142 157.534M188.006 156.177L178.546 154.771M188.006 156.177H152.541M197.142 157.534H162.285M197.142 157.534L205.97 158.845M240.239 158.845H205.97M240.239 158.845L248.204 160.112M240.239 158.845H274.507M178.546 154.771L168.742 153.315M178.546 154.771H142.449M152.541 156.177L162.285 157.534M152.541 156.177L142.449 154.771M162.285 157.534L171.701 158.845M205.97 158.845H171.701M205.97 158.845L214.504 160.112M142.449 154.771L131.992 153.315M137.432 158.845H171.701M137.432 158.845L147.105 160.112M171.701 158.845L180.805 160.112M205.493 153.315H168.742M205.493 153.315H242.243M158.577 151.805L168.742 153.315M158.577 151.805L148.03 150.239M158.577 151.805H121.149M168.742 153.315H131.992M242.243 153.315H278.994M242.243 153.315L250.74 154.771M131.992 153.315L121.149 151.805M250.74 154.771H286.837M148.03 150.239L137.079 148.613M148.03 150.239H109.899M121.149 151.805L109.899 150.239M109.899 150.239L98.218 148.613M175.941 148.613L165.321 146.922M175.941 148.613H137.079M175.941 148.613H214.802M137.079 148.613L125.701 146.922M137.079 148.613H98.218M98.218 148.613L86.0813 146.922M165.321 146.922H125.701M165.321 146.922H204.941M113.87 145.165L125.701 146.922M113.87 145.165L101.557 143.336M113.87 145.165H73.4611M125.701 146.922H86.0813M204.941 146.922H244.561M204.941 146.922L214.802 148.613M86.0813 146.922L73.4611 145.165M214.802 148.613H253.663M101.557 143.336L88.7349 141.432M101.557 143.336H60.3282M73.4611 145.165L60.3282 143.336M60.3282 143.336L46.6511 141.432M130.82 141.432L118.345 139.447M130.82 141.432H88.7349M130.82 141.432H172.904M88.7349 141.432L75.3696 139.447M88.7349 141.432H46.6511M46.6511 141.432L32.3945 139.447M46.6511 141.432H4.56644M4.56644 141.432H0.387477M4.56644 141.432L0.387477 140.884M118.345 139.447H75.3696M118.345 139.447H161.321M61.4256 137.376L75.3696 139.447M61.4256 137.376L46.8655 135.213M61.4256 137.376H17.521M75.3696 139.447H32.3945M161.321 139.447H204.296M161.321 139.447L172.904 141.432M32.3945 139.447L17.521 137.376M32.3945 139.447H0.387477M172.904 141.432H214.988M46.8655 135.213L31.6472 132.953M46.8655 135.213H1.99007M17.521 137.376L1.99007 135.213M17.521 137.376H0.387477M0.162561 139.447H0.387477M1.99007 135.213L0.387477 134.99M1.99007 135.213H0.387477M77.5374 132.953L62.6759 130.588M77.5374 132.953H31.6472M77.5374 132.953H123.427M31.6472 132.953L15.7242 130.588M31.6472 132.953H0.387477M-4.04232e-05 134.936L0.387477 134.99M62.6759 130.588H15.7242M62.6759 130.588H109.628M15.7242 130.588H0.387477M15.7242 130.588L0.387477 128.31M109.628 130.588H156.579M109.628 130.588L123.427 132.953M123.427 132.953H169.317M13.659 122.787H64.1121M13.659 122.787L0.387477 120.676M13.659 122.787H0.387477M0.0223779 125.514H0.387477M64.1121 122.787H114.565M64.1121 122.787L47.3932 119.922M0.241346 120.652L0.387477 120.676M359.03 154.771L352.495 153.315M359.03 154.771H322.934M359.03 154.771H395.127M329.872 156.177L336.571 157.534M329.872 156.177L322.934 154.771M329.872 156.177H294.405M336.571 157.534H301.714M336.571 157.534L343.044 158.845M377.313 158.845H343.044M377.313 158.845L379.47 159.325L383.003 160.112M377.313 158.845H411.582M322.934 154.771L315.744 153.315M322.934 154.771H286.837M294.405 156.177L301.714 157.534M294.405 156.177L286.837 154.771M301.714 157.534L308.776 158.845M343.044 158.845H308.776M343.044 158.845L349.303 160.112M286.837 154.771L278.994 153.315M274.507 158.845L281.904 160.112M274.507 158.845H308.776M308.776 158.845L309.642 159.006L311.364 159.325L315.603 160.112M352.495 153.315H315.744M352.495 153.315H389.245M308.29 151.805L315.744 153.315M308.29 151.805L300.556 150.239M308.29 151.805H270.862M315.744 153.315H278.994M389.245 153.315H425.996M389.245 153.315L395.127 154.771M278.994 153.315L270.862 151.805M395.127 154.771H431.225M300.556 150.239L292.525 148.613M300.556 150.239H262.424M270.862 151.805L269.824 151.613L262.424 150.239M262.424 150.239L253.663 148.613M331.386 148.613L330.454 148.405L323.801 146.922M331.386 148.613H292.525M331.386 148.613H370.247M292.525 148.613L284.181 146.922M292.525 148.613H253.663M253.663 148.613L244.561 146.922M323.801 146.922H284.181M323.801 146.922H363.421M275.504 145.165L284.181 146.922M275.504 145.165L266.475 143.336M275.504 145.165H235.096M284.181 146.922H244.561M363.421 146.922H403.041M363.421 146.922L370.247 148.613M244.561 146.922L235.096 145.165M370.247 148.613H409.109M266.475 143.336L257.073 141.432M266.475 143.336H225.246M235.096 145.165L225.246 143.336M225.246 143.336L214.988 141.432M299.156 141.432L290.247 139.447M299.156 141.432H257.073M299.156 141.432H341.241M257.073 141.432L247.271 139.447M257.073 141.432H214.988M214.988 141.432L204.296 139.447M290.247 139.447H247.271M290.247 139.447H333.222M237.046 137.376L247.271 139.447M237.046 137.376L226.368 135.213M237.046 137.376H193.141M247.271 139.447H204.296M333.222 139.447H376.197M333.222 139.447L341.241 141.432M204.296 139.447L193.141 137.376M341.241 141.432H383.326M226.368 135.213L215.208 132.953M226.368 135.213H181.492M193.141 137.376L181.492 135.213M181.492 135.213L169.317 132.953M261.098 132.953L250.483 130.588M261.098 132.953H215.208M261.098 132.953H306.988M215.208 132.953L203.531 130.588M215.208 132.953H169.317M169.317 132.953L156.579 130.588M250.483 130.588H203.531M250.483 130.588H297.435M191.301 128.111L203.531 130.588M191.301 128.111L178.479 125.514M191.301 128.111H143.238M203.531 130.588H156.579M297.435 130.588H344.386M297.435 130.588L306.988 132.953M156.579 130.588L143.238 128.111M306.988 132.953H352.878M178.479 125.514L165.018 122.787M178.479 125.514H129.249M143.238 128.111L129.249 125.514M129.249 125.514L114.565 122.787M215.471 122.787L202.611 119.922M215.471 122.787H165.018M215.471 122.787H265.924M165.018 122.787L150.871 119.922M165.018 122.787H114.565M114.565 122.787L99.1325 119.922M202.611 119.922H150.871M202.611 119.922H254.349M135.985 116.907L150.871 119.922M135.985 116.907L120.298 113.73M135.985 116.907H82.8926M150.871 119.922H99.1325M254.349 119.922H306.089M254.349 119.922L265.924 122.787M99.1325 119.922L82.8926 116.907M99.1325 119.922H47.3932M265.924 122.787H316.377M120.298 113.73L103.746 110.378M120.298 113.73H65.7801M82.8926 116.907L65.7801 113.73M47.3932 119.922H0.387477M65.7801 113.73L47.7229 110.378M159.769 110.378L143.868 106.835M159.769 110.378H103.746M159.769 110.378H215.792M103.746 110.378L86.2545 106.835M103.746 110.378H47.7229M47.7229 110.378L28.6413 106.835M47.7229 110.378H0.387477M143.868 106.835H86.2545M143.868 106.835H201.481M67.7402 103.085L86.2545 106.835M67.7402 103.085L48.112 99.1097M67.7402 103.085H8.44417M86.2545 106.835H28.6413M201.481 106.835H259.094M201.481 106.835L215.792 110.378M28.6413 106.835L8.44417 103.085M28.6413 106.835H0.387477M215.792 110.378H271.816M48.112 99.1097L27.2658 94.8874M48.112 99.1097H0.387477M8.44417 103.085H0.387477M8.44417 103.085L0.387477 101.589M90.2416 94.8874L70.0774 90.3949M90.2416 94.8874H27.2658M90.2416 94.8874H153.217M27.2658 94.8874L5.08517 90.3949M27.2658 94.8874H0.387477M70.0774 90.3949H5.08517M70.0774 90.3949H135.07M5.08517 90.3949L0.387477 89.4435M5.08517 90.3949H0.387477M135.07 90.3949H200.062M135.07 90.3949L153.217 94.8874M153.217 94.8874H216.193M1.0119 75.0079H72.9109M1.0119 75.0079H0.387477M1.0119 75.0079L0.387477 74.8688M72.9109 75.0079H144.809M72.9109 75.0079L49.1472 69.1253M503.418 154.771L501.964 154.232L501.475 154.05L499.497 153.315M503.418 154.771H467.321M503.418 154.771H539.515M471.737 156.177L474.948 157.199L476 157.534M471.737 156.177L467.881 154.95L467.321 154.771M471.737 156.177H436.27M476 157.534H441.143M476 157.534L480.119 158.845M514.388 158.845H480.119M514.388 158.845L515.682 159.325L517.802 160.112M514.388 158.845H548.656M467.321 154.771L466.193 154.412L462.746 153.315M467.321 154.771H431.225M436.27 156.177L441.143 157.534M436.27 156.177L431.225 154.771M441.143 157.534L444.689 158.521L445.851 158.845M480.119 158.845H445.851M480.119 158.845L484.102 160.112M431.225 154.771L425.996 153.315M411.582 158.845L412.231 159.006L416.703 160.112M411.582 158.845H445.851M445.851 158.845L447.576 159.325L450.402 160.112M499.497 153.315H462.746M499.497 153.315H536.248M458.003 151.805L462.746 153.315M458.003 151.805L453.081 150.239M458.003 151.805H420.574M462.746 153.315H425.996M536.248 153.315H572.998M536.248 153.315L539.515 154.771M425.996 153.315L420.574 151.805M539.515 154.771H575.612M453.081 150.239L449.91 149.23L449.266 149.025L447.971 148.613M453.081 150.239H414.949M420.574 151.805L414.949 150.239M414.949 150.239L409.109 148.613M486.832 148.613L482.28 146.922M486.832 148.613H447.971M486.832 148.613H525.693M447.971 148.613L442.661 146.922M447.971 148.613H409.109M409.109 148.613L403.041 146.922M482.28 146.922H442.661M482.28 146.922H521.9M437.139 145.165L440.616 146.272L441.3 146.49L442.661 146.922M437.139 145.165L431.393 143.336M437.139 145.165H396.731M442.661 146.922H403.041M521.9 146.922H561.52M521.9 146.922L525.693 148.613M403.041 146.922L396.731 145.165M525.693 148.613H564.555M431.393 143.336L425.409 141.432M431.393 143.336H390.164M396.731 145.165L390.164 143.336M390.164 143.336L383.326 141.432M467.494 141.432L464.849 140.45L464.179 140.201L462.148 139.447M467.494 141.432H425.409M467.494 141.432H509.579M425.409 141.432L419.173 139.447M425.409 141.432H383.326M383.326 141.432L376.197 139.447M462.148 139.447H419.173M462.148 139.447H505.123M412.665 137.376L419.173 139.447M412.665 137.376L405.87 135.213M412.665 137.376H368.76M419.173 139.447H376.197M505.123 139.447H548.099M505.123 139.447L506.255 139.951L509.579 141.432M376.197 139.447L368.76 137.376M509.579 141.432H551.662M405.87 135.213L398.769 132.953M405.87 135.213H360.995M368.76 137.376L360.995 135.213M360.995 135.213L352.878 132.953M444.659 132.953L438.29 130.588M444.659 132.953H398.769M444.659 132.953H490.549M398.769 132.953L391.338 130.588M398.769 132.953H352.878M352.878 132.953L344.386 130.588M438.29 130.588H391.338M438.29 130.588H485.241M383.556 128.111L391.338 130.588M383.556 128.111L375.396 125.514M383.556 128.111H335.492M391.338 130.588H344.386M485.241 130.588H532.193M485.241 130.588L490.549 132.953M344.386 130.588L335.492 128.111M490.549 132.953H536.439M375.396 125.514L366.83 122.787M375.396 125.514H326.166M335.492 128.111L326.166 125.514M326.166 125.514L316.377 122.787M417.282 122.787L409.566 119.922M417.282 122.787H366.83M417.282 122.787H467.735M366.83 122.787L357.827 119.922M366.83 122.787H316.377M316.377 122.787L306.089 119.922M409.566 119.922H357.827M409.566 119.922H461.305M348.354 116.907L357.827 119.922M348.354 116.907L338.371 113.73M348.354 116.907H295.261M357.827 119.922H306.089M461.305 119.922H513.044M461.305 119.922L467.735 122.787M306.089 119.922L295.261 116.907M467.735 122.787H518.188M338.371 113.73L327.838 110.378M338.371 113.73H283.853M295.261 116.907L283.853 113.73M283.853 113.73L271.816 110.378M383.861 110.378L374.321 106.835M383.861 110.378H327.838M383.861 110.378H439.885M327.838 110.378L316.707 106.835M327.838 110.378H271.816M271.816 110.378L259.094 106.835M374.321 106.835H316.707M374.321 106.835H431.934M304.926 103.085L316.707 106.835M304.926 103.085L292.435 99.1097M304.926 103.085H245.629M316.707 106.835H259.094M431.934 106.835H489.547M431.934 106.835L439.885 110.378M259.094 106.835L245.629 103.085M439.885 110.378H495.907M292.435 99.1097L279.169 94.8874M292.435 99.1097H231.355M245.629 103.085L231.355 99.1097M231.355 99.1097L216.193 94.8874M342.145 94.8874L330.046 90.3949M342.145 94.8874H279.169M342.145 94.8874H405.121M279.169 94.8874L265.054 90.3949M279.169 94.8874H216.193M216.193 94.8874L200.062 90.3949M330.046 90.3949H265.054M330.046 90.3949H395.039M250.005 85.6052L265.054 90.3949M250.005 85.6052L233.926 80.4878M250.005 85.6052H182.862M265.054 90.3949H200.062M395.039 90.3949H460.031M395.039 90.3949L405.121 94.8874M200.062 90.3949L182.862 85.6052M405.121 94.8874H468.097M233.926 80.4878L216.708 75.0079M233.926 80.4878H164.487M182.862 85.6052L164.487 80.4878M164.487 80.4878L144.809 75.0079M288.607 75.0079L272.765 69.1253M288.607 75.0079H216.708M288.607 75.0079H360.506M216.708 75.0079L198.226 69.1253M216.708 75.0079H144.809M144.809 75.0079L123.686 69.1253M272.765 69.1253H198.226M272.765 69.1253H347.304M178.334 62.7943L198.226 69.1253M178.334 62.7943L156.866 55.9614M178.334 62.7943H100.953M198.226 69.1253H123.686M347.304 69.1253H421.844M347.304 69.1253L360.506 75.0079M123.686 69.1253L100.953 62.7943M123.686 69.1253H49.1472M360.506 75.0079H432.405M156.866 55.9614L133.625 48.5646M156.866 55.9614H76.4183M100.953 62.7943L76.4183 55.9614M49.1472 69.1253H0.387477M76.4183 55.9614L49.8571 48.5646M76.4183 55.9614H0.387477M217.393 48.5646L195.758 40.5309M217.393 48.5646H133.625M217.393 48.5646H301.161M133.625 48.5646L108.384 40.5309M133.625 48.5646H49.8571M49.8571 48.5646L21.0103 40.5309M49.8571 48.5646H0.387477M195.758 40.5309H108.384M195.758 40.5309H283.131M80.8716 31.7746L108.384 40.5309M80.8716 31.7746L50.7678 22.1934M80.8716 31.7746H0.387477M108.384 40.5309H21.0103M283.131 40.5309H370.505M283.131 40.5309L301.161 48.5646M21.0103 40.5309H0.387477M21.0103 40.5309L0.387477 34.7876M301.161 48.5646H384.929M50.7678 22.1934L17.6881 11.6649M50.7678 22.1934H0.387477M118.019 11.6649L86.7155 0.0412925M118.019 11.6649H17.6881M118.019 11.6649H218.348M17.6881 11.6649L0.387477 6.15834M17.6881 11.6649H0.387477M86.7155 0.0412925H192.263M86.7155 0.0412925L0.387477 0.041506M192.263 0.0412925H297.81M192.263 0.0412925L218.348 11.6649M218.348 11.6649H318.679M647.806 154.771L647.645 154.592L647.484 154.412L647.321 154.232L647.159 154.05L646.665 153.5L646.499 153.315M647.806 154.771H611.709M647.806 154.771H683.903M613.601 156.177L614.978 157.199L615.428 157.534M613.601 156.177L612.426 155.304L611.709 154.771M613.601 156.177H578.135M615.428 157.534H580.571M615.428 157.534L616.758 158.521L617.194 158.845M651.463 158.845L651.607 159.006L652.178 159.642L652.601 160.112M651.463 158.845H617.194M651.463 158.845H685.731M611.709 154.771L611.468 154.592L611.225 154.412L610.982 154.232L610.737 154.05L609.749 153.315M611.709 154.771H575.612M578.135 156.177L579.97 157.199L580.571 157.534M578.135 156.177L575.612 154.771M580.571 157.534L581.759 158.195L582.636 158.683L582.925 158.845M617.194 158.845L617.41 159.006L617.84 159.325L618.268 159.642L618.479 159.799L618.901 160.112M617.194 158.845H582.925M575.612 154.771L573.66 153.684L572.998 153.315M548.656 158.845L550.799 159.799L551.501 160.112M548.656 158.845H582.925M582.925 158.845L584.92 159.956L585.202 160.112M646.499 153.315H609.749M646.499 153.315H683.249M607.716 151.805L609.749 153.315M607.716 151.805L605.606 150.239M607.716 151.805H570.288M609.749 153.315H572.998M683.249 153.315H720M683.249 153.315L683.903 154.771M572.998 153.315L570.288 151.805M683.903 154.771H720M605.606 150.239L605.066 149.838L604.247 149.23L603.416 148.613M605.606 150.239H567.474M570.288 151.805L569.941 151.613L567.474 150.239M567.474 150.239L567.116 150.039L566.755 149.838L566.393 149.636L564.555 148.613M642.277 148.613L640.76 146.922M642.277 148.613H603.416M642.277 148.613H681.139M603.416 148.613L601.14 146.922M603.416 148.613H564.555M564.555 148.613L562.29 147.351L561.906 147.137L561.52 146.922M640.76 146.922H601.14M640.76 146.922H680.38M598.774 145.165L598.472 144.941L598.167 144.715L597.862 144.488L596.311 143.336M598.774 145.165L599.969 146.053L600.264 146.272L600.557 146.49L601.14 146.922M598.774 145.165H558.365M601.14 146.922H561.52M680.38 146.922H720M680.38 146.922L681.139 148.613M561.52 146.922L558.365 145.165M681.139 148.613H720M596.311 143.336L594.073 141.674L593.747 141.432M596.311 143.336H555.082M558.365 145.165L557.556 144.715L555.082 143.336M555.082 143.336L553.816 142.632L551.662 141.432M635.832 141.432L634.949 140.45L634.727 140.201L634.049 139.447M635.832 141.432H593.747M635.832 141.432H677.915M593.747 141.432L591.074 139.447M593.747 141.432H551.662M551.662 141.432L548.099 139.447M634.049 139.447H591.074M634.049 139.447H677.025M588.285 137.376L591.074 139.447M588.285 137.376L585.373 135.213M588.285 137.376H544.38M591.074 139.447H548.099M677.025 139.447H720M677.025 139.447L677.251 139.951L677.696 140.944L677.915 141.432M548.099 139.447L544.38 137.376M677.915 141.432H720M585.373 135.213L583.103 133.527L582.329 132.953M585.373 135.213H540.497M544.38 137.376L540.497 135.213M540.497 135.213L538.491 134.096L536.439 132.953M628.219 132.953L626.097 130.588M628.219 132.953H582.329M628.219 132.953H674.11M582.329 132.953L579.145 130.588M582.329 132.953H536.439M536.439 132.953L532.193 130.588M626.097 130.588H579.145M626.097 130.588H673.048M575.809 128.111L576.658 128.741L579.145 130.588M575.809 128.111L572.312 125.514M575.809 128.111H527.746M579.145 130.588H532.193M673.048 130.588H720M673.048 130.588L674.11 132.953M532.193 130.588L527.746 128.111M674.11 132.953H720M572.312 125.514L568.641 122.787M572.312 125.514H523.083M527.746 128.111L523.083 125.514M523.083 125.514L518.188 122.787M619.094 122.787L616.522 119.922M619.094 122.787H568.641M619.094 122.787H669.547M568.641 122.787L564.783 119.922M568.641 122.787H518.188M518.188 122.787L513.044 119.922M616.522 119.922H564.783M616.522 119.922H668.261M560.723 116.907L564.783 119.922M560.723 116.907L556.445 113.73M560.723 116.907H507.631M564.783 119.922H513.044M668.261 119.922H720M668.261 119.922L669.39 122.437L669.547 122.787M513.044 119.922L507.631 116.907M669.547 122.787H720M556.445 113.73L551.931 110.378M556.445 113.73H501.927M507.631 116.907L503.382 114.54L501.927 113.73M501.927 113.73L495.907 110.378M607.954 110.378L604.774 106.835M607.954 110.378H551.931M607.954 110.378H663.977M551.931 110.378L547.16 106.835M551.931 110.378H495.907M495.907 110.378L489.547 106.835M604.774 106.835H547.16M604.774 106.835H662.387M542.111 103.085L547.16 106.835M542.111 103.085L536.758 99.1097M542.111 103.085H482.815M547.16 106.835H489.547M662.387 106.835H720M662.387 106.835L663.977 110.378M489.547 106.835L482.815 103.085M663.977 110.378H720M536.758 99.1097L531.073 94.8874M536.758 99.1097H475.677M482.815 103.085L475.677 99.1097M475.677 99.1097L468.097 94.8874M594.048 94.8874L590.015 90.3949M594.048 94.8874H531.073M594.048 94.8874H657.024M531.073 94.8874L525.023 90.3949M531.073 94.8874H468.097M468.097 94.8874L460.031 90.3949M590.015 90.3949H525.023M590.015 90.3949H655.008M518.574 85.6052L525.023 90.3949M518.574 85.6052L511.683 80.4878M518.574 85.6052H451.432M525.023 90.3949H460.031M655.008 90.3949H720M655.008 90.3949L657.024 94.8874M460.031 90.3949L451.432 85.6052M657.024 94.8874H720M511.683 80.4878L504.304 75.0079M511.683 80.4878H442.244M451.432 85.6052L442.244 80.4878M442.244 80.4878L432.405 75.0079M576.203 75.0079L570.922 69.1253M576.203 75.0079H504.304M576.203 75.0079H648.101M504.304 75.0079L496.383 69.1253M504.304 75.0079H432.405M432.405 75.0079L421.844 69.1253M570.922 69.1253H496.383M570.922 69.1253H645.461M487.858 62.7943L496.383 69.1253M487.858 62.7943L478.657 55.9614M487.858 62.7943H410.477M496.383 69.1253H421.844M645.461 69.1253H720M645.461 69.1253L648.101 75.0079M421.844 69.1253L410.477 62.7943M648.101 75.0079H720M478.657 55.9614L468.696 48.5646M478.657 55.9614H398.209M410.477 62.7943L398.209 55.9614M398.209 55.9614L384.929 48.5646M552.464 48.5646L545.253 40.5309M552.464 48.5646H468.696M552.464 48.5646H636.232M468.696 48.5646L457.879 40.5309M468.696 48.5646H384.929M384.929 48.5646L370.505 40.5309M545.253 40.5309H457.879M545.253 40.5309H632.626M446.088 31.7746L457.879 40.5309M446.088 31.7746L433.186 22.1934M446.088 31.7746H354.784M457.879 40.5309H370.505M632.626 40.5309H720M632.626 40.5309L636.232 48.5646M370.505 40.5309L354.784 31.7746M636.232 48.5646H720M433.186 22.1934L419.009 11.6649M433.186 22.1934H337.581M354.784 31.7746L337.581 22.1934M337.581 22.1934L318.679 11.6649M519.34 11.6649L508.905 0.0412925M519.34 11.6649H419.009M519.34 11.6649H619.67M419.009 11.6649L403.358 0.0412925M419.009 11.6649H318.679M318.679 11.6649L297.81 0.0412925M403.358 0.0412925H508.905M403.358 0.0412925H297.81M508.905 0.0412925H614.452M614.452 0.0412925H720M614.452 0.0412925L619.67 11.6649M619.67 11.6649H720M792.194 154.771L792.355 154.592L792.516 154.412L792.679 154.232L792.841 154.05L793.17 153.684L793.335 153.5L793.501 153.315M792.194 154.771H756.097M792.194 154.771H828.291M755.466 156.177L754.857 157.534M755.466 156.177L756.097 154.771M755.466 156.177H720M754.857 157.534L754.783 157.7L754.708 157.866L754.634 158.03L754.268 158.845M754.857 157.534H720M788.537 158.845L788.393 159.006L787.822 159.642L787.399 160.112M788.537 158.845H754.268M788.537 158.845H822.806M756.097 154.771L756.178 154.592L756.258 154.412L756.34 154.232L756.75 153.315M756.097 154.771H720M720 156.177V157.534M720 156.177V154.771M720 157.534V158.845M754.268 158.845H720M754.268 158.845L754.053 159.325L753.981 159.484L753.7 160.112M720 154.771V153.315M685.731 158.845L685.946 159.325L686.018 159.484L686.089 159.642L686.16 159.799L686.23 159.956L686.3 160.112M685.731 158.845H720M720 158.845V160.112M793.501 153.315H756.75M793.501 153.315H830.251M757.428 151.805L757.515 151.613L757.601 151.419L758.131 150.239M757.428 151.805L756.75 153.315M757.428 151.805H720M756.75 153.315H720M830.251 153.315H867.002M830.251 153.315L829.755 153.684L829.508 153.867L829.263 154.05L829.017 154.232L828.775 154.412L828.532 154.592L828.291 154.771M720 153.315V151.805M828.291 154.771H864.388M758.131 150.239L758.861 148.613M758.131 150.239H720M720 151.805V150.239M720 150.239V148.613M797.723 148.613L799.24 146.922M797.723 148.613H758.861M797.723 148.613H836.584M758.861 148.613L759.62 146.922M758.861 148.613H720M720 148.613V146.922M799.24 146.922H759.62M799.24 146.922H838.86M760.408 145.165L759.62 146.922M760.408 145.165L761.229 143.336M760.408 145.165H720M759.62 146.922H720M838.86 146.922H878.48M838.86 146.922L836.584 148.613M720 146.922V145.165M836.584 148.613H875.445M761.229 143.336L761.546 142.632L761.867 141.916L762.085 141.432M761.229 143.336H720M720 145.165V143.336M720 143.336V141.432M804.168 141.432L805.051 140.45L805.273 140.201L805.951 139.447M804.168 141.432H762.085M804.168 141.432H846.253M762.085 141.432L762.303 140.944L762.749 139.951L762.975 139.447M762.085 141.432H720M720 141.432V139.447M805.951 139.447H762.975M805.951 139.447H848.926M763.905 137.376L763.787 137.64L762.975 139.447M763.905 137.376L764.875 135.213M763.905 137.376H720M762.975 139.447H720M848.926 139.447H891.901M848.926 139.447L846.253 141.432M720 139.447V137.376M846.253 141.432H888.338M764.875 135.213L765.89 132.953M764.875 135.213H720M720 137.376V135.213M720 135.213V132.953M811.781 132.953L813.903 130.588M811.781 132.953H765.89M811.781 132.953H857.671M765.89 132.953L766.952 130.588M765.89 132.953H720M720 132.953V130.588M813.903 130.588H766.952M813.903 130.588H860.855M768.063 128.111L766.952 130.588M768.063 128.111L769.229 125.514M768.063 128.111H720M766.952 130.588H720M860.855 130.588H907.807M860.855 130.588L857.671 132.953M720 130.588V128.111M857.671 132.953H903.561M769.229 125.514L770.453 122.787M769.229 125.514H720M720 128.111V125.514M720 125.514V122.787M820.906 122.787L823.478 119.922M820.906 122.787H770.453M820.906 122.787H871.358M770.453 122.787L771.739 119.922M770.453 122.787H720M720 122.787V119.922M823.478 119.922H771.739M823.478 119.922H875.217M773.092 116.907L771.739 119.922M773.092 116.907L774.518 113.73M773.092 116.907H720M771.739 119.922H720M875.217 119.922H926.956M875.217 119.922L871.358 122.787M720 119.922V116.907M871.358 122.787H921.812M774.518 113.73L776.023 110.378M774.518 113.73H720M720 116.907V113.73M720 113.73V110.378M832.046 110.378L835.226 106.835M832.046 110.378H776.023M832.046 110.378H888.069M776.023 110.378L777.613 106.835M776.023 110.378H720M720 110.378V106.835M835.226 106.835H777.613M835.226 106.835H892.84M779.296 103.085L777.613 106.835M779.296 103.085L781.081 99.1097M779.296 103.085H720M777.613 106.835H720M892.84 106.835H950.453M892.84 106.835L888.069 110.378M720 106.835V103.085M888.069 110.378H944.093M781.081 99.1097L782.976 94.8874M781.081 99.1097H720M720 103.085V99.1097M720 99.1097V94.8874M845.952 94.8874L849.984 90.3949M845.952 94.8874H782.976M845.952 94.8874H908.927M782.976 94.8874L784.992 90.3949M782.976 94.8874H720M720 94.8874V90.3949M849.984 90.3949H784.992M849.984 90.3949H914.977M787.142 85.6052L784.992 90.3949M787.142 85.6052L789.439 80.4878M787.142 85.6052H720M784.992 90.3949H720M914.977 90.3949H979.969M914.977 90.3949L908.927 94.8874M720 90.3949V85.6052M908.927 94.8874H971.903M789.439 80.4878L791.899 75.0079M789.439 80.4878H720M720 85.6052V80.4878M720 80.4878V75.0079M863.797 75.0079L869.078 69.1253M863.797 75.0079H791.899M863.797 75.0079H935.696M791.899 75.0079L794.539 69.1253M791.899 75.0079H720M720 75.0079V69.1253M869.078 69.1253H794.539M869.078 69.1253H943.617M797.381 62.7943L794.539 69.1253M797.381 62.7943L800.447 55.9614M797.381 62.7943H720M794.539 69.1253H720M943.617 69.1253H1018.16M943.617 69.1253L935.696 75.0079M720 69.1253V62.7943M935.696 75.0079H1007.6M800.447 55.9614L803.768 48.5646M800.447 55.9614H720M720 62.7943V55.9614M720 55.9614V48.5646M887.535 48.5646L894.747 40.5309M887.535 48.5646H803.768M887.535 48.5646H971.304M803.768 48.5646L807.374 40.5309M803.768 48.5646H720M720 48.5646V40.5309M894.747 40.5309H807.374M894.747 40.5309H982.121M811.304 31.7746L807.374 40.5309M811.304 31.7746L815.604 22.1934M811.304 31.7746H720M807.374 40.5309H720M982.121 40.5309H1069.49M982.121 40.5309L971.304 48.5646M720 40.5309V31.7746M971.304 48.5646H1055.07M815.604 22.1934L820.33 11.6649M815.604 22.1934H720M720 31.7746V22.1934M720 22.1934V11.6649M920.66 11.6649L931.095 0.0412925M920.66 11.6649H820.33M920.66 11.6649H1020.99M820.33 11.6649L825.548 0.0412925M820.33 11.6649H720M720 11.6649V0.0412925M825.548 0.0412925H931.095M825.548 0.0412925H720M931.095 0.0412925H1036.64M1036.64 0.0412925H1142.19M1036.64 0.0412925L1020.99 11.6649M1020.99 11.6649H1121.32M936.582 154.771L938.525 154.05L940.503 153.315M936.582 154.771H900.485M936.582 154.771H972.678M897.331 156.177L894.286 157.534M897.331 156.177L900.485 154.771M897.331 156.177H861.865M894.286 157.534H859.429M894.286 157.534L892.07 158.521L891.343 158.845M925.612 158.845H891.343M925.612 158.845L924.318 159.325L922.198 160.112M925.612 158.845H959.881M900.485 154.771L903.752 153.315M900.485 154.771H864.388M861.865 156.177L859.429 157.534M861.865 156.177L864.388 154.771M859.429 157.534L858.241 158.195L857.364 158.683L857.075 158.845M891.343 158.845H857.075M891.343 158.845L889.201 159.799L888.499 160.112M864.388 154.771L866.34 153.684L867.002 153.315M822.806 158.845L822.59 159.006L822.159 159.325L821.521 159.799L821.099 160.112M822.806 158.845H857.075M857.075 158.845L856.786 159.006L856.212 159.325L854.799 160.112M940.503 153.315H903.752M940.503 153.315H977.254M907.141 151.805L906.71 151.997L906.282 152.188L904.588 152.943L903.752 153.315M907.141 151.805L909.765 150.636L910.657 150.239M907.141 151.805H869.712M903.752 153.315H867.002M977.254 153.315H1014M977.254 153.315L973.807 154.412L972.678 154.771M867.002 153.315L869.712 151.805M972.678 154.771H1008.78M910.657 150.239L911.105 150.039L911.556 149.838L912.921 149.23L913.382 149.025L914.307 148.613M910.657 150.239H872.526M869.712 151.805L870.059 151.613L872.526 150.239M872.526 150.239L872.884 150.039L873.245 149.838L873.607 149.636L875.445 148.613M953.168 148.613L957.719 146.922M953.168 148.613H914.307M953.168 148.613H992.029M914.307 148.613L918.1 146.922M914.307 148.613H875.445M875.445 148.613L878.48 146.922M957.719 146.922H918.1M957.719 146.922H997.339M922.043 145.165L918.1 146.922M922.043 145.165L926.147 143.336M922.043 145.165H881.635M918.1 146.922H878.48M997.339 146.922H1036.96M997.339 146.922L992.029 148.613M878.48 146.922L881.635 145.165M992.029 148.613H1030.89M926.147 143.336L930.421 141.432M926.147 143.336H884.918M881.635 145.165L882.443 144.715L884.918 143.336M884.918 143.336L886.184 142.632L887.47 141.916L888.338 141.432M972.506 141.432L975.151 140.45L977.852 139.447M972.506 141.432H930.421M972.506 141.432H1014.59M930.421 141.432L934.877 139.447M930.421 141.432H888.338M888.338 141.432L891.901 139.447M977.852 139.447H934.877M977.852 139.447H1020.83M939.524 137.376L934.877 139.447M939.524 137.376L944.378 135.213M939.524 137.376H895.62M934.877 139.447H891.901M1020.83 139.447H1063.8M1020.83 139.447L1014.59 141.432M891.901 139.447L895.62 137.376M1014.59 141.432H1056.67M944.378 135.213L945.625 134.658L949.451 132.953M944.378 135.213H899.503M895.62 137.376L899.503 135.213M899.503 135.213L900 134.936L901.509 134.096L903.561 132.953M995.341 132.953L1001.71 130.588M995.341 132.953H949.451M995.341 132.953H1041.23M949.451 132.953L954.759 130.588M949.451 132.953H903.561M903.561 132.953L907.807 130.588M1001.71 130.588H954.759M1001.71 130.588H1048.66M960.318 128.111L956.812 129.672L954.759 130.588M960.318 128.111L966.146 125.514M960.318 128.111H912.254M954.759 130.588H907.807M1048.66 130.588H1095.61M1048.66 130.588L1041.23 132.953M907.807 130.588L912.254 128.111M1041.23 132.953H1087.12M966.146 125.514L972.265 122.787M966.146 125.514H916.917M912.254 128.111L916.917 125.514M916.917 125.514L921.812 122.787M1022.72 122.787L1030.43 119.922M1022.72 122.787H972.265M1022.72 122.787H1073.17M972.265 122.787L978.695 119.922M972.265 122.787H921.812M921.812 122.787L926.956 119.922M1030.43 119.922H978.695M1030.43 119.922H1082.17M985.461 116.907L978.695 119.922M985.461 116.907L992.591 113.73M985.461 116.907H932.369M978.695 119.922H926.956M1082.17 119.922H1133.91M1082.17 119.922L1073.17 122.787M926.956 119.922L932.369 116.907M1073.17 122.787H1123.62M992.591 113.73L1000.12 110.378M992.591 113.73H938.073M932.369 116.907L938.073 113.73M938.073 113.73L944.093 110.378M1056.14 110.378L1065.68 106.835M1056.14 110.378H1000.12M1056.14 110.378H1112.16M1000.12 110.378L1008.07 106.835M1000.12 110.378H944.093M944.093 110.378L950.453 106.835M1065.68 106.835H1008.07M1065.68 106.835H1123.29M1016.48 103.085L1008.07 106.835M1016.48 103.085L1025.4 99.1097M1016.48 103.085H957.185M1008.07 106.835H950.453M1123.29 106.835H1180.91M1123.29 106.835L1112.16 110.378M950.453 106.835L957.185 103.085M1112.16 110.378H1168.18M1025.4 99.1097L1034.88 94.8874M1025.4 99.1097H964.323M957.185 103.085L964.323 99.1097M964.323 99.1097L971.903 94.8874M1097.85 94.8874L1109.95 90.3949M1097.85 94.8874H1034.88M1097.85 94.8874H1160.83M1034.88 94.8874L1044.96 90.3949M1034.88 94.8874H971.903M971.903 94.8874L979.969 90.3949M1109.95 90.3949H1044.96M1109.95 90.3949H1174.95M1055.71 85.6052L1044.96 90.3949M1055.71 85.6052L1067.2 80.4878M1055.71 85.6052H988.568M1044.96 90.3949H979.969M1174.95 90.3949H1239.94M1174.95 90.3949L1160.83 94.8874M979.969 90.3949L988.568 85.6052M1160.83 94.8874H1223.81M1067.2 80.4878L1079.49 75.0079M1067.2 80.4878H997.756M988.568 85.6052L997.756 80.4878M997.756 80.4878L1007.6 75.0079M1151.39 75.0079L1167.23 69.1253M1151.39 75.0079H1079.49M1151.39 75.0079H1223.29M1079.49 75.0079L1092.7 69.1253M1079.49 75.0079H1007.6M1007.6 75.0079L1018.16 69.1253M1167.23 69.1253H1092.7M1167.23 69.1253H1241.77M1106.9 62.7943L1092.7 69.1253M1106.9 62.7943L1122.24 55.9614M1106.9 62.7943H1029.52M1092.7 69.1253H1018.16M1241.77 69.1253H1316.31M1241.77 69.1253L1223.29 75.0079M1018.16 69.1253L1029.52 62.7943M1223.29 75.0079H1295.19M1122.24 55.9614L1138.84 48.5646M1122.24 55.9614H1041.79M1029.52 62.7943L1041.79 55.9614M1041.79 55.9614L1055.07 48.5646M1222.61 48.5646L1244.24 40.5309M1222.61 48.5646H1138.84M1222.61 48.5646H1306.37M1138.84 48.5646L1156.87 40.5309M1138.84 48.5646H1055.07M1055.07 48.5646L1069.49 40.5309M1244.24 40.5309H1156.87M1244.24 40.5309H1331.62M1176.52 31.7746L1156.87 40.5309M1176.52 31.7746L1198.02 22.1934M1176.52 31.7746H1085.22M1156.87 40.5309H1069.49M1331.62 40.5309H1418.99M1331.62 40.5309L1306.37 48.5646M1069.49 40.5309L1085.22 31.7746M1306.37 48.5646H1390.14M1198.02 22.1934L1221.65 11.6649M1198.02 22.1934H1102.42M1085.22 31.7746L1102.42 22.1934M1102.42 22.1934L1121.32 11.6649M1321.98 11.6649L1353.28 0.0412925M1321.98 11.6649H1221.65M1321.98 11.6649H1422.31M1221.65 11.6649L1247.74 0.0412925M1221.65 11.6649H1121.32M1121.32 11.6649L1142.19 0.0412925M1247.74 0.0412925H1353.28M1247.74 0.0412925H1142.19M1353.28 0.0412925L1439.61 0.041506M1422.31 11.6649L1439.61 6.15834M1422.31 11.6649H1439.61M1080.97 154.771L1087.51 153.315M1080.97 154.771H1044.87M1080.97 154.771H1117.07M1039.2 156.177L1033.71 157.534M1039.2 156.177L1044.87 154.771M1039.2 156.177H1003.73M1033.71 157.534H998.857M1033.71 157.534L1028.42 158.845M1062.69 158.845H1028.42M1062.69 158.845L1060.53 159.325L1057 160.112M1062.69 158.845H1096.96M1044.87 154.771L1050.75 153.315M1044.87 154.771H1008.78M1003.73 156.177L998.857 157.534M1003.73 156.177L1008.78 154.771M998.857 157.534L995.311 158.521L994.149 158.845M1028.42 158.845L1027.77 159.006L1023.3 160.112M1028.42 158.845H994.149M1008.78 154.771L1014 153.315M959.881 158.845L955.898 160.112M959.881 158.845H994.149M994.149 158.845L992.424 159.325L989.597 160.112M1087.51 153.315H1050.75M1087.51 153.315H1124.26M1056.85 151.805L1050.75 153.315M1056.85 151.805L1063.18 150.239M1056.85 151.805H1019.43M1050.75 153.315H1014M1124.26 153.315H1161.01M1124.26 153.315L1117.07 154.771M1014 153.315L1019.43 151.805M1117.07 154.771H1153.16M1063.18 150.239L1064.8 149.838L1069.75 148.613M1063.18 150.239H1025.05M1019.43 151.805L1025.05 150.239M1025.05 150.239L1030.89 148.613M1108.61 148.613L1109.55 148.405L1116.2 146.922M1108.61 148.613H1069.75M1108.61 148.613H1147.48M1069.75 148.613L1076.58 146.922M1069.75 148.613H1030.89M1030.89 148.613L1031.64 148.405L1036.96 146.922M1116.2 146.922H1076.58M1116.2 146.922H1155.82M1083.68 145.165L1076.58 146.922M1083.68 145.165L1091.07 143.336M1083.68 145.165H1043.27M1076.58 146.922H1036.96M1155.82 146.922H1195.44M1155.82 146.922L1147.48 148.613M1036.96 146.922L1043.27 145.165M1147.48 148.613H1186.34M1091.07 143.336L1098.76 141.432M1091.07 143.336H1049.84M1043.27 145.165L1049.84 143.336M1049.84 143.336L1056.67 141.432M1140.84 141.432L1149.75 139.447M1140.84 141.432H1098.76M1140.84 141.432H1182.93M1098.76 141.432L1106.78 139.447M1098.76 141.432H1056.67M1056.67 141.432L1063.8 139.447M1149.75 139.447H1106.78M1149.75 139.447H1192.73M1115.14 137.376L1106.78 139.447M1115.14 137.376L1123.88 135.213M1115.14 137.376H1071.24M1106.78 139.447H1063.8M1192.73 139.447H1235.7M1192.73 139.447L1182.93 141.432M1063.8 139.447L1071.24 137.376M1182.93 141.432H1225.01M1123.88 135.213L1133.01 132.953M1123.88 135.213H1079M1071.24 137.376L1079 135.213M1079 135.213L1087.12 132.953M1178.9 132.953L1189.52 130.588M1178.9 132.953H1133.01M1178.9 132.953H1224.79M1133.01 132.953L1142.57 130.588M1133.01 132.953H1087.12M1087.12 132.953L1095.61 130.588M1189.52 130.588H1142.57M1189.52 130.588H1236.47M1152.57 128.111L1142.57 130.588M1152.57 128.111L1163.06 125.514M1152.57 128.111H1104.51M1142.57 130.588H1095.61M1236.47 130.588H1283.42M1236.47 130.588L1224.79 132.953M1095.61 130.588L1104.51 128.111M1224.79 132.953H1270.68M1163.06 125.514L1174.08 122.787M1163.06 125.514H1113.83M1104.51 128.111L1113.83 125.514M1113.83 125.514L1123.62 122.787M1224.53 122.787L1237.39 119.922M1224.53 122.787H1174.08M1224.53 122.787H1274.98M1174.08 122.787L1185.65 119.922M1174.08 122.787H1123.62M1123.62 122.787L1133.91 119.922M1237.39 119.922H1185.65M1237.39 119.922H1289.13M1197.83 116.907L1185.65 119.922M1197.83 116.907L1210.66 113.73M1197.83 116.907H1144.74M1185.65 119.922H1133.91M1289.13 119.922H1340.87M1289.13 119.922L1274.98 122.787M1133.91 119.922L1144.74 116.907M1274.98 122.787H1325.43M1210.66 113.73L1224.21 110.378M1210.66 113.73H1156.15M1144.74 116.907L1156.15 113.73M1156.15 113.73L1168.18 110.378M1280.23 110.378L1296.13 106.835M1280.23 110.378H1224.21M1280.23 110.378H1336.25M1224.21 110.378L1238.52 106.835M1224.21 110.378H1168.18M1168.18 110.378L1180.91 106.835M1296.13 106.835H1238.52M1296.13 106.835H1353.75M1253.67 103.085L1238.52 106.835M1253.67 103.085L1269.73 99.1097M1253.67 103.085H1194.37M1238.52 106.835H1180.91M1353.75 106.835H1411.36M1353.75 106.835L1336.25 110.378M1180.91 106.835L1194.37 103.085M1336.25 110.378H1392.28M1269.73 99.1097L1286.78 94.8874M1269.73 99.1097H1208.65M1194.37 103.085L1208.65 99.1097M1208.65 99.1097L1223.81 94.8874M1349.76 94.8874L1369.92 90.3949M1349.76 94.8874H1286.78M1349.76 94.8874H1412.73M1286.78 94.8874L1304.93 90.3949M1286.78 94.8874H1223.81M1223.81 94.8874L1239.94 90.3949M1369.92 90.3949H1304.93M1369.92 90.3949H1434.91M1324.28 85.6052L1304.93 90.3949M1324.28 85.6052L1344.95 80.4878M1324.28 85.6052H1257.14M1304.93 90.3949H1239.94M1434.91 90.3949L1412.73 94.8874M1434.91 90.3949H1439.61M1434.91 90.3949L1439.61 89.4435M1239.94 90.3949L1257.14 85.6052M1412.73 94.8874H1439.61M1344.95 80.4878L1367.09 75.0079M1344.95 80.4878H1275.51M1257.14 85.6052L1275.51 80.4878M1275.51 80.4878L1295.19 75.0079M1438.99 75.0079H1367.09M1438.99 75.0079H1439.61M1438.99 75.0079L1439.61 74.8688M1367.09 75.0079L1390.85 69.1253M1367.09 75.0079H1295.19M1295.19 75.0079L1316.31 69.1253M1416.43 62.7943L1390.85 69.1253M1416.43 62.7943H1339.05M1416.43 62.7943H1439.61M1416.43 62.7943L1439.61 57.0549M1390.85 69.1253H1316.31M1390.85 69.1253H1439.61M1316.31 69.1253L1339.05 62.7943M1339.05 62.7943L1363.58 55.9614M1363.58 55.9614L1390.14 48.5646M1363.58 55.9614H1439.61M1390.14 48.5646L1418.99 40.5309M1390.14 48.5646H1439.61M1418.99 40.5309H1439.61M1418.99 40.5309L1439.61 34.7876M1225.36 154.771L1234.51 153.315M1225.36 154.771H1189.26M1225.36 154.771H1261.45M1181.06 156.177L1173.14 157.534M1181.06 156.177L1189.26 154.771M1181.06 156.177H1145.59M1173.14 157.534H1138.29M1173.14 157.534L1165.49 158.845M1199.76 158.845H1165.49M1199.76 158.845L1191.8 160.112M1199.76 158.845H1234.03M1189.26 154.771L1197.76 153.315M1189.26 154.771H1153.16M1145.59 156.177L1138.29 157.534M1145.59 156.177L1153.16 154.771M1138.29 157.534L1131.22 158.845M1165.49 158.845L1164.55 159.006L1158.1 160.112M1165.49 158.845H1131.22M1153.16 154.771L1161.01 153.315M1096.96 158.845L1090.7 160.112M1096.96 158.845H1131.22M1131.22 158.845L1130.36 159.006L1124.4 160.112M1234.51 153.315H1197.76M1234.51 153.315H1271.26M1206.57 151.805L1197.76 153.315M1206.57 151.805L1215.71 150.239M1206.57 151.805H1169.14M1197.76 153.315H1161.01M1271.26 153.315H1308.01M1271.26 153.315L1261.45 154.771M1161.01 153.315L1169.14 151.805M1261.45 154.771H1297.55M1215.71 150.239L1225.2 148.613M1215.71 150.239H1177.58M1169.14 151.805L1170.18 151.613L1177.58 150.239M1177.58 150.239L1186.34 148.613M1264.06 148.613L1274.68 146.922M1264.06 148.613H1225.2M1264.06 148.613H1302.92M1225.2 148.613L1235.06 146.922M1225.2 148.613H1186.34M1186.34 148.613L1195.44 146.922M1274.68 146.922H1235.06M1274.68 146.922H1314.3M1245.31 145.165L1235.06 146.922M1245.31 145.165L1255.98 143.336M1245.31 145.165H1204.9M1235.06 146.922H1195.44M1314.3 146.922H1353.92M1314.3 146.922L1302.92 148.613M1195.44 146.922L1204.9 145.165M1302.92 148.613H1341.78M1255.98 143.336L1267.1 141.432M1255.98 143.336H1214.75M1204.9 145.165L1214.75 143.336M1214.75 143.336L1225.01 141.432M1309.18 141.432L1321.66 139.447M1309.18 141.432H1267.1M1309.18 141.432H1351.27M1267.1 141.432L1278.68 139.447M1267.1 141.432H1225.01M1225.01 141.432L1235.7 139.447M1321.66 139.447H1278.68M1321.66 139.447H1364.63M1290.76 137.376L1278.68 139.447M1290.76 137.376L1303.38 135.213M1290.76 137.376H1246.86M1278.68 139.447H1235.7M1364.63 139.447H1407.61M1364.63 139.447L1351.27 141.432M1235.7 139.447L1246.86 137.376M1351.27 141.432H1393.35M1303.38 135.213L1316.57 132.953M1303.38 135.213H1258.51M1246.86 137.376L1258.51 135.213M1258.51 135.213L1270.68 132.953M1362.46 132.953L1377.32 130.588M1362.46 132.953H1316.57M1362.46 132.953H1408.35M1316.57 132.953L1330.37 130.588M1316.57 132.953H1270.68M1270.68 132.953L1283.42 130.588M1377.32 130.588H1330.37M1344.83 128.111L1330.37 130.588M1344.83 128.111L1359.98 125.514M1344.83 128.111H1296.76M1330.37 130.588H1283.42M1283.42 130.588L1296.76 128.111M1408.35 132.953H1439.61M1359.98 125.514L1375.89 122.787M1359.98 125.514H1310.75M1296.76 128.111L1310.75 125.514M1310.75 125.514L1325.43 122.787M1426.34 122.787H1375.89M1426.34 122.787H1439.61M1426.34 122.787L1439.61 120.676M1375.89 122.787L1392.61 119.922M1375.89 122.787H1325.43M1325.43 122.787L1340.87 119.922M1410.2 116.907L1392.61 119.922M1410.2 116.907L1428.74 113.73M1410.2 116.907H1357.11M1410.2 116.907H1439.61M1392.61 119.922H1340.87M1392.61 119.922H1439.61M1340.87 119.922L1357.11 116.907M1439.76 120.652L1439.61 120.676M1428.74 113.73H1374.22M1428.74 113.73H1439.61M1428.74 113.73L1439.61 111.867M1357.11 116.907L1374.22 113.73M1374.22 113.73L1392.28 110.378M1392.28 110.378L1411.36 106.835M1392.28 110.378H1439.61M1431.56 103.085L1411.36 106.835M1431.56 103.085H1439.61M1431.56 103.085L1439.61 101.589M1411.36 106.835H1439.61M1369.74 154.771L1381.51 153.315M1369.74 154.771H1333.65M1369.74 154.771H1405.84M1322.93 156.177L1312.57 157.534M1322.93 156.177L1333.65 154.771M1322.93 156.177H1287.46M1312.57 157.534H1277.71M1312.57 157.534L1302.57 158.845M1336.84 158.845H1302.57M1336.84 158.845L1326.6 160.112M1336.84 158.845H1371.1M1333.65 154.771L1344.76 153.315M1333.65 154.771H1297.55M1287.46 156.177L1277.71 157.534M1287.46 156.177L1297.55 154.771M1277.71 157.534L1268.3 158.845M1302.57 158.845H1268.3M1302.57 158.845L1292.89 160.112M1297.55 154.771L1308.01 153.315M1234.03 158.845L1225.5 160.112M1234.03 158.845H1268.3M1268.3 158.845L1259.2 160.112M1381.51 153.315H1344.76M1381.51 153.315H1418.26M1356.28 151.805L1344.76 153.315M1356.28 151.805L1368.23 150.239M1356.28 151.805H1318.85M1344.76 153.315H1308.01M1418.26 153.315L1405.84 154.771M1418.26 153.315H1439.61M1308.01 153.315L1318.85 151.805M1405.84 154.771H1439.61M1368.23 150.239L1380.64 148.613M1368.23 150.239H1330.1M1318.85 151.805L1330.1 150.239M1330.1 150.239L1341.78 148.613M1419.5 148.613L1433.16 146.922M1419.5 148.613H1380.64M1419.5 148.613H1439.61M1380.64 148.613L1393.54 146.922M1380.64 148.613H1341.78M1341.78 148.613L1353.92 146.922M1406.95 145.165L1393.54 146.922M1406.95 145.165L1420.9 143.336M1406.95 145.165H1366.54M1406.95 145.165H1439.61M1393.54 146.922H1433.16M1393.54 146.922H1353.92M1433.16 146.922L1439.61 146.124M1433.16 146.922H1439.61M1353.92 146.922L1366.54 145.165M1420.9 143.336L1435.43 141.432M1420.9 143.336H1379.67M1420.9 143.336H1439.61M1366.54 145.165L1379.67 143.336M1379.67 143.336L1393.35 141.432M1435.43 141.432H1393.35M1435.43 141.432L1439.61 140.884M1435.43 141.432H1439.61M1393.35 141.432L1407.61 139.447M1422.48 137.376L1407.61 139.447M1422.48 137.376L1438.01 135.213M1422.48 137.376H1439.61M1407.61 139.447H1439.61M1439.84 139.447H1439.61M1438.01 135.213H1439.61M1438.01 135.213L1439.61 134.99M1440 134.936L1439.61 134.99M1429.32 156.177L1417.14 157.534M1429.32 156.177H1439.61M1429.32 156.177L1439.61 155.031M1417.14 157.534L1405.37 158.845M1417.14 157.534H1439.61M1371.1 158.845L1360.29 160.112M1371.1 158.845H1405.37M1405.37 158.845L1393.99 160.112M1405.37 158.845H1439.61M248.204 160.112H214.504M248.204 160.112H281.904M222.76 161.338L220.722 161.036L214.504 160.112M222.76 161.338H189.61M214.504 160.112H180.805M189.61 161.338L187.436 161.036L186.342 160.883L180.805 160.112M180.805 160.112H147.105M147.105 160.112H113.405M281.904 160.112H315.603M113.405 160.112H79.7052M79.7052 160.112L90.1629 161.338M79.7052 160.112H46.0057M90.1629 161.338H57.0135M383.003 160.112H349.303M383.003 160.112H416.703M355.357 161.338L353.863 161.036L353.11 160.883L349.303 160.112M355.357 161.338H322.208M349.303 160.112H315.603M322.208 161.338L315.603 160.112M416.703 160.112H450.402M517.802 160.112H484.102M517.802 160.112H551.501M487.955 161.338L487.48 161.187L487.004 161.036L486.525 160.883L484.102 160.112M487.955 161.338H454.806M484.102 160.112H450.402M454.806 161.338L450.402 160.112M551.501 160.112H585.202M652.601 160.112H618.901M652.601 160.112H686.3M620.552 161.338L618.901 160.112M620.552 161.338H587.402M618.901 160.112H585.202M587.402 161.338L587.131 161.187L586.859 161.036L586.585 160.883L585.202 160.112M686.3 160.112H720M787.399 160.112H753.7M787.399 160.112H821.099M753.149 161.338L753.7 160.112M753.149 161.338H720M753.7 160.112H720M720 161.338V160.112M821.099 160.112H854.799M922.198 160.112H888.499M922.198 160.112H955.898M885.747 161.338L886.426 161.036L887.802 160.423L888.499 160.112M885.747 161.338H852.598M888.499 160.112H854.799M852.598 161.338L852.869 161.187L853.141 161.036L853.415 160.883L854.799 160.112M955.898 160.112H989.597M1057 160.112H1023.3M1057 160.112H1090.7M1018.34 161.338L1019.57 161.036L1020.18 160.883L1023.3 160.112M1018.34 161.338H985.194M1023.3 160.112H989.597M985.194 161.338L985.737 161.187L989.597 160.112M1090.7 160.112H1124.4M1191.8 160.112H1158.1M1191.8 160.112H1225.5M1150.94 161.338L1152.71 161.036L1153.6 160.883L1158.1 160.112M1150.94 161.338H1117.79M1158.1 160.112H1124.4M1117.79 161.338L1118.61 161.187L1124.4 160.112M1225.5 160.112H1259.2M1326.6 160.112H1292.89M1326.6 160.112H1360.29M1283.54 161.338L1292.89 160.112M1283.54 161.338H1250.39M1292.89 160.112H1259.2M1250.39 161.338L1252.56 161.036L1253.66 160.883L1259.2 160.112M1360.29 160.112H1393.99M1416.14 161.338L1427.69 160.112M1416.14 161.338H1382.99M1416.14 161.338H1439.61M1427.69 160.112H1393.99M1427.69 160.112L1439.61 158.848M1427.69 160.112H1439.61M1382.99 161.338L1385.7 161.036L1393.99 160.112M57.0135 161.338L54.2955 161.036L46.0057 160.112M46.0057 160.112H12.3061M12.3061 160.112L0.387477 158.848M12.3061 160.112H0.387477M0.387477 101.589V103.085M0.387477 101.589V99.1097M0.387477 103.085V106.835M0.387477 99.1097V98.3687V94.8874M0.387477 94.8874V90.3949M0.387477 130.588V132.953M0.387477 130.588V128.31M0.387477 161.338V160.112M0.387477 160.112V158.848M0.387477 158.848L0.358287 158.845H0.387477M0.387477 158.848V158.845M0.387477 158.845V157.534M0.387477 157.534V156.177M0.387477 156.177V155.031M0.387477 155.031V154.771M0.387477 154.771V153.315M0.387477 153.315V151.805M0.387477 151.805V150.812M0.387477 150.812V150.239M0.387477 150.239V148.613M0.387477 148.613V146.922M0.387477 146.922V146.124M0.387477 146.124V145.165M0.387477 145.165V143.336M0.387477 143.336V141.432M0.387477 141.432V140.884M0.387477 140.884V139.447M0.387477 139.447V137.376M0.387477 137.376V135.213M0.387477 135.213V134.99M0.387477 134.99V132.953M0.387477 128.111V125.514M0.387477 128.111V128.31M0.387477 125.514V122.787M0.387477 122.787V120.676M0.387477 120.676V119.922M0.387477 119.922V116.907M0.387477 116.907V113.73M0.387477 113.73V111.867M0.387477 111.867V110.378M0.387477 110.378V106.835M0.387477 90.3949V89.4435M0.387477 89.4435V85.6052M0.387477 85.6052V80.4878M0.387477 80.4878V75.0079M0.387477 75.0079V74.8688M0.387477 74.8688V69.1253M0.387477 69.1253V62.7943M0.387477 62.7943V57.0549M0.387477 57.0549V55.9614M0.387477 55.9614V48.5646M0.387477 48.5646V40.5309M0.387477 40.5309V34.7876M0.387477 34.7876V31.7746M0.387477 31.7746V22.1934M0.387477 22.1934V11.6649M0.387477 11.6649V6.15834M0.387477 6.15834V0.041506M0.387477 0.041506V1.73699e-06H1439.61V0.041506M1439.61 128.111V125.514M1439.61 128.111V128.31M1439.61 128.31V130.588M1439.61 130.588V132.953M1439.61 132.953V134.99M1439.61 134.99V135.213M1439.61 135.213V137.376M1439.61 137.376V139.447M1439.61 139.447V140.884M1439.61 140.884V141.432M1439.61 141.432V143.336M1439.61 143.336V145.165M1439.61 145.165V146.124M1439.61 146.124V146.922M1439.61 146.922V148.613M1439.61 148.613V150.239M1439.61 150.239V150.812M1439.61 150.812V151.805M1439.61 151.805V153.315M1439.61 153.315V154.771M1439.61 154.771V155.031M1439.61 155.031V156.177M1439.61 156.177V157.534M1439.61 157.534V158.845M1439.61 158.845H1439.64L1439.61 158.848M1439.61 158.845V158.848M1439.61 158.848V160.112M1439.61 160.112V161.338M1439.61 0.041506V6.15834M1439.61 6.15834V11.6649M1439.61 11.6649V22.1932M1439.61 22.1932V31.7746M1439.61 31.7746V34.7876M1439.61 34.7876V40.5309M1439.61 40.5309V48.5646M1439.61 48.5646V55.9614M1439.61 55.9614V57.0549M1439.61 57.0549V62.7943M1439.61 62.7943V69.1253M1439.61 69.1253V74.8688M1439.61 74.8688V75.0079M1439.61 75.0079V80.4878M1439.61 80.4878V85.6052M1439.61 85.6052V89.4435M1439.61 89.4435V90.3949M1439.61 90.3949V94.8874M1439.61 94.8874V99.1097M1439.61 99.1097V101.589M1439.61 101.589V103.085M1439.61 103.085V106.835M1439.61 106.835V110.378M1439.61 110.378V111.867M1439.61 111.867V113.73M1439.61 113.73V116.907M1439.61 116.907V119.922M1439.61 119.922V120.676M1439.61 120.676V122.787M1439.61 122.787V125.514" stroke="url(#paint0_radial_354_2185)" stroke-opacity="0.6" stroke-width="1.8895" stroke-miterlimit="10" stroke-linecap="round" stroke-linejoin="round"/>
<defs>
<radialGradient id="paint0_radial_354_2185" cx="0" cy="0" r="1" gradientUnits="userSpaceOnUse" gradientTransform="translate(720 5.99017) rotate(90) scale(254.412 2254.13)">
<stop stop-color="#525252"/>
<stop offset="0.489074" stop-color="#CED2DF" stop-opacity="0"/>
</radialGradient>
</defs>
</svg>
