<svg width="1440" height="295" viewBox="0 0 1440 295" fill="none" xmlns="http://www.w3.org/2000/svg">
<path d="M1416.14 3.09318L1404.95 0.944763M1416.14 3.09318H1382.99M1416.14 3.09318L1427.69 5.31255M1416.14 3.09318H1439.61M1404.95 0.944763L1409.02 0.945601L1413.05 0.950253L1416.99 0.963332L1420.81 0.989092L1424.47 1.03089L1427.92 1.09382L1431.12 1.18122L1434.1 1.29269L1436.65 1.44682L1438.97 1.62544L1439.61 1.688V3.09318M1404.95 0.944763H1372.33M1372.33 0.944763H1339.72M1372.33 0.944763L1382.99 3.09318M1339.72 0.944763H1307.1M1339.72 0.944763L1349.84 3.09318M1307.1 0.944763H1274.48M1307.1 0.944763L1316.69 3.09318M1274.48 0.944763H1241.87M1274.48 0.944763L1283.54 3.09318M1241.87 0.944763H1209.25M1241.87 0.944763L1250.39 3.09318M1209.25 0.944763H1176.63M1209.25 0.944763L1217.24 3.09318M1176.63 0.944763H1144.02M1176.63 0.944763L1184.09 3.09318M1144.02 0.944763H1111.4M1144.02 0.944763L1150.94 3.09318M1111.4 0.944763H1078.78M1111.4 0.944763L1117.79 3.09318M1078.78 0.944763H1046.17M1078.78 0.944763L1084.64 3.09318M1046.17 0.944763H1013.55M1046.17 0.944763L1051.49 3.09318M1013.55 0.944763H980.933M1013.55 0.944763L1014.73 1.47553L1016.53 2.27909L1018.34 3.09318M980.933 0.944763H948.317M980.933 0.944763L981.985 1.47553L985.194 3.09318M948.317 0.944763H915.7M948.317 0.944763L952.045 3.09318M915.7 0.944763H883.083M915.7 0.944763L916.886 1.74239L918.088 2.54932L918.491 2.82083L918.896 3.09318M883.083 0.944763H850.467M883.083 0.944763L884.072 1.74239L884.404 2.0101L884.738 2.27909L885.747 3.09318M850.467 0.944763H817.85M850.467 0.944763L852.598 3.09318M817.85 0.944763L818.047 1.20951L818.244 1.47553L819.245 2.82083L819.448 3.09318M817.85 0.944763H785.234M785.234 0.944763H752.616M785.234 0.944763L786.299 3.09318M752.616 0.944763H720M752.616 0.944763L752.814 1.74239L753.149 3.09318M720 0.944763H687.384M720 0.944763V3.09318M687.384 0.944763H654.766M687.384 0.944763L687.186 1.74239L686.851 3.09318M654.766 0.944763H622.15M654.766 0.944763L653.701 3.09318M622.15 0.944763L621.953 1.20951L621.756 1.47553L620.755 2.82083L620.552 3.09318M622.15 0.944763H589.534M589.534 0.944763H556.916M589.534 0.944763L587.673 2.82083L587.402 3.09318M556.916 0.944763H524.3M556.916 0.944763L555.928 1.74239L555.596 2.0101L554.927 2.54932L554.591 2.82083L554.253 3.09318M524.3 0.944763H491.683M524.3 0.944763L523.114 1.74239L521.913 2.54932L521.509 2.82083L521.104 3.09318M491.683 0.944763H459.067M491.683 0.944763L487.955 3.09318M459.067 0.944763H426.45M459.067 0.944763L458.015 1.47553L454.806 3.09318M426.45 0.944763H393.833M426.45 0.944763L421.656 3.09318M393.833 0.944763H361.217M393.833 0.944763L388.507 3.09318M361.217 0.944763H328.6M361.217 0.944763L355.357 3.09318M328.6 0.944763H295.983M328.6 0.944763L322.208 3.09318M295.983 0.944763H263.367M295.983 0.944763L289.059 3.09318M263.367 0.944763H230.751M263.367 0.944763L255.909 3.09318M230.751 0.944763H198.133M230.751 0.944763L222.76 3.09318M198.133 0.944763H165.517M198.133 0.944763L189.61 3.09318M165.517 0.944763H132.9M165.517 0.944763L156.461 3.09318M132.9 0.944763H100.283M132.9 0.944763L123.312 3.09318M100.283 0.944763H67.6668M100.283 0.944763L90.163 3.09318M67.6668 0.944763H35.0504M67.6668 0.944763L57.0136 3.09318M35.0504 0.944763L30.9801 0.945601L26.9517 0.950253L23.0074 0.963332L19.1867 0.989092L15.5316 1.03089L12.0812 1.09382L8.87672 1.18122L5.90232 1.29269L3.34995 1.44682L1.0262 1.62544L0.387546 1.68801V3.09318M35.0504 0.944763L23.8641 3.09318M90.163 3.09318H123.312M90.163 3.09318H57.0136M90.163 3.09318L79.7053 5.31255M123.312 3.09318L113.405 5.31255M123.312 3.09318H156.461M222.76 3.09318H255.909M222.76 3.09318H189.61M222.76 3.09318L220.722 3.64127L214.504 5.31255M255.909 3.09318L248.204 5.31255M255.909 3.09318H289.059M355.357 3.09318H388.507M355.357 3.09318H322.208M355.357 3.09318L353.863 3.64127L353.11 3.91658L349.303 5.31255M388.507 3.09318L387.828 3.36638L387.148 3.64127L383.003 5.31255M388.507 3.09318H421.656M487.955 3.09318L487.48 3.36638L484.102 5.31255M487.955 3.09318H521.104M487.955 3.09318H454.806M521.104 3.09318L520.289 3.64127L519.878 3.91658L519.467 4.19358L517.802 5.31255M521.104 3.09318H554.253M620.552 3.09318H653.701M620.552 3.09318H587.402M620.552 3.09318L618.901 5.31255M653.701 3.09318L653.566 3.36638L653.43 3.64127L653.293 3.91658L652.879 4.75054L652.601 5.31255M653.701 3.09318H686.851M753.149 3.09318H786.299M753.149 3.09318H720M753.149 3.09318L753.7 5.31255M786.299 3.09318L786.434 3.36638L786.57 3.64127L786.707 3.91658L787.399 5.31255M786.299 3.09318H819.448M885.747 3.09318H918.896M885.747 3.09318H852.598M885.747 3.09318L886.426 3.64127L887.802 4.75054L888.149 5.03091L888.499 5.31255M918.896 3.09318L919.711 3.64127L920.122 3.91658L920.534 4.19358L922.198 5.31255M918.896 3.09318H952.045M1018.34 3.09318H1051.49M1018.34 3.09318H985.194M1018.34 3.09318L1019.57 3.64127L1020.18 3.91658L1023.3 5.31255M1051.49 3.09318L1052.17 3.36638L1052.85 3.64127L1057 5.31255M1051.49 3.09318H1084.64M1150.94 3.09318H1184.09M1150.94 3.09318H1117.79M1150.94 3.09318L1152.71 3.64127L1153.6 3.91658L1158.1 5.31255M1184.09 3.09318L1191.8 5.31255M1184.09 3.09318H1217.24M1283.54 3.09318H1316.69M1283.54 3.09318H1250.39M1283.54 3.09318L1292.89 5.31255M1316.69 3.09318L1326.6 5.31255M1316.69 3.09318H1349.84M0.271359 23.184H0.387546M33.6366 23.184L46.2928 20.3486M33.6366 23.184L20.4955 26.128M33.6366 23.184H71.7679M33.6366 23.184H0.387546M46.2928 20.3486H8.86473M46.2928 20.3486L58.491 17.6158M46.2928 20.3486H83.7209M8.86473 20.3486L21.7405 17.6158M8.86473 20.3486H0.387546M8.86473 20.3486L0.387546 22.1474M46.1414 12.4364H81.6078M46.1414 12.4364L57.7137 9.98014M46.1414 12.4364H10.6758M46.1414 12.4364L34.1576 14.98M81.6078 12.4364L92.5714 9.98014M81.6078 12.4364L70.2552 14.98M81.6078 12.4364H117.074M57.7137 9.98014H92.5714M57.7137 9.98014L68.8954 7.60708M57.7137 9.98014H22.8567M92.5714 9.98014H127.428M92.5714 9.98014L103.164 7.60708M0.0224927 67.9387H0.387546M30.7904 67.9387L47.1106 63.2377M30.7904 67.9387L13.6591 72.8736M30.7904 67.9387H80.0202M30.7904 67.9387H0.387546M47.1106 63.2377L62.676 58.7542M47.1106 63.2377H95.174M47.1106 63.2377H0.387546M15.7243 58.7542H62.676M15.7243 58.7542L31.6472 54.4734M15.7243 58.7542H0.387546M15.7243 58.7542L0.387546 62.8774M46.8655 50.3818H91.7409M46.8655 50.3818L61.4257 46.4675M46.8655 50.3818H1.99018M46.8655 50.3818L31.6472 54.4734M91.7409 50.3818L105.331 46.4675M91.7409 50.3818L77.5368 54.4734M91.7409 50.3818H136.617M61.4257 46.4675H105.331M61.4257 46.4675H17.5211M61.4257 46.4675L75.3697 42.7187M105.331 46.4675L118.345 42.7187M105.331 46.4675H149.236M101.558 35.6781H142.787M101.558 35.6781L113.87 32.368M101.558 35.6781H60.3283M101.558 35.6781L88.735 39.1254M142.787 35.6781L154.278 32.368M142.787 35.6781L130.82 39.1254M142.787 35.6781H184.017M113.87 32.368H154.278M113.87 32.368H73.4612M113.87 32.368L125.701 29.1872M154.278 32.368L165.321 29.1872M154.278 32.368H194.687M148.03 23.184H186.162M148.03 23.184L158.577 20.3486M148.03 23.184H109.899M148.03 23.184L137.079 26.128M186.162 23.184L196.005 20.3486M186.162 23.184L175.941 26.128M186.162 23.184H224.293M158.577 20.3486H196.005M158.577 20.3486H121.149M158.577 20.3486L168.742 17.6158M196.005 20.3486L205.493 17.6158M196.005 20.3486H233.433M188.006 12.4364H223.473M188.006 12.4364L197.142 9.98014M188.006 12.4364H152.541M188.006 12.4364L178.546 14.98M223.473 12.4364L231.999 9.98014M223.473 12.4364L214.642 14.98M223.473 12.4364H258.939M197.142 9.98014H231.999M197.142 9.98014L205.97 7.60708M197.142 9.98014H162.285M231.999 9.98014H266.857M231.999 9.98014L240.239 7.60708M25.6092 149.44L48.5784 140.177M25.6092 149.44L1.01196 159.359M25.6092 149.44H95.0481M25.6092 149.44H0.387546M48.5784 140.177L70.0775 131.507M48.5784 140.177H115.72M48.5784 140.177H0.387546M48.1121 115.732H109.193M48.1121 115.732L67.7403 108.537M48.1121 115.732L27.2658 123.375M48.1121 115.732H0.387546M109.193 115.732L127.036 108.537M109.193 115.732L90.2417 123.375M109.193 115.732H170.274M67.7403 108.537H127.036M67.7403 108.537H8.44421M67.7403 108.537L86.2546 101.749M127.036 108.537L143.868 101.749M127.036 108.537H186.333M120.298 89.268H174.817M120.298 89.268L135.985 83.5173M120.298 89.268H65.7801M120.298 89.268L103.746 95.3366M174.817 89.268L189.077 83.5173M174.817 89.268L159.769 95.3366M174.817 89.268H229.335M135.985 83.5173H189.077M135.985 83.5173H82.8926M135.985 83.5173L150.871 78.0597M189.077 83.5173L202.611 78.0597M189.077 83.5173H242.169M178.478 67.9387H227.708M178.478 67.9387L191.301 63.2377M178.478 67.9387H129.249M178.478 67.9387L165.018 72.8736M227.708 67.9387L239.365 63.2377M227.708 67.9387L215.471 72.8736M227.708 67.9387H276.937M191.301 63.2377H239.365M191.301 63.2377H143.238M191.301 63.2377L203.531 58.7542M239.365 63.2377L250.483 58.7542M239.365 63.2377H287.428M226.368 50.3818H271.244M226.368 50.3818L237.046 46.4675M226.368 50.3818H181.492M226.368 50.3818L215.208 54.4734M271.244 50.3818L280.951 46.4675M271.244 50.3818L261.098 54.4734M271.244 50.3818H316.119M237.046 46.4675H280.951M237.046 46.4675H193.141M237.046 46.4675L247.271 42.7187M280.951 46.4675L290.247 42.7187M280.951 46.4675H324.856M266.476 35.6781H307.705M266.476 35.6781L275.504 32.368M266.476 35.6781H225.246M266.476 35.6781L257.073 39.1254M307.705 35.6781L308.75 35.2571L315.913 32.368M307.705 35.6781L299.157 39.1254M307.705 35.6781H348.935M275.504 32.368H315.913M275.504 32.368H235.096M275.504 32.368L284.181 29.1872M315.913 32.368L323.801 29.1872M315.913 32.368H356.322M300.555 23.184H338.687M300.555 23.184L308.29 20.3486M300.555 23.184H262.424M300.555 23.184L292.525 26.128M338.687 23.184L345.718 20.3486M338.687 23.184L335.982 24.2751L331.386 26.128M338.687 23.184H376.818M308.29 20.3486H345.718M308.29 20.3486H270.862M308.29 20.3486L315.744 17.6158M345.718 20.3486L352.495 17.6158M345.718 20.3486H383.146M329.871 12.4364H365.338M329.871 12.4364L336.571 9.98014M329.871 12.4364H294.405M329.871 12.4364L322.934 14.98M365.338 12.4364L369.926 10.5865L370.678 10.2825L371.429 9.98014M365.338 12.4364L359.03 14.98M365.338 12.4364H400.804M336.571 9.98014H371.429M336.571 9.98014L343.045 7.60708M336.571 9.98014H301.714M371.429 9.98014H406.286M371.429 9.98014L377.313 7.60708M50.7679 254.957H146.373M50.7679 254.957L80.8717 237.615M50.7679 254.957L17.6882 274.015M50.7679 254.957L0.387546 254.958M146.373 254.957L172.176 237.615M146.373 254.957L118.019 274.015M146.373 254.957H241.977M80.8717 237.615H172.176M80.8717 237.615L108.384 221.765M80.8717 237.615H0.387546M172.176 237.615L195.758 221.765M172.176 237.615H263.48M156.866 193.834H237.314M156.866 193.834L178.334 181.466M156.866 193.834H76.4183M156.866 193.834L133.625 207.223M237.314 193.834L255.715 181.466M237.314 193.834L217.393 207.223M237.314 193.834H317.761M178.334 181.466H255.715M178.334 181.466H100.953M178.334 181.466L198.226 170.007M255.715 181.466L272.765 170.007M255.715 181.466H333.096M233.927 149.44H303.365M233.927 149.44L250.005 140.177M233.927 149.44H164.487M233.927 149.44L216.708 159.359M303.365 149.44L317.147 140.177M303.365 149.44L288.607 159.359M303.365 149.44H372.804M250.005 140.177H317.147M250.005 140.177H182.863M250.005 140.177L265.054 131.507M317.147 140.177L330.047 131.507M317.147 140.177H384.29M292.435 115.732H353.516M292.435 115.732L304.926 108.537M292.435 115.732H231.355M292.435 115.732L279.169 123.375M353.516 115.732L364.222 108.537M353.516 115.732L342.145 123.375M353.516 115.732H414.597M304.926 108.537H364.222M304.926 108.537H245.629M304.926 108.537L316.707 101.749M364.222 108.537L374.321 101.749M364.222 108.537H423.518M338.372 89.268H392.89M338.372 89.268L348.354 83.5173M338.372 89.268H283.853M338.372 89.268L327.838 95.3366M392.89 89.268L401.446 83.5173M392.89 89.268L383.862 95.3366M392.89 89.268H447.409M348.354 83.5173H401.446M348.354 83.5173H295.262M348.354 83.5173L357.827 78.0597M401.446 83.5173L409.566 78.0597M401.446 83.5173H454.539M375.396 67.9387H424.625M375.396 67.9387L383.556 63.2377M375.396 67.9387H326.166M375.396 67.9387L366.83 72.8736M424.625 67.9387L431.619 63.2377M424.625 67.9387L417.282 72.8736M424.625 67.9387H473.854M383.556 63.2377H431.619M383.556 63.2377H335.492M383.556 63.2377L391.338 58.7542M431.619 63.2377L438.29 58.7542M431.619 63.2377H479.682M405.87 50.3818H450.747M405.87 50.3818L412.666 46.4675M405.87 50.3818H360.995M405.87 50.3818L398.769 54.4734M450.747 50.3818L456.57 46.4675M450.747 50.3818L444.659 54.4734M450.747 50.3818H495.622M412.666 46.4675H456.57M412.666 46.4675H368.76M412.666 46.4675L419.173 42.7187M456.57 46.4675L462.148 42.7187M456.57 46.4675H500.476M431.393 35.6781H472.624M431.393 35.6781L437.139 32.368M431.393 35.6781H390.164M431.393 35.6781L425.409 39.1254M472.624 35.6781L471.993 36.1012L467.494 39.1254M472.624 35.6781L477.548 32.368M472.624 35.6781H513.853M437.139 32.368H477.548M437.139 32.368H396.731M437.139 32.368L442.661 29.1872M477.548 32.368L482.281 29.1872M477.548 32.368H517.957M453.081 23.184H491.212M453.081 23.184L458.003 20.3486M453.081 23.184H414.95M453.081 23.184L447.971 26.128M491.212 23.184L495.431 20.3486M491.212 23.184L489.589 24.2751L488.494 25.0111L486.832 26.128M491.212 23.184H529.343M458.003 20.3486H495.431M458.003 20.3486H420.575M458.003 20.3486L462.746 17.6158M495.431 20.3486L496.973 19.3119L497.99 18.6287L499.497 17.6158M495.431 20.3486H532.859M471.737 12.4364H507.202M471.737 12.4364L474.948 10.5865L476 9.98014M471.737 12.4364H436.27M471.737 12.4364L467.882 14.657L467.322 14.98M507.202 12.4364L509.956 10.5865L510.407 10.2825L510.857 9.98014M507.202 12.4364L505.327 13.6968L503.418 14.98M507.202 12.4364H542.669M476 9.98014H510.857M476 9.98014L480.119 7.60708M476 9.98014H441.143M510.857 9.98014H545.714M510.857 9.98014L514.388 7.60708M433.186 254.957H528.791M433.186 254.957L446.088 237.615M433.186 254.957H337.582M433.186 254.957L419.009 274.015M528.791 254.957L537.392 237.615M528.791 254.957L519.34 274.015M528.791 254.957H624.396M446.088 237.615H537.392M446.088 237.615H354.784M446.088 237.615L457.879 221.765M537.392 237.615L545.253 221.765M537.392 237.615H628.696M478.657 193.834H559.104M478.657 193.834L487.858 181.466M478.657 193.834H398.209M478.657 193.834L468.696 207.223M559.104 193.834L565.238 181.466M559.104 193.834L552.465 207.223M559.104 193.834H639.553M487.858 181.466H565.238M487.858 181.466H410.477M487.858 181.466L496.383 170.007M565.238 181.466L570.922 170.007M565.238 181.466H642.619M511.683 149.44H581.122M511.683 149.44L518.574 140.177M511.683 149.44H442.244M511.683 149.44L504.304 159.359M581.122 149.44L585.716 140.177M581.122 149.44L576.203 159.359M581.122 149.44H650.561M518.574 140.177H585.716M518.574 140.177H451.432M518.574 140.177L525.023 131.507M585.716 140.177L590.016 131.507M585.716 140.177H652.858M536.758 115.732H597.838M536.758 115.732L542.111 108.537M536.758 115.732H475.677M536.758 115.732L531.073 123.375M597.838 115.732L601.407 108.537M597.838 115.732L594.048 123.375M597.838 115.732H658.919M542.111 108.537H601.407M542.111 108.537H482.815M542.111 108.537L547.16 101.749M601.407 108.537L604.774 101.749M601.407 108.537H660.704M556.445 89.268H610.964M556.445 89.268L560.723 83.5173M556.445 89.268H501.927M556.445 89.268L551.931 95.3366M610.964 89.268L613.815 83.5173M610.964 89.268L607.954 95.3366M610.964 89.268H665.482M560.723 83.5173H613.815M560.723 83.5173H507.631M560.723 83.5173L564.783 78.0597M613.815 83.5173L616.522 78.0597M613.815 83.5173H666.908M572.312 67.9387H621.541M572.312 67.9387L575.809 63.2377M572.312 67.9387H523.083M572.312 67.9387L568.642 72.8736M621.541 67.9387L623.873 63.2377M621.541 67.9387L619.094 72.8736M621.541 67.9387H670.771M575.809 63.2377H623.873M575.809 63.2377H527.746M575.809 63.2377L577.079 61.5318L579.145 58.7542M623.873 63.2377L626.097 58.7542M623.873 63.2377H671.937M585.373 50.3818H630.249M585.373 50.3818L588.285 46.4675M585.373 50.3818H540.497M585.373 50.3818L583.104 53.4334L582.329 54.4734M630.249 50.3818L630.987 48.8938L632.19 46.4675M630.249 50.3818L628.219 54.4734M630.249 50.3818H675.125M588.285 46.4675L588.64 45.9899L591.074 42.7187M588.285 46.4675H632.19M588.285 46.4675H544.38M632.19 46.4675L632.897 45.0428L633.129 44.5729L633.362 44.1058L634.049 42.7187M632.19 46.4675H676.095M596.311 35.6781H637.541M596.311 35.6781L597.555 34.0064L597.862 33.5938L598.167 33.183L598.472 32.7747L598.774 32.368M596.311 35.6781H555.082M596.311 35.6781L593.747 39.1254M637.541 35.6781L638.778 33.183L638.981 32.7747L639.182 32.368M637.541 35.6781L635.832 39.1254M637.541 35.6781H678.771M598.774 32.368H639.182M598.774 32.368H558.365M598.774 32.368L600.264 30.3653L600.557 29.9705L601.14 29.1872M639.182 32.368L640.176 30.3653L640.372 29.9705L640.566 29.5778L640.76 29.1872M639.182 32.368H679.592M605.606 23.184H643.738M605.606 23.184L607.716 20.3486M605.606 23.184H567.474M605.606 23.184L605.066 23.9094L604.247 25.0111L603.416 26.128M643.738 23.184L643.558 23.5459L642.463 25.7539L642.277 26.128M643.738 23.184L645.144 20.3486M643.738 23.184H681.869M607.716 20.3486H645.144M607.716 20.3486H570.288M607.716 20.3486L609.749 17.6158M645.144 20.3486L645.658 19.3119L645.827 18.9695L645.997 18.6287L646.499 17.6158M645.144 20.3486H682.572M613.602 12.4364H649.067M613.602 12.4364L614.978 10.5865L615.428 9.98014M613.602 12.4364H578.135M613.602 12.4364L612.899 13.3797L612.664 13.6968L612.426 14.0156L611.709 14.98M649.067 12.4364L649.222 12.1248L649.529 11.5053L649.834 10.8914L650.285 9.98014M649.067 12.4364L648.442 13.6968L648.285 14.0156L647.966 14.657L647.806 14.98M649.067 12.4364H684.534M615.428 9.98014H650.285M615.428 9.98014L616.976 7.89928L617.194 7.60708M615.428 9.98014H580.571M650.285 9.98014L650.435 9.67908L650.584 9.37927L650.732 9.08074L650.879 8.78348L651.318 7.89928L651.463 7.60708M650.285 9.98014H685.143M815.604 254.957H911.209M815.604 254.957L811.304 237.615M815.604 254.957H720M815.604 254.957L820.33 274.015M911.209 254.957L902.608 237.615M911.209 254.957L920.66 274.015M911.209 254.957H1006.81M811.304 237.615H902.608M811.304 237.615H720M811.304 237.615L807.374 221.765M902.608 237.615L894.747 221.765M902.608 237.615H993.912M800.447 193.834H880.896M800.447 193.834L797.381 181.466M800.447 193.834H720M800.447 193.834L803.768 207.223M880.896 193.834L874.762 181.466M880.896 193.834L887.536 207.223M880.896 193.834H961.343M797.381 181.466H874.762M797.381 181.466H720M797.381 181.466L794.539 170.007M874.762 181.466L869.078 170.007M874.762 181.466H952.142M789.439 149.44H858.878M789.439 149.44L787.142 140.177M789.439 149.44H720M789.439 149.44L791.899 159.359M858.878 149.44L854.284 140.177M858.878 149.44L863.797 159.359M858.878 149.44H928.317M787.142 140.177H854.284M787.142 140.177H720M787.142 140.177L784.992 131.507M854.284 140.177L849.985 131.507M854.284 140.177H921.426M781.081 115.732H842.162M781.081 115.732L779.296 108.537M781.081 115.732H720M781.081 115.732L782.976 123.375M842.162 115.732L838.593 108.537M842.162 115.732L845.952 123.375M842.162 115.732H903.242M779.296 108.537H838.593M779.296 108.537H720M779.296 108.537L777.613 101.749M838.593 108.537L835.226 101.749M838.593 108.537H897.889M774.518 89.268H829.036M774.518 89.268L773.092 83.5173M774.518 89.268H720M774.518 89.268L776.023 95.3366M829.036 89.268L826.185 83.5173M829.036 89.268L832.046 95.3366M829.036 89.268H883.555M773.092 83.5173H826.185M773.092 83.5173H720M773.092 83.5173L771.739 78.0597M826.185 83.5173L823.478 78.0597M826.185 83.5173H879.277M769.229 67.9387H818.459M769.229 67.9387L768.063 63.2377M769.229 67.9387H720M769.229 67.9387L770.453 72.8736M818.459 67.9387L816.127 63.2377M818.459 67.9387L820.906 72.8736M818.459 67.9387H867.688M768.063 63.2377H816.127M768.063 63.2377H720M768.063 63.2377L766.952 58.7542M816.127 63.2377L813.903 58.7542M816.127 63.2377H864.191M764.875 50.3818H809.751M764.875 50.3818L763.905 46.4675M764.875 50.3818H720M764.875 50.3818L765.89 54.4734M809.751 50.3818L808.048 46.9476L807.81 46.4675M809.751 50.3818L811.781 54.4734M809.751 50.3818H854.627M763.905 46.4675L763.787 45.9899L762.975 42.7187M763.905 46.4675H807.81M763.905 46.4675H720M807.81 46.4675L807.103 45.0428L806.871 44.5729L806.638 44.1058L805.951 42.7187M807.81 46.4675H851.715M761.229 35.6781H802.459M761.229 35.6781L760.409 32.368M761.229 35.6781H720M761.229 35.6781L761.546 36.9541L761.653 37.384L761.759 37.8159L761.975 38.6866L762.085 39.1254M802.459 35.6781L801.222 33.183L800.817 32.368M802.459 35.6781L804.168 39.1254M802.459 35.6781H843.689M760.409 32.368H800.817M760.409 32.368H720M760.409 32.368L759.62 29.1872M800.817 32.368L799.825 30.3653L799.628 29.9705L799.434 29.5778L799.24 29.1872M800.817 32.368H841.226M758.131 23.184H796.262M758.131 23.184L757.428 20.3486M758.131 23.184H720M758.131 23.184L758.861 26.128M796.262 23.184L796.442 23.5459L797.537 25.7539L797.723 26.128M796.262 23.184L794.856 20.3486M796.262 23.184H834.394M757.428 20.3486H794.856M757.428 20.3486H720M757.428 20.3486L756.751 17.6158M794.856 20.3486L794.342 19.3119L794.173 18.9695L794.003 18.6287L793.501 17.6158M794.856 20.3486H832.284M755.467 12.4364H790.933M755.467 12.4364L754.857 9.98014M755.467 12.4364H720M755.467 12.4364L756.097 14.98M790.933 12.4364L790.778 12.1248L790.47 11.5053L790.318 11.1975L790.015 10.5865L789.865 10.2825L789.714 9.98014M790.933 12.4364L791.558 13.6968L791.715 14.0156L792.034 14.657L792.194 14.98M790.933 12.4364H826.399M754.857 9.98014L754.783 9.67908L754.708 9.37927L754.634 9.08074L754.269 7.60708M754.857 9.98014H789.714M754.857 9.98014H720M789.714 9.98014H824.572M789.714 9.98014L789.416 9.37927L789.268 9.08074L789.121 8.78348L788.683 7.89928L788.537 7.60708M1198.02 254.957H1293.63M1198.02 254.957L1176.52 237.615M1198.02 254.957H1102.42M1198.02 254.957L1221.65 274.015M1293.63 254.957L1267.82 237.615M1293.63 254.957L1321.98 274.015M1293.63 254.957H1389.23M1176.52 237.615H1267.82M1176.52 237.615H1085.22M1176.52 237.615L1156.87 221.765M1267.82 237.615L1244.24 221.765M1267.82 237.615H1359.13M1122.24 193.834H1202.69M1122.24 193.834L1106.9 181.466M1122.24 193.834H1041.79M1122.24 193.834L1138.84 207.223M1202.69 193.834L1184.29 181.466M1202.69 193.834L1222.61 207.223M1202.69 193.834H1283.13M1106.9 181.466H1184.29M1106.9 181.466H1029.52M1106.9 181.466L1092.7 170.007M1184.29 181.466L1167.23 170.007M1184.29 181.466H1261.67M1067.2 149.44H1136.63M1067.2 149.44L1055.71 140.177M1067.2 149.44H997.756M1067.2 149.44L1079.49 159.359M1136.63 149.44L1122.85 140.177M1136.63 149.44L1151.39 159.359M1136.63 149.44H1206.07M1055.71 140.177H1122.85M1055.71 140.177H988.568M1055.71 140.177L1044.96 131.507M1122.85 140.177L1109.95 131.507M1122.85 140.177H1189.99M1025.4 115.732H1086.48M1025.4 115.732L1016.48 108.537M1025.4 115.732H964.323M1025.4 115.732L1034.88 123.375M1086.48 115.732L1075.78 108.537M1086.48 115.732L1097.86 123.375M1086.48 115.732H1147.57M1016.48 108.537H1075.78M1016.48 108.537H957.185M1016.48 108.537L1008.07 101.749M1075.78 108.537L1065.68 101.749M1075.78 108.537H1135.07M992.591 89.268H1047.11M992.591 89.268L985.461 83.5173M992.591 89.268H938.073M992.591 89.268L1000.12 95.3366M1047.11 89.268L1038.55 83.5173M1047.11 89.268L1056.14 95.3366M1047.11 89.268H1101.63M985.461 83.5173H1038.55M985.461 83.5173H932.369M985.461 83.5173L978.695 78.0597M1038.55 83.5173L1030.43 78.0597M1038.55 83.5173H1091.65M966.146 67.9387H1015.38M966.146 67.9387L960.318 63.2377M966.146 67.9387H916.917M966.146 67.9387L972.265 72.8736M1015.38 67.9387L1008.38 63.2377M1015.38 67.9387L1022.72 72.8736M1015.38 67.9387H1064.6M960.318 63.2377H1008.38M960.318 63.2377H912.254M960.318 63.2377L954.759 58.7542M1008.38 63.2377L1001.71 58.7542M1008.38 63.2377H1056.44M944.378 50.3818L945 50.8834L945.626 51.3876L949.451 54.4734M944.378 50.3818H989.254M944.378 50.3818L939.525 46.4675M944.378 50.3818H899.503M989.254 50.3818L983.43 46.4675M989.254 50.3818L995.341 54.4734M989.254 50.3818H1034.13M939.525 46.4675H983.43M939.525 46.4675H895.62M939.525 46.4675L934.877 42.7187M983.43 46.4675L977.852 42.7187M983.43 46.4675H1027.33M926.147 35.6781H967.377M926.147 35.6781L922.043 32.368M926.147 35.6781H884.918M926.147 35.6781L930.421 39.1254M967.377 35.6781L964.275 33.5938L962.452 32.368M967.377 35.6781L972.506 39.1254M967.377 35.6781H1008.61M922.043 32.368H962.452M922.043 32.368H881.635M922.043 32.368L918.585 29.5778L918.1 29.1872M962.452 32.368L957.72 29.1872M962.452 32.368H1002.86M910.657 23.184H948.788M910.657 23.184L909.766 22.4649L907.141 20.3486M910.657 23.184H872.526M910.657 23.184L911.556 23.9094L913.382 25.3814L914.307 26.128M948.788 23.184L944.569 20.3486M948.788 23.184L950.411 24.2751L951.506 25.0111L953.168 26.128M948.788 23.184H986.919M907.141 20.3486H944.569M907.141 20.3486H869.712M907.141 20.3486L904.588 18.2893L903.752 17.6158M944.569 20.3486L943.027 19.3119L942.01 18.6287L940.503 17.6158M944.569 20.3486H981.997M897.331 12.4364H932.798M897.331 12.4364L895.415 10.8914L894.286 9.98014M897.331 12.4364H861.865M897.331 12.4364L900.485 14.98M932.798 12.4364L930.044 10.5865L929.593 10.2825L929.143 9.98014M932.798 12.4364L934.673 13.6968L936.582 14.98M932.798 12.4364H968.263M894.286 9.98014H929.143M894.286 9.98014L892.802 8.78348L892.07 8.19274L891.706 7.89928L891.344 7.60708M894.286 9.98014H859.429M929.143 9.98014H964M929.143 9.98014L925.612 7.60708M1416.43 181.466H1339.05M1416.43 181.466L1390.85 170.007M1416.43 181.466H1439.61M1416.43 181.466L1439.61 191.855M1344.95 149.44H1414.39M1344.95 149.44L1324.28 140.177M1344.95 149.44H1275.51M1344.95 149.44L1367.09 159.359M1414.39 149.44L1391.42 140.177M1414.39 149.44L1438.99 159.359M1414.39 149.44H1439.61M1324.28 140.177H1391.42M1324.28 140.177H1257.14M1324.28 140.177L1304.93 131.507M1391.42 140.177L1369.92 131.507M1391.42 140.177H1439.61M1269.73 115.732H1330.81M1269.73 115.732L1253.67 108.537M1269.73 115.732H1208.65M1269.73 115.732L1286.78 123.375M1330.81 115.732L1312.96 108.537M1330.81 115.732L1349.76 123.375M1330.81 115.732H1391.89M1253.67 108.537H1312.96M1253.67 108.537H1194.37M1253.67 108.537L1238.52 101.749M1312.96 108.537L1296.13 101.749M1312.96 108.537H1372.26M1210.66 89.268H1265.18M1210.66 89.268L1197.83 83.5173M1210.66 89.268H1156.15M1210.66 89.268L1224.21 95.3366M1265.18 89.268L1250.92 83.5173M1265.18 89.268L1280.23 95.3366M1265.18 89.268H1319.7M1197.83 83.5173H1250.92M1197.83 83.5173H1144.74M1197.83 83.5173L1185.65 78.0597M1250.92 83.5173L1237.39 78.0597M1250.92 83.5173H1304.02M1163.06 67.9387H1212.29M1163.06 67.9387L1152.57 63.2377M1163.06 67.9387H1113.83M1163.06 67.9387L1174.08 72.8736M1212.29 67.9387L1200.64 63.2377M1212.29 67.9387L1224.53 72.8736M1212.29 67.9387H1261.52M1152.57 63.2377H1200.64M1152.57 63.2377H1104.51M1152.57 63.2377L1142.57 58.7542M1200.64 63.2377L1189.52 58.7542M1200.64 63.2377H1248.7M1123.88 50.3818H1168.76M1123.88 50.3818L1115.14 46.4675M1123.88 50.3818H1079M1123.88 50.3818L1133.01 54.4734M1168.76 50.3818L1159.05 46.4675M1168.76 50.3818L1178.9 54.4734M1168.76 50.3818H1213.63M1115.14 46.4675H1159.05M1115.14 46.4675H1071.24M1115.14 46.4675L1106.78 42.7187M1159.05 46.4675L1149.75 42.7187M1159.05 46.4675H1202.95M1091.07 35.6781H1132.29M1091.07 35.6781L1083.68 32.368M1091.07 35.6781H1049.84M1091.07 35.6781L1098.76 39.1254M1132.29 35.6781L1124.09 32.368M1132.29 35.6781L1140.84 39.1254M1132.29 35.6781H1173.52M1083.68 32.368H1124.09M1083.68 32.368H1043.27M1083.68 32.368L1076.58 29.1872M1124.09 32.368L1116.2 29.1872M1124.09 32.368H1164.5M1063.18 23.184H1101.31M1063.18 23.184L1056.85 20.3486M1063.18 23.184H1025.05M1063.18 23.184L1064.8 23.9094L1065.62 24.2751L1069.75 26.128M1101.31 23.184L1094.28 20.3486M1101.31 23.184L1108.61 26.128M1101.31 23.184H1139.44M1056.85 20.3486H1094.28M1056.85 20.3486H1019.43M1056.85 20.3486L1050.75 17.6158M1094.28 20.3486L1087.51 17.6158M1094.28 20.3486H1131.71M1039.2 12.4364H1074.66M1039.2 12.4364L1033.71 9.98014M1039.2 12.4364H1003.73M1039.2 12.4364L1044.87 14.98M1074.66 12.4364L1070.07 10.5865L1069.32 10.2825L1068.57 9.98014M1074.66 12.4364L1080.97 14.98M1074.66 12.4364H1110.13M1033.71 9.98014H1068.57M1033.71 9.98014L1029.07 7.89928L1028.42 7.60708M1033.71 9.98014H998.857M1068.57 9.98014H1103.43M1068.57 9.98014L1062.69 7.60708M1428.74 89.268L1410.2 83.5173M1428.74 89.268H1374.22M1428.74 89.268L1439.61 92.6414M1428.74 89.268H1439.61M1410.2 83.5173H1357.11M1410.2 83.5173L1392.61 78.0597M1410.2 83.5173H1439.61M1359.98 67.9387H1409.21M1359.98 67.9387L1344.83 63.2377M1359.98 67.9387H1310.75M1359.98 67.9387L1375.89 72.8736M1409.21 67.9387L1392.89 63.2377M1409.21 67.9387L1426.34 72.8736M1409.21 67.9387H1439.61M1344.83 63.2377H1392.89M1344.83 63.2377H1296.76M1344.83 63.2377L1330.37 58.7542M1392.89 63.2377L1377.32 58.7542M1392.89 63.2377H1439.61M1303.38 50.3818H1348.26M1303.38 50.3818L1290.76 46.4675M1303.38 50.3818H1258.51M1303.38 50.3818L1316.57 54.4734M1348.26 50.3818L1334.67 46.4675M1348.26 50.3818L1362.46 54.4734M1348.26 50.3818H1393.13M1290.76 46.4675H1334.67M1290.76 46.4675H1246.86M1290.76 46.4675L1278.68 42.7187M1334.67 46.4675L1321.66 42.7187M1334.67 46.4675H1378.57M1255.98 35.6781H1297.21M1255.98 35.6781L1245.31 32.368M1255.98 35.6781H1214.75M1255.98 35.6781L1267.1 39.1254M1297.21 35.6781L1285.72 32.368M1297.21 35.6781L1309.18 39.1254M1297.21 35.6781H1338.44M1245.31 32.368H1285.72M1245.31 32.368H1204.9M1245.31 32.368L1235.06 29.1872M1285.72 32.368L1274.68 29.1872M1285.72 32.368H1326.13M1215.71 23.184H1253.84M1215.71 23.184L1206.57 20.3486M1215.71 23.184H1177.58M1215.71 23.184L1225.2 26.128M1253.84 23.184L1243.99 20.3486M1253.84 23.184L1264.06 26.128M1253.84 23.184H1291.97M1206.57 20.3486H1243.99M1206.57 20.3486H1169.14M1206.57 20.3486L1197.76 17.6158M1243.99 20.3486L1234.51 17.6158M1243.99 20.3486H1281.42M1181.06 12.4364H1216.53M1181.06 12.4364L1173.14 9.98014M1181.06 12.4364H1145.59M1181.06 12.4364L1189.26 14.98M1216.53 12.4364L1208 9.98014M1216.53 12.4364L1225.36 14.98M1216.53 12.4364H1251.99M1173.14 9.98014H1208M1173.14 9.98014L1165.49 7.60708M1173.14 9.98014H1138.29M1208 9.98014H1242.86M1208 9.98014L1199.76 7.60708M1420.9 35.6781L1406.95 32.368M1420.9 35.6781H1379.67M1420.9 35.6781L1435.43 39.1254M1420.9 35.6781H1439.61M1406.95 32.368H1366.54M1406.95 32.368L1393.54 29.1872M1406.95 32.368H1439.61M1368.23 23.184H1406.36M1368.23 23.184L1356.28 20.3486M1368.23 23.184H1330.1M1368.23 23.184L1380.64 26.128M1406.36 23.184L1393.71 20.3486M1406.36 23.184L1419.5 26.128M1406.36 23.184H1439.61M1356.28 20.3486H1393.71M1356.28 20.3486H1318.85M1356.28 20.3486L1344.76 17.6158M1393.71 20.3486L1381.51 17.6158M1393.71 20.3486H1431.14M1322.93 12.4364H1358.39M1322.93 12.4364L1312.57 9.98014M1322.93 12.4364H1287.46M1322.93 12.4364L1333.65 14.98M1358.39 12.4364L1347.43 9.98014M1358.39 12.4364L1369.74 14.98M1358.39 12.4364H1393.86M1312.57 9.98014H1347.43M1312.57 9.98014L1302.57 7.60708M1312.57 9.98014H1277.71M1347.43 9.98014H1382.29M1347.43 9.98014L1336.84 7.60708M1369.74 14.98L1381.51 17.6158M1369.74 14.98H1405.84M1369.74 14.98H1333.65M1393.86 12.4364L1382.29 9.98014M1393.86 12.4364L1405.84 14.98M1393.86 12.4364H1429.32M1382.29 9.98014H1417.14M1382.29 9.98014L1371.1 7.60708M1336.84 7.60708H1302.57M1336.84 7.60708H1371.1M1336.84 7.60708L1326.6 5.31255M1405.84 14.98L1418.26 17.6158M1405.84 14.98H1439.61M1429.32 12.4364L1417.14 9.98014M1429.32 12.4364L1439.61 14.5107M1429.32 12.4364H1439.61M1417.14 9.98014L1405.37 7.60708M1417.14 9.98014H1439.61M1371.1 7.60708H1405.37M1371.1 7.60708L1360.29 5.31255M1405.37 7.60708L1393.99 5.31255M1405.37 7.60708H1439.61M1381.51 17.6158H1418.26M1381.51 17.6158H1344.76M1431.14 20.3486L1418.26 17.6158M1431.14 20.3486L1439.61 22.1474M1431.14 20.3486H1439.61M1418.26 17.6158H1439.61M1344.76 17.6158H1308.01M1344.76 17.6158L1333.65 14.98M1333.65 14.98H1297.55M1419.5 26.128L1433.16 29.1872M1419.5 26.128H1380.64M1419.5 26.128H1439.61M1439.73 23.184H1439.61M1433.16 29.1872H1393.54M1433.16 29.1872L1439.61 30.633M1433.16 29.1872H1439.61M1393.54 29.1872H1353.92M1393.54 29.1872L1380.64 26.128M1380.64 26.128H1341.78M1225.36 14.98L1234.51 17.6158M1225.36 14.98H1261.45M1225.36 14.98H1189.26M1251.99 12.4364L1242.86 9.98014M1251.99 12.4364L1261.45 14.98M1251.99 12.4364H1287.46M1242.86 9.98014H1277.71M1242.86 9.98014L1234.03 7.60708M1199.76 7.60708H1234.03M1199.76 7.60708L1191.8 5.31255M1199.76 7.60708H1165.49M1261.45 14.98L1271.26 17.6158M1261.45 14.98H1297.55M1287.46 12.4364L1277.71 9.98014M1287.46 12.4364L1297.55 14.98M1277.71 9.98014L1268.3 7.60708M1234.03 7.60708H1268.3M1234.03 7.60708L1225.5 5.31255M1297.55 14.98L1308.01 17.6158M1302.57 7.60708H1268.3M1302.57 7.60708L1292.89 5.31255M1268.3 7.60708L1259.2 5.31255M1234.51 17.6158H1271.26M1234.51 17.6158H1197.76M1281.42 20.3486L1271.26 17.6158M1281.42 20.3486L1291.97 23.184M1281.42 20.3486H1318.85M1271.26 17.6158H1308.01M1197.76 17.6158H1161.01M1197.76 17.6158L1189.26 14.98M1308.01 17.6158L1318.85 20.3486M1189.26 14.98H1153.16M1291.97 23.184L1302.92 26.128M1291.97 23.184H1330.1M1318.85 20.3486L1330.1 23.184M1330.1 23.184L1341.78 26.128M1264.06 26.128L1274.68 29.1872M1264.06 26.128H1302.92M1264.06 26.128H1225.2M1302.92 26.128L1314.3 29.1872M1302.92 26.128H1341.78M1341.78 26.128L1353.92 29.1872M1274.68 29.1872H1314.3M1274.68 29.1872H1235.06M1326.13 32.368L1314.3 29.1872M1326.13 32.368L1338.44 35.6781M1326.13 32.368H1366.54M1314.3 29.1872H1353.92M1235.06 29.1872H1195.44M1235.06 29.1872L1225.2 26.128M1353.92 29.1872L1366.54 32.368M1225.2 26.128H1186.34M1338.44 35.6781L1351.27 39.1254M1338.44 35.6781H1379.67M1366.54 32.368L1379.67 35.6781M1379.67 35.6781L1393.35 39.1254M1309.18 39.1254L1321.66 42.7187M1309.18 39.1254H1351.27M1309.18 39.1254H1267.1M1351.27 39.1254L1364.63 42.7187M1351.27 39.1254H1393.35M1393.35 39.1254L1407.61 42.7187M1393.35 39.1254H1435.43M1435.43 39.1254H1439.61M1435.43 39.1254L1439.61 40.1165M1321.66 42.7187H1364.63M1321.66 42.7187H1278.68M1378.57 46.4675L1364.63 42.7187M1378.57 46.4675L1393.13 50.3818M1378.57 46.4675H1422.48M1364.63 42.7187H1407.61M1278.68 42.7187H1235.7M1278.68 42.7187L1267.1 39.1254M1407.61 42.7187L1422.48 46.4675M1407.61 42.7187H1439.61M1267.1 39.1254H1225.01M1393.13 50.3818L1408.35 54.4734M1393.13 50.3818H1438.01M1422.48 46.4675L1438.01 50.3818M1422.48 46.4675H1439.61M1439.84 42.7187H1439.61M1438.01 50.3818L1439.61 50.7858M1438.01 50.3818H1439.61M1362.46 54.4734L1377.32 58.7542M1362.46 54.4734H1408.35M1362.46 54.4734H1316.57M1408.35 54.4734L1424.28 58.7542M1408.35 54.4734H1439.61M1440 50.8834L1439.61 50.7858M1377.32 58.7542H1424.28M1377.32 58.7542H1330.37M1424.28 58.7542H1439.61M1424.28 58.7542L1439.61 62.8774M1330.37 58.7542H1283.42M1330.37 58.7542L1316.57 54.4734M1316.57 54.4734H1270.68M1426.34 72.8736H1375.89M1426.34 72.8736L1439.61 76.6964M1426.34 72.8736H1439.61M1439.98 67.9387H1439.61M1375.89 72.8736H1325.43M1375.89 72.8736L1392.61 78.0597M1439.76 76.7385L1439.61 76.6964M1080.97 14.98L1087.51 17.6158M1080.97 14.98H1117.07M1080.97 14.98H1044.87M1110.13 12.4364L1103.43 9.98014M1110.13 12.4364L1117.07 14.98M1110.13 12.4364H1145.59M1103.43 9.98014H1138.29M1103.43 9.98014L1096.96 7.60708M1062.69 7.60708H1096.96M1062.69 7.60708L1060.53 6.73766L1057 5.31255M1062.69 7.60708H1028.42M1117.07 14.98L1124.26 17.6158M1117.07 14.98H1153.16M1145.59 12.4364L1138.29 9.98014M1145.59 12.4364L1153.16 14.98M1138.29 9.98014L1131.22 7.60708M1096.96 7.60708H1131.22M1096.96 7.60708L1090.7 5.31255M1153.16 14.98L1161.01 17.6158M1165.49 7.60708L1158.1 5.31255M1165.49 7.60708H1131.22M1131.22 7.60708L1130.36 7.31572L1128.64 6.73766L1124.4 5.31255M1087.51 17.6158H1124.26M1087.51 17.6158H1050.75M1131.71 20.3486L1124.26 17.6158M1131.71 20.3486L1139.44 23.184M1131.71 20.3486H1169.14M1124.26 17.6158H1161.01M1050.75 17.6158H1014M1050.75 17.6158L1044.87 14.98M1161.01 17.6158L1169.14 20.3486M1044.87 14.98H1008.78M1139.44 23.184L1147.48 26.128M1139.44 23.184H1177.58M1169.14 20.3486L1170.18 20.6969L1177.58 23.184M1177.58 23.184L1186.34 26.128M1108.61 26.128L1109.55 26.5042L1116.2 29.1872M1108.61 26.128H1147.48M1108.61 26.128H1069.75M1147.48 26.128L1155.82 29.1872M1147.48 26.128H1186.34M1186.34 26.128L1195.44 29.1872M1116.2 29.1872H1155.82M1116.2 29.1872H1076.58M1164.5 32.368L1155.82 29.1872M1164.5 32.368L1173.52 35.6781M1164.5 32.368H1204.9M1155.82 29.1872H1195.44M1076.58 29.1872H1036.96M1076.58 29.1872L1069.75 26.128M1195.44 29.1872L1204.9 32.368M1069.75 26.128H1030.89M1173.52 35.6781L1182.93 39.1254M1173.52 35.6781H1214.75M1204.9 32.368L1214.75 35.6781M1214.75 35.6781L1225.01 39.1254M1140.84 39.1254L1149.75 42.7187M1140.84 39.1254H1182.93M1140.84 39.1254H1098.76M1182.93 39.1254L1192.73 42.7187M1182.93 39.1254H1225.01M1225.01 39.1254L1235.7 42.7187M1149.75 42.7187H1192.73M1149.75 42.7187H1106.78M1202.95 46.4675L1192.73 42.7187M1202.95 46.4675L1213.63 50.3818M1202.95 46.4675H1246.86M1192.73 42.7187H1235.7M1106.78 42.7187H1063.8M1106.78 42.7187L1098.76 39.1254M1235.7 42.7187L1246.86 46.4675M1098.76 39.1254H1056.67M1213.63 50.3818L1224.79 54.4734M1213.63 50.3818H1258.51M1246.86 46.4675L1258.51 50.3818M1258.51 50.3818L1270.68 54.4734M1178.9 54.4734L1189.52 58.7542M1178.9 54.4734H1224.79M1178.9 54.4734H1133.01M1224.79 54.4734L1236.47 58.7542M1224.79 54.4734H1270.68M1270.68 54.4734L1283.42 58.7542M1189.52 58.7542H1236.47M1189.52 58.7542H1142.57M1248.7 63.2377L1236.47 58.7542M1248.7 63.2377L1261.52 67.9387M1248.7 63.2377H1296.76M1236.47 58.7542H1283.42M1142.57 58.7542H1095.61M1142.57 58.7542L1133.01 54.4734M1283.42 58.7542L1296.76 63.2377M1133.01 54.4734H1087.12M1261.52 67.9387L1274.98 72.8736M1261.52 67.9387H1310.75M1296.76 63.2377L1310.75 67.9387M1310.75 67.9387L1325.43 72.8736M1224.53 72.8736L1237.39 78.0597M1224.53 72.8736H1274.98M1224.53 72.8736H1174.08M1274.98 72.8736L1289.13 78.0597M1274.98 72.8736H1325.43M1325.43 72.8736L1340.87 78.0597M1237.39 78.0597H1289.13M1237.39 78.0597H1185.65M1304.02 83.5173L1289.13 78.0597M1304.02 83.5173L1319.7 89.268M1304.02 83.5173H1357.11M1289.13 78.0597H1340.87M1185.65 78.0597H1133.91M1185.65 78.0597L1174.08 72.8736M1340.87 78.0597L1357.11 83.5173M1340.87 78.0597H1392.61M1174.08 72.8736H1123.62M1319.7 89.268L1336.25 95.3366M1319.7 89.268H1374.22M1357.11 83.5173L1374.22 89.268M1392.61 78.0597H1439.61M1374.22 89.268L1392.28 95.3366M1280.23 95.3366L1296.13 101.749M1280.23 95.3366H1336.25M1280.23 95.3366H1224.21M1336.25 95.3366L1353.75 101.749M1336.25 95.3366H1392.28M1392.28 95.3366L1411.36 101.749M1392.28 95.3366H1439.61M1296.13 101.749H1353.75M1296.13 101.749H1238.52M1372.26 108.537L1353.75 101.749M1372.26 108.537L1391.89 115.732M1372.26 108.537H1431.56M1353.75 101.749H1411.36M1238.52 101.749H1180.91M1238.52 101.749L1224.21 95.3366M1411.36 101.749L1431.56 108.537M1411.36 101.749H1439.61M1224.21 95.3366H1168.18M1391.89 115.732L1412.73 123.375M1391.89 115.732H1439.61M1431.56 108.537H1439.61M1431.56 108.537L1439.61 111.244M1349.76 123.375L1369.92 131.507M1349.76 123.375H1412.73M1349.76 123.375H1286.78M1412.73 123.375L1434.91 131.507M1412.73 123.375H1439.61M1369.92 131.507H1434.91M1369.92 131.507H1304.93M1434.91 131.507L1439.61 133.229M1434.91 131.507H1439.61M1304.93 131.507H1239.94M1304.93 131.507L1286.78 123.375M1286.78 123.375H1223.81M1438.99 159.359H1367.09M1438.99 159.359H1439.61M1438.99 159.359L1439.61 159.611M1367.09 159.359H1295.19M1367.09 159.359L1390.85 170.007M936.582 14.98L938.036 15.9571L938.525 16.2861L940.503 17.6158M936.582 14.98H972.679M936.582 14.98H900.485M968.263 12.4364L965.052 10.5865L964 9.98014M968.263 12.4364L972.119 14.657L972.679 14.98M968.263 12.4364H1003.73M964 9.98014H998.857M964 9.98014L959.881 7.60708M925.612 7.60708H959.881M925.612 7.60708L924.318 6.73766L922.198 5.31255M925.612 7.60708H891.344M972.679 14.98L973.807 15.6299L977.254 17.6158M972.679 14.98H1008.78M1003.73 12.4364L998.857 9.98014M1003.73 12.4364L1008.78 14.98M998.857 9.98014L995.311 8.19274L994.149 7.60708M959.881 7.60708H994.149M959.881 7.60708L955.898 5.31255M1008.78 14.98L1014 17.6158M1028.42 7.60708L1027.77 7.31572L1023.3 5.31255M1028.42 7.60708H994.149M994.149 7.60708L992.424 6.73766L989.598 5.31255M940.503 17.6158H977.254M940.503 17.6158H903.752M981.997 20.3486L977.254 17.6158M981.997 20.3486L986.919 23.184M981.997 20.3486H1019.43M977.254 17.6158H1014M903.752 17.6158H867.002M903.752 17.6158L900.485 14.98M1014 17.6158L1019.43 20.3486M900.485 14.98H864.388M986.919 23.184L990.09 25.0111L990.734 25.3814L992.029 26.128M986.919 23.184H1025.05M1019.43 20.3486L1025.05 23.184M1025.05 23.184L1030.89 26.128M953.168 26.128L957.72 29.1872M953.168 26.128H992.029M953.168 26.128H914.307M992.029 26.128L997.339 29.1872M992.029 26.128H1030.89M1030.89 26.128L1036.96 29.1872M957.72 29.1872H997.339M957.72 29.1872H918.1M1002.86 32.368L999.384 30.3653L998.7 29.9705L997.339 29.1872M1002.86 32.368L1008.61 35.6781M1002.86 32.368H1043.27M997.339 29.1872H1036.96M918.1 29.1872H878.48M918.1 29.1872L914.307 26.128M1036.96 29.1872L1043.27 32.368M914.307 26.128H875.445M1008.61 35.6781L1014.59 39.1254M1008.61 35.6781H1049.84M1043.27 32.368L1049.84 35.6781M1049.84 35.6781L1056.67 39.1254M972.506 39.1254L975.151 40.903L975.821 41.3536L977.852 42.7187M972.506 39.1254H1014.59M972.506 39.1254H930.421M1014.59 39.1254L1020.83 42.7187M1014.59 39.1254H1056.67M1056.67 39.1254L1063.8 42.7187M977.852 42.7187H1020.83M977.852 42.7187H934.877M1027.33 46.4675L1020.83 42.7187M1027.33 46.4675L1034.13 50.3818M1027.33 46.4675H1071.24M1020.83 42.7187H1063.8M934.877 42.7187H891.901M934.877 42.7187L933.745 41.8062L930.421 39.1254M1063.8 42.7187L1071.24 46.4675M930.421 39.1254H888.338M1034.13 50.3818L1041.23 54.4734M1034.13 50.3818H1079M1071.24 46.4675L1079 50.3818M1079 50.3818L1087.12 54.4734M995.341 54.4734L1001.71 58.7542M995.341 54.4734H1041.23M995.341 54.4734H949.451M1041.23 54.4734L1048.66 58.7542M1041.23 54.4734H1087.12M1087.12 54.4734L1095.61 58.7542M1001.71 58.7542H1048.66M1001.71 58.7542H954.759M1056.44 63.2377L1048.66 58.7542M1056.44 63.2377L1064.6 67.9387M1056.44 63.2377H1104.51M1048.66 58.7542H1095.61M954.759 58.7542H907.807M954.759 58.7542L949.451 54.4734M1095.61 58.7542L1104.51 63.2377M949.451 54.4734H903.561M1064.6 67.9387L1073.17 72.8736M1064.6 67.9387H1113.83M1104.51 63.2377L1113.83 67.9387M1113.83 67.9387L1123.62 72.8736M1022.72 72.8736L1030.43 78.0597M1022.72 72.8736H1073.17M1022.72 72.8736H972.265M1073.17 72.8736L1082.17 78.0597M1073.17 72.8736H1123.62M1123.62 72.8736L1133.91 78.0597M1030.43 78.0597H1082.17M1030.43 78.0597H978.695M1091.65 83.5173L1082.17 78.0597M1091.65 83.5173L1101.63 89.268M1091.65 83.5173H1144.74M1082.17 78.0597H1133.91M978.695 78.0597H926.956M978.695 78.0597L972.265 72.8736M1133.91 78.0597L1144.74 83.5173M972.265 72.8736H921.812M1101.63 89.268L1112.16 95.3366M1101.63 89.268H1156.15M1144.74 83.5173L1156.15 89.268M1156.15 89.268L1168.18 95.3366M1056.14 95.3366L1065.68 101.749M1056.14 95.3366H1112.16M1056.14 95.3366H1000.12M1112.16 95.3366L1123.29 101.749M1112.16 95.3366H1168.18M1168.18 95.3366L1180.91 101.749M1065.68 101.749H1123.29M1065.68 101.749H1008.07M1135.07 108.537L1123.29 101.749M1135.07 108.537L1147.57 115.732M1135.07 108.537H1194.37M1123.29 101.749H1180.91M1008.07 101.749H950.453M1008.07 101.749L1000.12 95.3366M1180.91 101.749L1194.37 108.537M1000.12 95.3366H944.093M1147.57 115.732L1160.83 123.375M1147.57 115.732H1208.65M1194.37 108.537L1208.65 115.732M1208.65 115.732L1223.81 123.375M1097.86 123.375L1109.95 131.507M1097.86 123.375H1160.83M1097.86 123.375H1034.88M1160.83 123.375L1174.95 131.507M1160.83 123.375H1223.81M1223.81 123.375L1239.94 131.507M1109.95 131.507H1174.95M1109.95 131.507H1044.96M1189.99 140.177L1174.95 131.507M1189.99 140.177L1206.07 149.44M1189.99 140.177H1257.14M1174.95 131.507H1239.94M1044.96 131.507H979.969M1044.96 131.507L1034.88 123.375M1239.94 131.507L1257.14 140.177M1034.88 123.375H971.903M1206.07 149.44L1223.29 159.359M1206.07 149.44H1275.51M1257.14 140.177L1275.51 149.44M1275.51 149.44L1295.19 159.359M1151.39 159.359L1167.23 170.007M1151.39 159.359H1223.29M1151.39 159.359H1079.49M1223.29 159.359L1241.77 170.007M1223.29 159.359H1295.19M1295.19 159.359L1316.31 170.007M1167.23 170.007H1241.77M1167.23 170.007H1092.7M1261.67 181.466L1241.77 170.007M1261.67 181.466L1283.13 193.834M1261.67 181.466H1339.05M1241.77 170.007H1316.31M1092.7 170.007H1018.16M1092.7 170.007L1079.49 159.359M1316.31 170.007L1339.05 181.466M1316.31 170.007H1390.85M1079.49 159.359H1007.6M1283.13 193.834L1306.37 207.223M1283.13 193.834H1363.58M1339.05 181.466L1363.58 193.834M1390.85 170.007H1439.61M1363.58 193.834L1390.14 207.223M1363.58 193.834H1439.61M1222.61 207.223L1244.24 221.765M1222.61 207.223H1306.37M1222.61 207.223H1138.84M1306.37 207.223L1331.62 221.765M1306.37 207.223H1390.14M1390.14 207.223L1418.99 221.765M1390.14 207.223H1439.61M1244.24 221.765H1331.62M1244.24 221.765H1156.87M1359.13 237.615L1331.62 221.765M1359.13 237.615L1389.23 254.957M1359.13 237.615H1439.61M1331.62 221.765H1418.99M1156.87 221.765H1069.49M1156.87 221.765L1138.84 207.223M1418.99 221.765H1439.61M1418.99 221.765L1439.61 232.161M1138.84 207.223H1055.07M1389.23 254.957L1422.31 274.015M1389.23 254.957H1439.61M1321.98 274.015L1353.28 295.055M1321.98 274.015H1422.31M1321.98 274.015H1221.65M1422.31 274.015L1439.61 283.982M1422.31 274.015H1439.61M1353.28 295.055H1247.74M1353.28 295.055L1439.61 295.054M1247.74 295.055H1142.19M1247.74 295.055L1221.65 274.015M1221.65 274.015H1121.32M792.194 14.98L792.355 15.3043L792.516 15.6299L792.679 15.9571L792.841 16.2861L793.335 17.2809L793.501 17.6158M792.194 14.98H828.291M792.194 14.98H756.097M826.399 12.4364L825.022 10.5865L824.572 9.98014M826.399 12.4364L827.574 14.0156L828.291 14.98M826.399 12.4364H861.865M824.572 9.98014H859.429M824.572 9.98014L823.242 8.19274L822.806 7.60708M788.537 7.60708L788.393 7.31572L787.822 6.16381L787.399 5.31255M788.537 7.60708H822.806M788.537 7.60708H754.269M828.291 14.98L828.532 15.3043L828.775 15.6299L829.018 15.9571L829.263 16.2861L830.251 17.6158M828.291 14.98H864.388M861.865 12.4364L860.03 10.5865L859.429 9.98014M861.865 12.4364L864.388 14.98M859.429 9.98014L858.241 8.78348L857.364 7.89928L857.075 7.60708M822.806 7.60708L822.59 7.31572L822.16 6.73766L821.732 6.16381L821.521 5.8788L821.099 5.31255M822.806 7.60708H857.075M864.388 14.98L866.34 16.9478L867.002 17.6158M891.344 7.60708L889.201 5.8788L888.499 5.31255M891.344 7.60708H857.075M857.075 7.60708L855.08 5.59504L854.798 5.31255M793.501 17.6158H830.251M793.501 17.6158H756.751M832.284 20.3486L830.251 17.6158M832.284 20.3486L834.394 23.184M832.284 20.3486H869.712M830.251 17.6158H867.002M756.751 17.6158H720M756.751 17.6158L756.097 14.98M867.002 17.6158L869.712 20.3486M756.097 14.98H720M834.394 23.184L834.934 23.9094L835.753 25.0111L836.584 26.128M834.394 23.184H872.526M869.712 20.3486L870.059 20.6969L872.526 23.184M872.526 23.184L872.884 23.5459L873.245 23.9094L873.607 24.2751L875.445 26.128M797.723 26.128L799.24 29.1872M797.723 26.128H836.584M797.723 26.128H758.861M836.584 26.128L838.86 29.1872M836.584 26.128H875.445M875.445 26.128L877.71 28.4111L878.094 28.7983L878.48 29.1872M799.24 29.1872H838.86M799.24 29.1872H759.62M841.226 32.368L841.528 32.7747L841.833 33.183L842.138 33.5938L843.689 35.6781M841.226 32.368L840.031 30.7618L839.736 30.3653L839.443 29.9705L838.86 29.1872M841.226 32.368H881.635M838.86 29.1872H878.48M759.62 29.1872H720M759.62 29.1872L758.861 26.128M878.48 29.1872L881.635 32.368M758.861 26.128H720M843.689 35.6781L845.927 38.6866L846.253 39.1254M843.689 35.6781H884.918M881.635 32.368L882.444 33.183L884.918 35.6781M884.918 35.6781L886.184 36.9541L888.338 39.1254M804.168 39.1254L805.051 40.903L805.273 41.3536L805.951 42.7187M804.168 39.1254H846.253M804.168 39.1254H762.085M846.253 39.1254L848.926 42.7187M846.253 39.1254H888.338M888.338 39.1254L891.901 42.7187M805.951 42.7187H848.926M805.951 42.7187H762.975M851.715 46.4675L848.926 42.7187M851.715 46.4675L854.627 50.3818M851.715 46.4675H895.62M848.926 42.7187H891.901M762.975 42.7187H720M762.975 42.7187L762.749 41.8062L762.304 40.0096L762.085 39.1254M891.901 42.7187L895.62 46.4675M762.085 39.1254H720M854.627 50.3818L856.897 53.4334L857.671 54.4734M854.627 50.3818H899.503M895.62 46.4675L899.503 50.3818M899.503 50.3818L901.509 52.4048L903.561 54.4734M811.781 54.4734L813.903 58.7542M811.781 54.4734H857.671M811.781 54.4734H765.89M857.671 54.4734L860.855 58.7542M857.671 54.4734H903.561M903.561 54.4734L907.807 58.7542M813.903 58.7542H860.855M813.903 58.7542H766.952M864.191 63.2377L863.342 62.0972L860.855 58.7542M864.191 63.2377L867.688 67.9387M864.191 63.2377H912.254M860.855 58.7542H907.807M766.952 58.7542H720M766.952 58.7542L765.89 54.4734M907.807 58.7542L912.254 63.2377M765.89 54.4734H720M867.688 67.9387L871.359 72.8736M867.688 67.9387H916.917M912.254 63.2377L916.917 67.9387M916.917 67.9387L921.812 72.8736M820.906 72.8736L823.478 78.0597M820.906 72.8736H871.359M820.906 72.8736H770.453M871.359 72.8736L875.217 78.0597M871.359 72.8736H921.812M921.812 72.8736L926.956 78.0597M823.478 78.0597H875.217M823.478 78.0597H771.739M879.277 83.5173L875.217 78.0597M879.277 83.5173L883.555 89.268M879.277 83.5173H932.369M875.217 78.0597H926.956M771.739 78.0597H720M771.739 78.0597L770.61 73.5078L770.453 72.8736M926.956 78.0597L932.369 83.5173M770.453 72.8736H720M883.555 89.268L888.069 95.3366M883.555 89.268H938.073M932.369 83.5173L936.618 87.8019L938.073 89.268M938.073 89.268L944.093 95.3366M832.046 95.3366L835.226 101.749M832.046 95.3366H888.069M832.046 95.3366H776.023M888.069 95.3366L892.84 101.749M888.069 95.3366H944.093M944.093 95.3366L950.453 101.749M835.226 101.749H892.84M835.226 101.749H777.613M897.889 108.537L892.84 101.749M897.889 108.537L903.242 115.732M897.889 108.537H957.185M892.84 101.749H950.453M777.613 101.749H720M777.613 101.749L776.023 95.3366M950.453 101.749L957.185 108.537M776.023 95.3366H720M903.242 115.732L908.927 123.375M903.242 115.732H964.323M957.185 108.537L964.323 115.732M964.323 115.732L971.903 123.375M845.952 123.375L849.985 131.507M845.952 123.375H908.927M845.952 123.375H782.976M908.927 123.375L914.977 131.507M908.927 123.375H971.903M971.903 123.375L979.969 131.507M849.985 131.507H914.977M849.985 131.507H784.992M921.426 140.177L914.977 131.507M921.426 140.177L928.317 149.44M921.426 140.177H988.568M914.977 131.507H979.969M784.992 131.507H720M784.992 131.507L782.976 123.375M979.969 131.507L988.568 140.177M782.976 123.375H720M928.317 149.44L935.696 159.359M928.317 149.44H997.756M988.568 140.177L997.756 149.44M997.756 149.44L1007.6 159.359M863.797 159.359L869.078 170.007M863.797 159.359H935.696M863.797 159.359H791.899M935.696 159.359L943.617 170.007M935.696 159.359H1007.6M1007.6 159.359L1018.16 170.007M869.078 170.007H943.617M869.078 170.007H794.539M952.142 181.466L943.617 170.007M952.142 181.466L961.343 193.834M952.142 181.466H1029.52M943.617 170.007H1018.16M794.539 170.007H720M794.539 170.007L791.899 159.359M1018.16 170.007L1029.52 181.466M791.899 159.359H720M961.343 193.834L971.304 207.223M961.343 193.834H1041.79M1029.52 181.466L1041.79 193.834M1041.79 193.834L1055.07 207.223M887.536 207.223L894.747 221.765M887.536 207.223H971.304M887.536 207.223H803.768M971.304 207.223L982.121 221.765M971.304 207.223H1055.07M1055.07 207.223L1069.49 221.765M894.747 221.765H982.121M894.747 221.765H807.374M993.912 237.615L982.121 221.765M993.912 237.615L1006.81 254.957M993.912 237.615H1085.22M982.121 221.765H1069.49M807.374 221.765H720M807.374 221.765L803.768 207.223M1069.49 221.765L1085.22 237.615M803.768 207.223H720M1006.81 254.957L1020.99 274.015M1006.81 254.957H1102.42M1085.22 237.615L1102.42 254.957M1102.42 254.957L1121.32 274.015M920.66 274.015L931.095 295.055M920.66 274.015H1020.99M920.66 274.015H820.33M1020.99 274.015L1036.64 295.055M1020.99 274.015H1121.32M1121.32 274.015L1142.19 295.055M1036.64 295.055H931.095M1036.64 295.055H1142.19M931.095 295.055H825.548M825.548 295.055H720M825.548 295.055L820.33 274.015M820.33 274.015H720M647.806 14.98L647.645 15.3043L647.484 15.6299L647.321 15.9571L647.159 16.2861L646.83 16.9478L646.665 17.2809L646.499 17.6158M647.806 14.98H683.903M647.806 14.98H611.709M684.534 12.4364L685.143 9.98014M684.534 12.4364L683.903 14.98M684.534 12.4364H720M685.143 9.98014L685.217 9.67908L685.292 9.37927L685.366 9.08074L685.732 7.60708M685.143 9.98014H720M651.463 7.60708L651.607 7.31572L652.178 6.16381L652.601 5.31255M651.463 7.60708H685.732M651.463 7.60708H617.194M683.903 14.98L683.822 15.3043L683.742 15.6299L683.66 15.9571L683.25 17.6158M683.903 14.98H720M720 12.4364V9.98014M720 12.4364V14.98M720 9.98014V7.60708M685.732 7.60708H720M685.732 7.60708L685.947 6.73766L686.019 6.4501L686.3 5.31255M720 14.98V17.6158M754.269 7.60708L754.054 6.73766L753.982 6.4501L753.911 6.16381L753.84 5.8788L753.77 5.59504L753.7 5.31255M754.269 7.60708H720M720 7.60708V5.31255M646.499 17.6158H683.25M646.499 17.6158H609.749M682.572 20.3486L682.485 20.6969L682.399 21.0474L681.869 23.184M682.572 20.3486L683.25 17.6158M682.572 20.3486H720M683.25 17.6158H720M609.749 17.6158H572.998M609.749 17.6158L610.245 16.9478L610.492 16.6163L610.737 16.2861L610.983 15.9571L611.225 15.6299L611.468 15.3043L611.709 14.98M720 17.6158V20.3486M611.709 14.98H575.612M681.869 23.184L681.139 26.128M681.869 23.184H720M720 20.3486V23.184M720 23.184V26.128M642.277 26.128L640.76 29.1872M642.277 26.128H681.139M642.277 26.128H603.416M681.139 26.128L680.38 29.1872M681.139 26.128H720M720 26.128V29.1872M640.76 29.1872H680.38M640.76 29.1872H601.14M679.592 32.368L680.38 29.1872M679.592 32.368L678.771 35.6781M679.592 32.368H720M680.38 29.1872H720M601.14 29.1872H561.52M601.14 29.1872L603.416 26.128M720 29.1872V32.368M603.416 26.128H564.555M678.771 35.6781L678.454 36.9541L678.133 38.25L677.915 39.1254M678.771 35.6781H720M720 32.368V35.6781M720 35.6781V39.1254M635.832 39.1254L634.949 40.903L634.727 41.3536L634.049 42.7187M635.832 39.1254H677.915M635.832 39.1254H593.747M677.915 39.1254L677.697 40.0096L677.251 41.8062L677.025 42.7187M677.915 39.1254H720M720 39.1254V42.7187M634.049 42.7187H677.025M634.049 42.7187H591.074M676.095 46.4675L676.213 45.9899L677.025 42.7187M676.095 46.4675L675.125 50.3818M676.095 46.4675H720M677.025 42.7187H720M591.074 42.7187H548.099M591.074 42.7187L593.747 39.1254M720 42.7187V46.4675M593.747 39.1254H551.662M675.125 50.3818L674.11 54.4734M675.125 50.3818H720M720 46.4675V50.3818M720 50.3818V54.4734M628.219 54.4734L626.097 58.7542M628.219 54.4734H674.11M628.219 54.4734H582.329M674.11 54.4734L673.048 58.7542M674.11 54.4734H720M720 54.4734V58.7542M626.097 58.7542H673.048M626.097 58.7542H579.145M671.937 63.2377L673.048 58.7542M671.937 63.2377L670.771 67.9387M671.937 63.2377H720M673.048 58.7542H720M579.145 58.7542H532.193M579.145 58.7542L582.329 54.4734M720 58.7542V63.2377M582.329 54.4734H536.439M670.771 67.9387L669.547 72.8736M670.771 67.9387H720M720 63.2377V67.9387M720 67.9387V72.8736M619.094 72.8736L616.522 78.0597M619.094 72.8736H669.547M619.094 72.8736H568.642M669.547 72.8736L668.261 78.0597M669.547 72.8736H720M720 72.8736V78.0597M616.522 78.0597H668.261M616.522 78.0597H564.783M666.908 83.5173L668.261 78.0597M666.908 83.5173L665.482 89.268M666.908 83.5173H720M668.261 78.0597H720M564.783 78.0597H513.044M564.783 78.0597L568.642 72.8736M720 78.0597V83.5173M568.642 72.8736H518.188M665.482 89.268L663.977 95.3366M665.482 89.268H720M720 83.5173V89.268M720 89.268V95.3366M607.954 95.3366L604.774 101.749M607.954 95.3366H663.977M607.954 95.3366H551.931M663.977 95.3366L662.387 101.749M663.977 95.3366H720M720 95.3366V101.749M604.774 101.749H662.387M604.774 101.749H547.16M660.704 108.537L662.387 101.749M660.704 108.537L658.919 115.732M660.704 108.537H720M662.387 101.749H720M547.16 101.749H489.547M547.16 101.749L551.931 95.3366M720 101.749V108.537M551.931 95.3366H495.907M658.919 115.732L657.024 123.375M658.919 115.732H720M720 108.537V115.732M720 115.732V123.375M594.048 123.375L590.016 131.507M594.048 123.375H657.024M594.048 123.375H531.073M657.024 123.375L655.008 131.507M657.024 123.375H720M720 123.375V131.507M590.016 131.507H655.008M590.016 131.507H525.023M652.858 140.177L655.008 131.507M652.858 140.177L650.561 149.44M652.858 140.177H720M655.008 131.507H720M525.023 131.507H460.031M525.023 131.507L531.073 123.375M720 131.507V140.177M531.073 123.375H468.097M650.561 149.44L648.101 159.359M650.561 149.44H720M720 140.177V149.44M720 149.44V159.359M576.203 159.359L570.922 170.007M576.203 159.359H648.101M576.203 159.359H504.304M648.101 159.359L645.461 170.007M648.101 159.359H720M720 159.359V170.007M570.922 170.007H645.461M570.922 170.007H496.383M642.619 181.466L645.461 170.007M642.619 181.466L639.553 193.834M642.619 181.466H720M645.461 170.007H720M496.383 170.007H421.844M496.383 170.007L504.304 159.359M720 170.007V181.466M504.304 159.359H432.405M639.553 193.834L636.232 207.223M639.553 193.834H720M720 181.466V193.834M720 193.834V207.223M552.465 207.223L545.253 221.765M552.465 207.223H636.232M552.465 207.223H468.696M636.232 207.223L632.626 221.765M636.232 207.223H720M720 207.223V221.765M545.253 221.765H632.626M545.253 221.765H457.879M628.696 237.615L632.626 221.765M628.696 237.615L624.396 254.957M628.696 237.615H720M632.626 221.765H720M457.879 221.765H370.505M457.879 221.765L468.696 207.223M720 221.765V237.615M468.696 207.223H384.929M624.396 254.957L619.67 274.015M624.396 254.957H720M720 237.615V254.957M720 254.957V274.015M519.34 274.015L508.905 295.055M519.34 274.015H619.67M519.34 274.015H419.009M619.67 274.015L614.452 295.055M619.67 274.015H720M720 274.015V295.055M614.452 295.055H508.905M614.452 295.055H720M508.905 295.055H403.358M403.358 295.055H297.81M403.358 295.055L419.009 274.015M419.009 274.015H318.679M503.418 14.98L501.475 16.2861L499.497 17.6158M503.418 14.98H539.515M503.418 14.98H467.322M542.669 12.4364L545.714 9.98014M542.669 12.4364L539.515 14.98M542.669 12.4364H578.135M545.714 9.98014H580.571M545.714 9.98014L547.93 8.19274L548.657 7.60708M514.388 7.60708H548.657M514.388 7.60708L515.682 6.73766L517.802 5.31255M514.388 7.60708H480.119M539.515 14.98L536.248 17.6158M539.515 14.98H575.612M578.135 12.4364L580.571 9.98014M578.135 12.4364L575.612 14.98M580.571 9.98014L581.759 8.78348L582.636 7.89928L582.925 7.60708M548.657 7.60708H582.925M548.657 7.60708L550.799 5.8788L551.501 5.31255M575.612 14.98L573.66 16.9478L572.998 17.6158M617.194 7.60708L617.41 7.31572L617.841 6.73766L618.479 5.8788L618.901 5.31255M617.194 7.60708H582.925M582.925 7.60708L583.214 7.31572L583.788 6.73766L585.201 5.31255M499.497 17.6158H536.248M499.497 17.6158H462.746M532.859 20.3486L533.29 20.0015L533.718 19.6557L535.412 18.2893L536.248 17.6158M532.859 20.3486L530.235 22.4649L529.343 23.184M532.859 20.3486H570.288M536.248 17.6158H572.998M462.746 17.6158H425.996M462.746 17.6158L466.193 15.6299L467.322 14.98M572.998 17.6158L570.288 20.3486M467.322 14.98H431.224M529.343 23.184L528.895 23.5459L528.444 23.9094L527.079 25.0111L526.618 25.3814L525.693 26.128M529.343 23.184H567.474M570.288 20.3486L569.941 20.6969L567.474 23.184M567.474 23.184L567.116 23.5459L566.755 23.9094L566.393 24.2751L564.555 26.128M486.832 26.128L482.281 29.1872M486.832 26.128H525.693M486.832 26.128H447.971M525.693 26.128L521.9 29.1872M525.693 26.128H564.555M564.555 26.128L561.52 29.1872M482.281 29.1872H521.9M482.281 29.1872H442.661M517.957 32.368L521.9 29.1872M517.957 32.368L513.853 35.6781M517.957 32.368H558.365M521.9 29.1872H561.52M442.661 29.1872H403.041M442.661 29.1872L447.971 26.128M561.52 29.1872L558.365 32.368M447.971 26.128H409.109M513.853 35.6781L509.579 39.1254M513.853 35.6781H555.082M558.365 32.368L557.557 33.183L555.082 35.6781M555.082 35.6781L553.816 36.9541L552.53 38.25L551.662 39.1254M467.494 39.1254L464.849 40.903L462.148 42.7187M467.494 39.1254H509.579M467.494 39.1254H425.409M509.579 39.1254L505.123 42.7187M509.579 39.1254H551.662M551.662 39.1254L548.099 42.7187M462.148 42.7187H505.123M462.148 42.7187H419.173M500.476 46.4675L505.123 42.7187M500.476 46.4675L495.622 50.3818M500.476 46.4675H544.38M505.123 42.7187H548.099M419.173 42.7187H376.197M419.173 42.7187L425.409 39.1254M548.099 42.7187L544.38 46.4675M425.409 39.1254H383.326M495.622 50.3818L494.375 51.3876L490.549 54.4734M495.622 50.3818H540.497M544.38 46.4675L540.497 50.3818M540.497 50.3818L540 50.8834L538.491 52.4048L536.439 54.4734M444.659 54.4734L438.29 58.7542M444.659 54.4734H490.549M444.659 54.4734H398.769M490.549 54.4734L485.241 58.7542M490.549 54.4734H536.439M536.439 54.4734L532.193 58.7542M438.29 58.7542H485.241M438.29 58.7542H391.338M479.682 63.2377L483.188 60.4112L485.241 58.7542M479.682 63.2377L473.854 67.9387M479.682 63.2377H527.746M485.241 58.7542H532.193M391.338 58.7542H344.386M391.338 58.7542L398.769 54.4734M532.193 58.7542L527.746 63.2377M398.769 54.4734H352.878M473.854 67.9387L467.735 72.8736M473.854 67.9387H523.083M527.746 63.2377L523.083 67.9387M523.083 67.9387L518.188 72.8736M417.282 72.8736L409.566 78.0597M417.282 72.8736H467.735M417.282 72.8736H366.83M467.735 72.8736L461.305 78.0597M467.735 72.8736H518.188M518.188 72.8736L513.044 78.0597M409.566 78.0597H461.305M409.566 78.0597H357.827M454.539 83.5173L461.305 78.0597M454.539 83.5173L447.409 89.268M454.539 83.5173H507.631M461.305 78.0597H513.044M357.827 78.0597H306.089M357.827 78.0597L366.83 72.8736M513.044 78.0597L507.631 83.5173M366.83 72.8736H316.377M447.409 89.268L439.885 95.3366M447.409 89.268H501.927M507.631 83.5173L501.927 89.268M501.927 89.268L495.907 95.3366M383.862 95.3366L374.321 101.749M383.862 95.3366H439.885M383.862 95.3366H327.838M439.885 95.3366L431.934 101.749M439.885 95.3366H495.907M495.907 95.3366L489.547 101.749M374.321 101.749H431.934M374.321 101.749H316.707M423.518 108.537L431.934 101.749M423.518 108.537L414.597 115.732M423.518 108.537H482.815M431.934 101.749H489.547M316.707 101.749H259.094M316.707 101.749L327.838 95.3366M489.547 101.749L482.815 108.537M327.838 95.3366H271.816M414.597 115.732L405.121 123.375M414.597 115.732H475.677M482.815 108.537L475.677 115.732M475.677 115.732L468.097 123.375M342.145 123.375L330.047 131.507M342.145 123.375H405.121M342.145 123.375H279.169M405.121 123.375L395.039 131.507M405.121 123.375H468.097M468.097 123.375L460.031 131.507M330.047 131.507H395.039M330.047 131.507H265.054M384.29 140.177L395.039 131.507M384.29 140.177L372.804 149.44M384.29 140.177H451.432M395.039 131.507H460.031M265.054 131.507H200.062M265.054 131.507L279.169 123.375M460.031 131.507L451.432 140.177M279.169 123.375H216.193M372.804 149.44L360.506 159.359M372.804 149.44H442.244M451.432 140.177L442.244 149.44M442.244 149.44L432.405 159.359M288.607 159.359L272.765 170.007M288.607 159.359H360.506M288.607 159.359H216.708M360.506 159.359L347.304 170.007M360.506 159.359H432.405M432.405 159.359L421.844 170.007M272.765 170.007H347.304M272.765 170.007H198.226M333.096 181.466L347.304 170.007M333.096 181.466L317.761 193.834M333.096 181.466H410.477M347.304 170.007H421.844M198.226 170.007H123.687M198.226 170.007L216.708 159.359M421.844 170.007L410.477 181.466M216.708 159.359H144.809M317.761 193.834L301.161 207.223M317.761 193.834H398.209M410.477 181.466L398.209 193.834M398.209 193.834L384.929 207.223M217.393 207.223L195.758 221.765M217.393 207.223H301.161M217.393 207.223H133.625M301.161 207.223L283.132 221.765M301.161 207.223H384.929M384.929 207.223L370.505 221.765M195.758 221.765H283.132M195.758 221.765H108.384M263.48 237.615L283.132 221.765M263.48 237.615L241.977 254.957M263.48 237.615H354.784M283.132 221.765H370.505M108.384 221.765H21.0104M108.384 221.765L133.625 207.223M370.505 221.765L354.784 237.615M133.625 207.223H49.8579M241.977 254.957L218.349 274.015M241.977 254.957H337.582M354.784 237.615L337.582 254.957M337.582 254.957L318.679 274.015M118.019 274.015L86.7156 295.055M118.019 274.015H218.349M118.019 274.015H17.6882M218.349 274.015L192.263 295.055M218.349 274.015H318.679M318.679 274.015L297.81 295.055M192.263 295.055H86.7156M192.263 295.055H297.81M86.7156 295.055L0.387546 295.054M17.6882 274.015L0.387546 283.982M17.6882 274.015H0.387546M359.03 14.98L352.495 17.6158M359.03 14.98H395.127M359.03 14.98H322.934M400.804 12.4364L406.286 9.98014M400.804 12.4364L395.127 14.98M400.804 12.4364H436.27M406.286 9.98014H441.143M406.286 9.98014L411.582 7.60708M377.313 7.60708H411.582M377.313 7.60708L379.47 6.73766L383.003 5.31255M377.313 7.60708H343.045M395.127 14.98L389.245 17.6158M395.127 14.98H431.224M436.27 12.4364L441.143 9.98014M436.27 12.4364L431.224 14.98M441.143 9.98014L444.689 8.19274L445.851 7.60708M411.582 7.60708L412.232 7.31572L416.703 5.31255M411.582 7.60708H445.851M431.224 14.98L425.996 17.6158M480.119 7.60708L484.102 5.31255M480.119 7.60708H445.851M445.851 7.60708L447.576 6.73766L450.403 5.31255M352.495 17.6158H389.245M352.495 17.6158H315.744M383.146 20.3486L389.245 17.6158M383.146 20.3486L376.818 23.184M383.146 20.3486H420.575M389.245 17.6158H425.996M315.744 17.6158H278.994M315.744 17.6158L322.934 14.98M425.996 17.6158L420.575 20.3486M322.934 14.98H286.837M376.818 23.184L375.198 23.9094L370.247 26.128M376.818 23.184H414.95M420.575 20.3486L414.95 23.184M414.95 23.184L409.109 26.128M331.386 26.128L330.454 26.5042L323.801 29.1872M331.386 26.128H370.247M331.386 26.128H292.525M370.247 26.128L363.421 29.1872M370.247 26.128H409.109M409.109 26.128L408.364 26.5042L403.041 29.1872M323.801 29.1872H363.421M323.801 29.1872H284.181M356.322 32.368L363.421 29.1872M356.322 32.368L348.935 35.6781M356.322 32.368H396.731M363.421 29.1872H403.041M284.181 29.1872H244.561M284.181 29.1872L292.525 26.128M403.041 29.1872L396.731 32.368M292.525 26.128H253.663M348.935 35.6781L341.241 39.1254M348.935 35.6781H390.164M396.731 32.368L390.164 35.6781M390.164 35.6781L383.326 39.1254M299.157 39.1254L290.247 42.7187M299.157 39.1254H341.241M299.157 39.1254H257.073M341.241 39.1254L333.222 42.7187M341.241 39.1254H383.326M383.326 39.1254L376.197 42.7187M290.247 42.7187H333.222M290.247 42.7187H247.271M324.856 46.4675L333.222 42.7187M324.856 46.4675L316.119 50.3818M324.856 46.4675H368.76M333.222 42.7187H376.197M247.271 42.7187H204.296M247.271 42.7187L257.073 39.1254M376.197 42.7187L368.76 46.4675M257.073 39.1254H214.988M316.119 50.3818L306.988 54.4734M316.119 50.3818H360.995M368.76 46.4675L360.995 50.3818M360.995 50.3818L352.878 54.4734M261.098 54.4734L250.483 58.7542M261.098 54.4734H306.988M261.098 54.4734H215.208M306.988 54.4734L297.435 58.7542M306.988 54.4734H352.878M352.878 54.4734L344.386 58.7542M250.483 58.7542H297.435M250.483 58.7542H203.531M287.428 63.2377L297.435 58.7542M287.428 63.2377L276.937 67.9387M287.428 63.2377H335.492M297.435 58.7542H344.386M203.531 58.7542H156.579M203.531 58.7542L215.208 54.4734M344.386 58.7542L335.492 63.2377M215.208 54.4734H169.317M276.937 67.9387L265.924 72.8736M276.937 67.9387H326.166M335.492 63.2377L326.166 67.9387M326.166 67.9387L316.377 72.8736M215.471 72.8736L202.611 78.0597M215.471 72.8736H265.924M215.471 72.8736H165.018M265.924 72.8736L254.349 78.0597M265.924 72.8736H316.377M316.377 72.8736L306.089 78.0597M202.611 78.0597H254.349M202.611 78.0597H150.871M242.169 83.5173L254.349 78.0597M242.169 83.5173L229.335 89.268M242.169 83.5173H295.262M254.349 78.0597H306.089M150.871 78.0597H99.1326M150.871 78.0597L165.018 72.8736M306.089 78.0597L295.262 83.5173M165.018 72.8736H114.565M229.335 89.268L215.792 95.3366M229.335 89.268H283.853M295.262 83.5173L283.853 89.268M283.853 89.268L271.816 95.3366M159.769 95.3366L143.868 101.749M159.769 95.3366H215.792M159.769 95.3366H103.746M215.792 95.3366L201.481 101.749M215.792 95.3366H271.816M271.816 95.3366L259.094 101.749M143.868 101.749H201.481M143.868 101.749H86.2546M186.333 108.537L201.481 101.749M186.333 108.537L170.274 115.732M186.333 108.537H245.629M201.481 101.749H259.094M86.2546 101.749H28.6413M86.2546 101.749L103.746 95.3366M259.094 101.749L245.629 108.537M103.746 95.3366H47.7231M170.274 115.732L153.217 123.375M170.274 115.732H231.355M245.629 108.537L231.355 115.732M231.355 115.732L216.193 123.375M90.2417 123.375L70.0775 131.507M90.2417 123.375H153.217M90.2417 123.375H27.2658M153.217 123.375L135.07 131.507M153.217 123.375H216.193M216.193 123.375L200.062 131.507M70.0775 131.507H135.07M70.0775 131.507H5.08526M115.72 140.177L135.07 131.507M115.72 140.177L95.0481 149.44M115.72 140.177H182.863M135.07 131.507H200.062M5.08526 131.507L27.2658 123.375M5.08526 131.507H0.387546M5.08526 131.507L0.387546 133.229M200.062 131.507L182.863 140.177M27.2658 123.375H0.387546M95.0481 149.44L72.911 159.359M95.0481 149.44H164.487M182.863 140.177L164.487 149.44M164.487 149.44L144.809 159.359M1.01196 159.359H72.911M1.01196 159.359H0.387546M1.01196 159.359L0.387546 159.611M72.911 159.359L49.1473 170.007M72.911 159.359H144.809M144.809 159.359L123.687 170.007M23.5726 181.466L49.1473 170.007M23.5726 181.466H100.953M23.5726 181.466H0.387546M23.5726 181.466L0.387546 191.855M49.1473 170.007H123.687M49.1473 170.007H0.387546M123.687 170.007L100.953 181.466M100.953 181.466L76.4183 193.834M76.4183 193.834L49.8579 207.223M76.4183 193.834H0.387546M49.8579 207.223L21.0104 221.765M49.8579 207.223H0.387546M21.0104 221.765H0.387546M21.0104 221.765L0.387546 232.161M214.642 14.98L205.493 17.6158M214.642 14.98H250.74M214.642 14.98H178.546M258.939 12.4364L266.857 9.98014M258.939 12.4364L250.74 14.98M258.939 12.4364H294.405M266.857 9.98014H301.714M266.857 9.98014L274.507 7.60708M240.239 7.60708H274.507M240.239 7.60708L248.204 5.31255M240.239 7.60708H205.97M250.74 14.98L242.243 17.6158M250.74 14.98H286.837M294.405 12.4364L301.714 9.98014M294.405 12.4364L286.837 14.98M301.714 9.98014L308.776 7.60708M274.507 7.60708L275.445 7.31572L281.904 5.31255M274.507 7.60708H308.776M286.837 14.98L278.994 17.6158M343.045 7.60708L349.303 5.31255M343.045 7.60708H308.776M308.776 7.60708L309.642 7.31572L315.603 5.31255M205.493 17.6158H242.243M205.493 17.6158H168.742M233.433 20.3486L242.243 17.6158M233.433 20.3486L224.293 23.184M233.433 20.3486H270.862M242.243 17.6158H278.994M168.742 17.6158H131.992M168.742 17.6158L178.546 14.98M278.994 17.6158L270.862 20.3486M178.546 14.98H142.449M224.293 23.184L214.802 26.128M224.293 23.184H262.424M270.862 20.3486L269.824 20.6969L262.424 23.184M262.424 23.184L253.663 26.128M175.941 26.128L165.321 29.1872M175.941 26.128H214.802M175.941 26.128H137.079M214.802 26.128L204.941 29.1872M214.802 26.128H253.663M253.663 26.128L244.561 29.1872M165.321 29.1872H204.941M165.321 29.1872H125.701M194.687 32.368L204.941 29.1872M194.687 32.368L184.017 35.6781M194.687 32.368H235.096M204.941 29.1872H244.561M125.701 29.1872H86.0814M125.701 29.1872L137.079 26.128M244.561 29.1872L235.096 32.368M137.079 26.128H98.2181M184.017 35.6781L172.904 39.1254M184.017 35.6781H225.246M235.096 32.368L225.246 35.6781M225.246 35.6781L214.988 39.1254M130.82 39.1254L118.345 42.7187M130.82 39.1254H172.904M130.82 39.1254H88.735M172.904 39.1254L161.321 42.7187M172.904 39.1254H214.988M214.988 39.1254L204.296 42.7187M118.345 42.7187H161.321M118.345 42.7187H75.3697M149.236 46.4675L161.321 42.7187M149.236 46.4675L136.617 50.3818M149.236 46.4675H193.141M161.321 42.7187H204.296M75.3697 42.7187H32.3946M75.3697 42.7187L88.735 39.1254M204.296 42.7187L193.141 46.4675M88.735 39.1254H46.6511M136.617 50.3818L123.427 54.4734M136.617 50.3818H181.492M193.141 46.4675L181.492 50.3818M181.492 50.3818L169.317 54.4734M77.5368 54.4734L62.676 58.7542M77.5368 54.4734H123.427M77.5368 54.4734H31.6472M123.427 54.4734L109.628 58.7542M123.427 54.4734H169.317M169.317 54.4734L156.579 58.7542M62.676 58.7542H109.628M95.174 63.2377L109.628 58.7542M95.174 63.2377L80.0202 67.9387M95.174 63.2377H143.238M109.628 58.7542H156.579M156.579 58.7542L143.238 63.2377M31.6472 54.4734H0.387546M80.0202 67.9387L64.1122 72.8736M80.0202 67.9387H129.249M143.238 63.2377L129.249 67.9387M129.249 67.9387L114.565 72.8736M13.6591 72.8736H64.1122M13.6591 72.8736H0.387546M13.6591 72.8736L0.387546 76.6963M64.1122 72.8736L47.3932 78.0597M64.1122 72.8736H114.565M114.565 72.8736L99.1326 78.0597M29.8002 83.5173L47.3932 78.0597M29.8002 83.5173L11.2619 89.268M29.8002 83.5173H82.8926M29.8002 83.5173H0.387546M47.3932 78.0597H99.1326M47.3932 78.0597H0.387546M99.1326 78.0597L82.8926 83.5173M0.241375 76.7385L0.387546 76.6963M11.2619 89.268H65.7801M11.2619 89.268H0.387546M11.2619 89.268L0.387546 92.6414M82.8926 83.5173L65.7801 89.268M65.7801 89.268L47.7231 95.3366M47.7231 95.3366L28.6413 101.749M47.7231 95.3366H0.387546M8.44421 108.537L28.6413 101.749M8.44421 108.537H0.387546M8.44421 108.537L0.387546 111.244M28.6413 101.749H0.387546M70.2552 14.98L58.491 17.6158M70.2552 14.98H106.352M70.2552 14.98H34.1576M117.074 12.4364L127.428 9.98014M117.074 12.4364L106.352 14.98M117.074 12.4364H152.541M127.428 9.98014H162.285M127.428 9.98014L137.433 7.60708M103.164 7.60708H137.433M103.164 7.60708L113.405 5.31255M103.164 7.60708H68.8954M106.352 14.98L95.2415 17.6158M106.352 14.98H142.449M152.541 12.4364L162.285 9.98014M152.541 12.4364L142.449 14.98M162.285 9.98014L171.701 7.60708M137.433 7.60708H171.701M137.433 7.60708L147.105 5.31255M142.449 14.98L131.992 17.6158M205.97 7.60708L214.504 5.31255M205.97 7.60708H171.701M171.701 7.60708L180.805 5.31255M58.491 17.6158H95.2415M58.491 17.6158H21.7405M83.7209 20.3486L95.2415 17.6158M83.7209 20.3486L71.7679 23.184M83.7209 20.3486H121.149M95.2415 17.6158H131.992M21.7405 17.6158L34.1576 14.98M21.7405 17.6158H0.387546M131.992 17.6158L121.149 20.3486M34.1576 14.98H0.387546M71.7679 23.184L59.3568 26.128M71.7679 23.184H109.899M121.149 20.3486L109.899 23.184M109.899 23.184L98.2181 26.128M20.4955 26.128L6.84157 29.1872M20.4955 26.128H59.3568M20.4955 26.128H0.387546M59.3568 26.128L46.4615 29.1872M59.3568 26.128H98.2181M98.2181 26.128L86.0814 29.1872M33.0527 32.368L46.4615 29.1872M33.0527 32.368L19.099 35.6781M33.0527 32.368H73.4612M33.0527 32.368H0.387546M46.4615 29.1872H6.84157M46.4615 29.1872H86.0814M6.84157 29.1872L0.387546 30.633M6.84157 29.1872H0.387546M86.0814 29.1872L73.4612 32.368M19.099 35.6781L4.56654 39.1254M19.099 35.6781H60.3283M19.099 35.6781H0.387546M73.4612 32.368L60.3283 35.6781M60.3283 35.6781L46.6511 39.1254M4.56654 39.1254H46.6511M4.56654 39.1254L0.387546 40.1165M4.56654 39.1254H0.387546M46.6511 39.1254L32.3946 42.7187M17.5211 46.4675L32.3946 42.7187M17.5211 46.4675L1.99018 50.3818M17.5211 46.4675H0.387546M32.3946 42.7187H0.387546M0.162665 42.7187H0.387546M1.99018 50.3818H0.387546M1.99018 50.3818L0.387546 50.7858M0 50.8834L0.387546 50.7858M10.6758 12.4364L22.8567 9.98014M10.6758 12.4364H0.387546M10.6758 12.4364L0.387546 14.5107M22.8567 9.98014L34.6269 7.60708M22.8567 9.98014H0.387546M68.8954 7.60708L79.7053 5.31255M68.8954 7.60708H34.6269M34.6269 7.60708L46.0057 5.31255M34.6269 7.60708H0.387546M1191.8 5.31255H1225.5M1191.8 5.31255H1158.1M1217.24 3.09318L1219.28 3.64127L1225.5 5.31255M1217.24 3.09318H1250.39M1225.5 5.31255H1259.2M1250.39 3.09318L1252.56 3.64127L1253.66 3.91658L1259.2 5.31255M1259.2 5.31255H1292.89M1292.89 5.31255H1326.6M1158.1 5.31255H1124.4M1326.6 5.31255H1360.29M1360.29 5.31255L1349.84 3.09318M1360.29 5.31255H1393.99M1349.84 3.09318H1382.99M1057 5.31255H1090.7M1057 5.31255H1023.3M1084.64 3.09318L1086.14 3.64127L1086.89 3.91658L1090.7 5.31255M1084.64 3.09318H1117.79M1090.7 5.31255H1124.4M1117.79 3.09318L1124.4 5.31255M1023.3 5.31255H989.598M922.198 5.31255H955.898M922.198 5.31255H888.499M952.045 3.09318L952.52 3.36638L952.996 3.64127L953.475 3.91658L955.898 5.31255M952.045 3.09318H985.194M955.898 5.31255H989.598M985.194 3.09318L989.598 5.31255M888.499 5.31255H854.798M787.399 5.31255H821.099M787.399 5.31255H753.7M819.448 3.09318L821.099 5.31255M819.448 3.09318H852.598M821.099 5.31255H854.798M852.598 3.09318L852.869 3.36638L853.141 3.64127L853.415 3.91658L854.798 5.31255M753.7 5.31255H720M652.601 5.31255H686.3M652.601 5.31255H618.901M686.851 3.09318L686.3 5.31255M686.851 3.09318H720M686.3 5.31255H720M720 3.09318V5.31255M618.901 5.31255H585.201M517.802 5.31255H551.501M517.802 5.31255H484.102M554.253 3.09318L553.574 3.64127L552.198 4.75054L551.501 5.31255M554.253 3.09318H587.402M551.501 5.31255H585.201M587.402 3.09318L587.131 3.36638L586.859 3.64127L586.585 3.91658L585.201 5.31255M484.102 5.31255H450.403M383.003 5.31255H416.703M383.003 5.31255H349.303M421.656 3.09318L420.433 3.64127L419.817 3.91658L416.703 5.31255M421.656 3.09318H454.806M416.703 5.31255H450.403M454.806 3.09318L454.263 3.36638L450.403 5.31255M349.303 5.31255H315.603M248.204 5.31255H281.904M248.204 5.31255H214.504M289.059 3.09318L287.292 3.64127L286.403 3.91658L281.904 5.31255M289.059 3.09318H322.208M281.904 5.31255H315.603M322.208 3.09318L321.394 3.36638L315.603 5.31255M214.504 5.31255H180.805M113.405 5.31255H147.105M113.405 5.31255H79.7053M156.461 3.09318L147.105 5.31255M156.461 3.09318H189.61M147.105 5.31255H180.805M189.61 3.09318L187.437 3.64127L186.342 3.91658L180.805 5.31255M79.7053 5.31255H46.0057M23.8641 3.09318L12.3061 5.31255M23.8641 3.09318H57.0136M23.8641 3.09318H0.387546M12.3061 5.31255H46.0057M12.3061 5.31255L0.387546 7.60146M12.3061 5.31255H0.387546M57.0136 3.09318L54.2955 3.64127L46.0057 5.31255M1382.99 3.09318L1385.7 3.64127L1393.99 5.31255M1393.99 5.31255H1427.69M1427.69 5.31255L1439.61 7.60147M1427.69 5.31255H1439.61M1439.61 111.244V108.537M1439.61 111.244V115.732M1439.61 108.537V101.749M1439.61 115.732V117.074V123.375M1439.61 123.375V131.507M1439.61 58.7542V54.4734M1439.61 58.7542V62.8774M1439.61 3.09318V5.31255M1439.61 5.31255V7.60147M1439.61 7.60147L1439.64 7.60708H1439.61M1439.61 7.60147V7.60708M1439.61 7.60708V9.98014M1439.61 9.98014V12.4364M1439.61 12.4364V14.5107M1439.61 14.5107V14.98M1439.61 14.98V17.6158M1439.61 17.6158V20.3486M1439.61 20.3486V22.1474M1439.61 22.1474V23.184M1439.61 23.184V26.128M1439.61 26.128V29.1872M1439.61 29.1872V30.633M1439.61 30.633V32.368M1439.61 32.368V35.6781M1439.61 35.6781V39.1254M1439.61 39.1254V40.1165M1439.61 40.1165V42.7187M1439.61 42.7187V46.4675M1439.61 46.4675V50.3818M1439.61 50.3818V50.7858M1439.61 50.7858V54.4734M1439.61 63.2377V67.9387M1439.61 63.2377V62.8774M1439.61 67.9387V72.8736M1439.61 72.8736V76.6964M1439.61 76.6964V78.0597M1439.61 78.0597V83.5173M1439.61 83.5173V89.268M1439.61 89.268V92.6414M1439.61 92.6414V95.3366M1439.61 95.3366V101.749M1439.61 131.507V133.229M1439.61 133.229V140.177M1439.61 140.177V149.44M1439.61 149.44V159.359M1439.61 159.359V159.611M1439.61 159.611V170.007M1439.61 170.007V181.466M1439.61 181.466V191.855M1439.61 191.855V193.834M1439.61 193.834V207.223M1439.61 207.223V221.765M1439.61 221.765V232.161M1439.61 232.161V237.615M1439.61 237.615V254.957M1439.61 254.957V274.015M1439.61 274.015V283.982M1439.61 283.982V295.054M1439.61 295.054V295.129H0.387546V295.054M0.387546 63.2377V67.9387M0.387546 63.2377V62.8774M0.387546 62.8774V58.7542M0.387546 58.7542V54.4734M0.387546 54.4734V50.7858M0.387546 50.7858V50.3818M0.387546 50.3818V46.4675M0.387546 46.4675V42.7187M0.387546 42.7187V40.1165M0.387546 40.1165V39.1254M0.387546 39.1254V35.6781M0.387546 35.6781V32.368M0.387546 32.368V30.633M0.387546 30.633V29.1872M0.387546 29.1872V26.128M0.387546 26.128V23.184M0.387546 23.184V22.1474M0.387546 22.1474V20.3486M0.387546 20.3486V17.6158M0.387546 17.6158V14.98M0.387546 14.98V14.5107M0.387546 14.5107V12.4364M0.387546 12.4364V9.98014M0.387546 9.98014V7.60708M0.387546 7.60708H0.35831L0.387546 7.60146M0.387546 7.60708V7.60146M0.387546 7.60146V5.31255M0.387546 5.31255V3.09318M0.387546 295.054V283.982M0.387546 283.982V274.015M0.387546 274.015V254.958M0.387546 254.958V237.615M0.387546 237.615V232.161M0.387546 232.161V221.765M0.387546 221.765V207.223M0.387546 207.223V193.834M0.387546 193.834V191.855M0.387546 191.855V181.466M0.387546 181.466V170.007M0.387546 170.007V159.611M0.387546 159.611V159.359M0.387546 159.359V149.44M0.387546 149.44V140.177M0.387546 140.177V133.229M0.387546 133.229V131.507M0.387546 131.507V123.375M0.387546 123.375V115.732M0.387546 115.732V111.244M0.387546 111.244V108.537M0.387546 108.537V101.749M0.387546 101.749V95.3366M0.387546 95.3366V92.6414M0.387546 92.6414V89.268M0.387546 89.268V83.5173M0.387546 83.5173V78.0597M0.387546 78.0597V76.6963M0.387546 76.6963V72.8736M0.387546 72.8736V67.9387" stroke="url(#paint0_radial_1_10)" stroke-opacity="0.6" stroke-width="1.8895" stroke-miterlimit="10" stroke-linecap="round" stroke-linejoin="round"/>
<defs>
<radialGradient id="paint0_radial_1_10" cx="0" cy="0" r="1" gradientUnits="userSpaceOnUse" gradientTransform="translate(720 284.287) rotate(-90) scale(460.507 2254.13)">
<stop stop-color="#525252"/>
<stop offset="0.489074" stop-color="#CED2DF" stop-opacity="0"/>
</radialGradient>
</defs>
</svg>
